<svg xmlns="http://www.w3.org/2000/svg" xmlns:xlink="http://www.w3.org/1999/xlink" xmlns:lucid="lucid" width="1433.45" height="1280"><g transform="translate(13.450617283950606 -20)" lucid:page-tab-id="QV2JixvTphV6"><path d="M0 0h1870.87v1322.84H0z" fill="#fff"/><path d="M180 46a6 6 0 0 1 6-6h1208a6 6 0 0 1 6 6v1228a6 6 0 0 1-6 6H186a6 6 0 0 1-6-6z" stroke="#5e5e5e" stroke-width="3" fill-opacity="0"/><use xlink:href="#a" transform="matrix(1,0,0,1,188.0000000000001,48) translate(523.7592592592592 17.77777777777778)"/><use xlink:href="#b" transform="matrix(1,0,0,1,188.0000000000001,48) translate(603.8827160493827 17.77777777777778)"/><use xlink:href="#c" transform="matrix(1,0,0,1,188.0000000000001,48) translate(617.4012345679012 17.77777777777778)"/><path d="M99.75 642.75c0 10.9-8.84 19.75-19.75 19.75-10.9 0-19.75-8.84-19.75-19.75C60.25 631.85 69.1 623 80 623c10.9 0 19.75 8.84 19.75 19.75z" stroke="#5e5e5e" stroke-width="3" fill="#fff"/><path d="M80 662.5v49.3a20.7 20.7 0 0 0 3.2 11.07L120 781m-40-63.2L40 781m0-98.75h80" stroke="#5e5e5e" stroke-width="3" fill="none"/><path d="M40 629a6 6 0 0 1 6-6h68a6 6 0 0 1 6 6v168a6 6 0 0 1-6 6H46a6 6 0 0 1-6-6z" fill="none"/><use xlink:href="#d" transform="matrix(1,0,0,1,-40,781) translate(48.549382716049394 17.77777777777778)"/><path d="M480 381c0 33.14-35.82 60-80 60s-80-26.86-80-60 35.82-60 80-60 80 26.86 80 60z" stroke="#5e5e5e" stroke-width="3" fill="#fff"/><use xlink:href="#e" transform="matrix(1,0,0,1,320,321) translate(27.029999999999994 63.15)"/><use xlink:href="#f" transform="matrix(1,0,0,1,320,321) translate(54.029999999999994 63.15)"/><path d="M480 120c0 33.14-35.82 60-80 60s-80-26.86-80-60 35.82-60 80-60 80 26.86 80 60z" stroke="#5e5e5e" stroke-width="3" fill="#fff"/><use xlink:href="#g" transform="matrix(1,0,0,1,320,60) translate(19.654999999999994 63.15)"/><use xlink:href="#h" transform="matrix(1,0,0,1,320,60) translate(55.55499999999999 63.15)"/><use xlink:href="#i" transform="matrix(1,0,0,1,320,60) translate(83.505 63.15)"/><path d="M880 400c0 33.14-35.82 60-80 60s-80-26.86-80-60 35.82-60 80-60 80 26.86 80 60z" stroke="#5e5e5e" stroke-width="3" fill="#fff"/><use xlink:href="#j" transform="matrix(1,0,0,1,720,340) translate(41.529999999999994 51.9)"/><use xlink:href="#k" transform="matrix(1,0,0,1,720,340) translate(98.48 51.9)"/><use xlink:href="#l" transform="matrix(1,0,0,1,720,340) translate(28.10499999999999 73.5)"/><path d="M120.33 680.06l197.84-559.12" stroke="#5e5e5e" stroke-width="2" fill="none"/><path d="M121.28 680.37l-1.34 3.8-1.16-.42H120v-3h-.97l.37-1.05zM318.6 116.86v.2l-.1 2.92v.43l.03.7-1.3-.47 1.33-3.8z" stroke="#5e5e5e" stroke-width=".05" fill="#5e5e5e"/><path d="M120.55 680.17l197.4-298.34" stroke="#5e5e5e" stroke-width="2" fill="none"/><path d="M119.18 684.05l-.46-.3h.66zm2.22-3.35l-1.4 2.1v-2.05h-1.03l.76-1.16zM318.5 380.98v.43l.04.85-1.44-.95 1.46-2.2zM707.3 385.23l-1.52 1.3-2.55-3.02 1.53-1.28zm-7.64-9.04l-1.53 1.3-5.1-6.04 1.53-1.3zm-10.2-12.06l-1.53 1.3-5.1-6.03 1.53-1.28zm-10.2-12.05l-1.53 1.28-5.1-6.02 1.53-1.3zm-10.2-12.06l-1.53 1.3-5.1-6.03 1.53-1.28zM658.86 328l-1.53 1.28-5.1-6.02 1.53-1.3zm-10.2-12.06l-1.53 1.3-5.1-6.03 1.53-1.28zm-10.2-12.05l-1.53 1.28-5.1-6.02 1.53-1.3zm-10.2-12.06l-1.53 1.3-5.1-6.03 1.53-1.3zm-10.2-12.05l-1.53 1.28-5.1-6.02 1.53-1.3zm-30.6-36.16l-1.53 1.3-5.1-6.04 1.53-1.3zm-10.2-12.05l-1.53 1.28-5.1-6.03 1.53-1.3zm-10.2-12.06l-1.53 1.3-5.1-6.04 1.53-1.3zm-10.2-12.05l-1.53 1.28-5.1-6.03 1.53-1.3zm-10.2-12.07l-1.53 1.3-5.1-6.03 1.53-1.3zm-10.2-12.05l-1.53 1.3-5.1-6.03 1.53-1.3zm-10.2-12.05l-1.53 1.3-5.1-6.03 1.53-1.3zm-10.2-12.05l-1.53 1.3-5.1-6.03 1.53-1.3zm-10.2-12.05l-1.53 1.3-5.1-6.03 1.53-1.3zm-10.2-12.05l-1.53 1.3-5.1-6.03 1.53-1.3zm-10.2-12.05l-1.53 1.3-2.55-3.02 1.53-1.28z" stroke="#5e5e5e" stroke-width=".05" fill="#5e5e5e"/><path d="M482.93 120.14l-1.47 1.24.04-1.36v-.43l-.05-1.2z" fill="#5e5e5e"/><path d="M482.96 120.14l-1.53 1.3.05-1.42v-.43l-.06-1.28zm-1.44-.55v.42l-.04 1.3 1.4-1.2-1.4-1.65z" stroke="#5e5e5e" stroke-width=".05" fill="#5e5e5e"/><path d="M716.4 397.53l-12.75-7.9 7.08-5.98z" fill="#5e5e5e"/><path d="M718.5 400l-16.54-10.24 9.17-7.77zm-13.15-10.5l8.97 5.56-4-9.76z" stroke="#5e5e5e" stroke-width=".05" fill="#5e5e5e"/><use xlink:href="#m" transform="matrix(1,0,0,1,540.8148148148148,249.33333333333334) translate(0.005000000000002558 14.222222222222223)"/><use xlink:href="#n" transform="matrix(1,0,0,1,540.8148148148148,249.33333333333334) translate(25.68401234567902 14.222222222222223)"/><use xlink:href="#o" transform="matrix(1,0,0,1,540.8148148148148,249.33333333333334) translate(97.63462962962964 14.222222222222223)"/><path d="M717.58 398.92l-.16 2-3.88-.3.16-2zm-11.65-.93l-.16 1.98-7.77-.62.16-2zm-15.54-1.26l-.17 2-7.77-.63.16-1.98zm-15.55-1.24l-.16 2-7.78-.63.16-2zm-15.54-1.25l-.15 2-2.43-.2v-2zm-116.02-9.3v2l-.68-.05.16-2zm-8.3-.66l-.15 1.98-7.77-.62.16-2zm-15.53-1.26l-.16 2-7.78-.63.16-1.98zm-15.54-1.25l-.15 2-3.9-.32.17-2z" stroke="#5e5e5e" stroke-width=".05" fill="#5e5e5e"/><path d="M498.58 387.02l-13.85-5.76 14.6-3.48z" fill="#5e5e5e"/><path d="M499.46 388.47L481.5 381l18.92-4.5zm-11.5-6.95l9.73 4.05.5-6.5z" stroke="#5e5e5e" stroke-width=".05" fill="#5e5e5e"/><path d="M718.53 399l-.03.98v.43l.02.6-1.12-.08.16-2z" fill="#5e5e5e"/><path d="M718.56 398.98l-.03 1v.43l.02.63-1.18-.1.16-2.04zm-1.13 1.9l1.07.1-.02-.57V400l.02-.96-.92-.07z" stroke="#5e5e5e" stroke-width=".05" fill="#5e5e5e"/><use xlink:href="#m" transform="matrix(1,0,0,1,543.283950617284,379.8333333333333) translate(0.005000000000002558 14.222222222222223)"/><use xlink:href="#p" transform="matrix(1,0,0,1,543.283950617284,379.8333333333333) translate(25.68401234567902 14.222222222222223)"/><use xlink:href="#o" transform="matrix(1,0,0,1,543.283950617284,379.8333333333333) translate(92.69635802469136 14.222222222222223)"/><path d="M880 860c0 33.14-35.82 60-80 60s-80-26.86-80-60 35.82-60 80-60 80 26.86 80 60z" stroke="#5e5e5e" stroke-width="3" fill="#fff"/><use xlink:href="#q" transform="matrix(1,0,0,1,720,800) translate(45.029999999999994 51.9)"/><use xlink:href="#r" transform="matrix(1,0,0,1,720,800) translate(24.12999999999999 73.5)"/><path d="M719.5 865.6l-1.8.9-1.74-3.56 1.8-.88zm-5.22-10.64l-1.8.88-3.46-7.1 1.8-.87zm-6.93-14.2l-1.8.9-3.47-7.1 1.8-.9zm-6.94-14.2l-1.8.9-3.46-7.1 1.8-.88zm-6.93-14.18l-1.8.88-3.47-7.1 1.8-.88zm-6.94-14.2l-1.8.88-3.47-7.1 1.8-.87zm-6.94-14.2l-1.8.9-3.47-7.1 1.8-.9zm-6.95-14.2l-1.8.9-3.46-7.1 1.8-.88zm-6.93-14.18l-1.8.88-3.47-7.1 1.8-.88zm-6.94-14.2l-1.8.88-3.47-7.1 1.8-.87zm-6.94-14.2l-1.8.9-3.47-7.1 1.8-.9zm-6.94-14.18l-1.8.87-3.47-7.1 1.8-.88zm-6.94-14.2l-1.8.88-3.46-7.1 1.8-.88zm-6.94-14.2l-1.8.88-3.46-7.1 1.8-.87zm-6.93-14.2l-1.8.9-3.48-7.1 1.8-.9zm-6.95-14.18l-1.8.88-3.47-7.1 1.8-.88zm-6.94-14.2l-1.8.88-3.46-7.1 1.8-.88zm-14.04-28.73h-2.22l-2.87-5.87 1.8-.88zm-6.76-13.84l-1.8.88-3.47-7.1 1.8-.88zm-6.94-14.2l-1.8.88-3.47-7.1 1.8-.87zm-6.94-14.2l-1.8.9-3.47-7.1 1.8-.9zm-6.94-14.2l-1.8.9-3.47-7.1 1.8-.88zm-6.94-14.18l-1.8.88-3.47-7.1 1.8-.88zm-6.94-14.2l-1.8.88-3.46-7.1 1.8-.87zm-6.94-14.2l-1.8.9-3.46-7.1 1.8-.9zm-6.93-14.18l-1.8.87-3.47-7.1 1.8-.87zm-6.94-14.2l-1.8.88-3.48-7.1 1.8-.88zm-6.95-14.2l-1.8.88-3.47-7.1 1.8-.87zM520 457.5l-1.78.9-3.48-7.1 1.8-.9zm-6.93-14.18l-1.8.87-3.46-7.1 1.8-.88zm-6.94-14.2l-1.8.88-3.46-7.1 1.8-.88zm-6.93-14.2l-1.8.88-3.47-7.1 1.8-.87zm-6.94-14.2l-1.8.9-1.73-3.56 1.8-.88z" stroke="#5e5e5e" stroke-width=".05" fill="#5e5e5e"/><path d="M493.35 394.7l-8.33 4.06-2.1-14.85z" fill="#5e5e5e"/><path d="M495.03 394.98l-10.8 5.28L481.5 381zm-9.2 2.28l5.85-2.87-7.34-7.58z" stroke="#5e5e5e" stroke-width=".05" fill="#5e5e5e"/><path d="M718.92 866.27l.48 2.93.2.8-.15.08-1.77-3.62 1.2-.58z" fill="#5e5e5e"/><path d="M718.94 866.27l.5 2.92.18.82-.18.1-1.8-3.67 1.26-.6zm-1.23.2l1.76 3.58.1-.05-.18-.8-.5-2.92-.02-.36z" stroke="#5e5e5e" stroke-width=".05" fill="#5e5e5e"/><use xlink:href="#m" transform="matrix(1,0,0,1,543.5485385957394,613.3065698592083) translate(0.005000000000002558 14.222222222222223)"/><use xlink:href="#p" transform="matrix(1,0,0,1,543.5485385957394,613.3065698592083) translate(25.68401234567902 14.222222222222223)"/><use xlink:href="#o" transform="matrix(1,0,0,1,543.5485385957394,613.3065698592083) translate(92.69635802469136 14.222222222222223)"/><path d="M1340 629.42c0 55.23-49.25 100-110 100s-110-44.77-110-100 49.25-100 110-100 110 44.77 110 100zm-220 0h220" stroke="#5e5e5e" stroke-width="3" fill="#fff"/><use xlink:href="#s" transform="matrix(1,0,0,1,1153,549.4173228346456) translate(19.599999999999994 43.6)"/><use xlink:href="#t" transform="matrix(1,0,0,1,1153,549.4173228346456) translate(86.55 43.6)"/><use xlink:href="#u" transform="matrix(1,0,0,1,1153,653.4173228346456) translate(54.574999999999996 14.4)"/><use xlink:href="#v" transform="matrix(1,0,0,1,1153,653.4173228346456) translate(45.099999999999994 36)"/><use xlink:href="#w" transform="matrix(1,0,0,1,1153,653.4173228346456) translate(35.599999999999994 57.6)"/><use xlink:href="#x" transform="matrix(1,0,0,1,1153,653.4173228346456) translate(77 79.20000000000002)"/><use xlink:href="#y" transform="matrix(1,0,0,1,1120,629.4173228346456) translate(30.57499999999999 15.6)"/><use xlink:href="#z" transform="matrix(1,0,0,1,1120,629.4173228346456) translate(90.425 15.6)"/><path d="M898.4 844.96l-2.94 2.86-1.4-1.44 2.94-2.85zm11.73-11.42l-5.87 5.7-1.4-1.42 5.88-5.7zm11.74-11.42l-5.87 5.7-1.4-1.42 5.87-5.7zm11.74-11.42l-5.86 5.7-1.4-1.42 5.87-5.7zm11.75-11.42l-5.87 5.7-1.4-1.42 5.87-5.7zm11.73-11.42l-5.87 5.7-1.38-1.42 5.87-5.72zm11.74-11.42l-5.87 5.7-1.4-1.42 5.88-5.72zm11.74-11.42l-5.87 5.7-1.4-1.43 5.86-5.7zm5.87-5.7l-1.4-1.45 2.57-2.5h2.87zm29.34-28.56l-3.37 3.28h-2.87l4.85-4.72zm11.74-11.42l-5.86 5.7-1.4-1.43 5.88-5.7zm11.75-11.42l-5.87 5.7-1.4-1.43 5.87-5.72zM1051 696.5l-5.88 5.7-1.4-1.43 5.87-5.7zm11.72-11.42l-5.86 5.7-1.4-1.43 5.87-5.7zm11.74-11.42l-5.87 5.7-1.4-1.43 5.87-5.7zm11.74-11.42l-5.87 5.7-1.4-1.43 5.88-5.7zm11.74-11.42l-5.87 5.7-1.4-1.43 5.87-5.72zm11.74-11.42l-5.87 5.7-1.4-1.43 5.88-5.7zm8.8-8.57l-2.93 2.86-1.4-1.45 2.94-2.85z" stroke="#5e5e5e" stroke-width=".05" fill="#5e5e5e"/><path d="M897.28 851.12l-13.46 6.62 7-13.27z" fill="#5e5e5e"/><path d="M898.95 851.4L881.5 860l9.07-17.2zm-12.8 4.1l9.45-4.67-4.55-4.67z" stroke="#5e5e5e" stroke-width=".05" fill="#5e5e5e"/><path d="M1118.5 629.4l.02 1.4-1.45-1.38 1.46-1.43z" fill="#5e5e5e"/><path d="M1118.53 629.4v1.46l-1.5-1.44 1.53-1.5zm-1.43.02l1.4 1.32-.03-1.33.04-1.35z" stroke="#5e5e5e" stroke-width=".05" fill="#5e5e5e"/><use xlink:href="#m" transform="matrix(1,0,0,1,940.8147612060914,734.0419947506562) translate(0.005000000000002558 14.222222222222223)"/><use xlink:href="#n" transform="matrix(1,0,0,1,940.8147612060914,734.0419947506562) translate(25.68401234567902 14.222222222222223)"/><use xlink:href="#o" transform="matrix(1,0,0,1,940.8147612060914,734.0419947506562) translate(97.63462962962964 14.222222222222223)"/><path d="M1340 1160c0 55.23-49.25 100-110 100s-110-44.77-110-100 49.25-100 110-100 110 44.77 110 100zm-220 0h220" stroke="#5e5e5e" stroke-width="3" fill="#fff"/><use xlink:href="#A" transform="matrix(1,0,0,1,1153,1080) translate(46.025 32.8)"/><use xlink:href="#B" transform="matrix(1,0,0,1,1153,1080) translate(20.599999999999994 54.4)"/><use xlink:href="#C" transform="matrix(1,0,0,1,1153,1184) translate(61.55 14.4)"/><use xlink:href="#w" transform="matrix(1,0,0,1,1153,1184) translate(35.599999999999994 36)"/><use xlink:href="#x" transform="matrix(1,0,0,1,1153,1184) translate(77 57.6)"/><use xlink:href="#y" transform="matrix(1,0,0,1,1120,1160) translate(30.57499999999999 15.6)"/><use xlink:href="#z" transform="matrix(1,0,0,1,1120,1160) translate(90.425 15.6)"/><path d="M1340 894.7c0 55.24-49.25 100-110 100s-110-44.76-110-100c0-55.22 49.25-100 110-100s110 44.78 110 100zm-220 0h220" stroke="#5e5e5e" stroke-width="3" fill="#fff"/><use xlink:href="#s" transform="matrix(1,0,0,1,1153,814.7086614173228) translate(0.625 43.6)"/><use xlink:href="#D" transform="matrix(1,0,0,1,1153,814.7086614173228) translate(67.575 43.6)"/><use xlink:href="#E" transform="matrix(1,0,0,1,1153,918.7086614173228) translate(27.64999999999999 14.4)"/><use xlink:href="#F" transform="matrix(1,0,0,1,1153,918.7086614173228) translate(96.45 14.4)"/><use xlink:href="#w" transform="matrix(1,0,0,1,1153,918.7086614173228) translate(35.599999999999994 36)"/><use xlink:href="#x" transform="matrix(1,0,0,1,1153,918.7086614173228) translate(77 57.6)"/><g><use xlink:href="#y" transform="matrix(1,0,0,1,1120,894.7086614173228) translate(30.57499999999999 15.6)"/><use xlink:href="#z" transform="matrix(1,0,0,1,1120,894.7086614173228) translate(90.425 15.6)"/></g><path d="M1117.65 893.57l-.28 1.98-3.9-.57.3-1.98zm-11.66-1.7l-.3 1.98-7.77-1.14.3-1.97zm-15.56-2.28l-.3 1.97-7.76-1.14.3-1.98zm-15.55-2.3l-.3 2-7.77-1.15.3-1.98zm-15.56-2.27l-.15 1.07-.02-1.1zm-124.4-18.2l-.3 1.96-7.76-1.14.28-1.98zm-15.55-2.3l-.3 2-7.78-1.15.3-1.98zm-15.56-2.27l-.3 1.98-3.88-.57.3-1.98z" stroke="#5e5e5e" stroke-width=".05" fill="#5e5e5e"/><path d="M898.15 867.12l-13.45-6.65 14.8-2.52z" fill="#5e5e5e"/><path d="M898.94 868.63L881.5 860l19.18-3.27zm-11.04-7.7l9.46 4.7.94-6.46z" stroke="#5e5e5e" stroke-width=".05" fill="#5e5e5e"/><path d="M1118.52 893.7l-.02 1v1.02l-1.16-.17.3-1.98z" fill="#5e5e5e"/><path d="M1118.55 893.68l-.02 1.02v1.05l-1.22-.18.3-2.03zm-1.18 1.85l1.12.16-.03-1 .03-.98-.85-.12z" stroke="#5e5e5e" stroke-width=".05" fill="#5e5e5e"/><g><use xlink:href="#m" transform="matrix(1,0,0,1,940.8147612060914,866.6876640419947) translate(0.005000000000002558 14.222222222222223)"/><use xlink:href="#n" transform="matrix(1,0,0,1,940.8147612060914,866.6876640419947) translate(25.68401234567902 14.222222222222223)"/><use xlink:href="#o" transform="matrix(1,0,0,1,940.8147612060914,866.6876640419947) translate(97.63462962962964 14.222222222222223)"/></g><path d="M1118.66 1158.6l-1.57 1.24-2.45-3.1 1.57-1.24zm-7.33-9.3l-1.57 1.25-4.9-6.2 1.58-1.23zm-9.78-12.37l-1.57 1.24-4.9-6.2 1.58-1.23zm-9.78-12.37l-1.57 1.24-4.9-6.2 1.58-1.23zm-9.78-12.38l-1.58 1.24-4.88-6.2 1.57-1.23zm-9.78-12.38l-1.57 1.24-4.9-6.2 1.58-1.23zm-9.78-12.38l-1.57 1.24-4.9-6.2 1.58-1.23zm-9.78-12.38l-1.57 1.24-4.9-6.2 1.57-1.23zm-9.78-12.38l-1.57 1.24-4.88-6.18 1.57-1.24zm-9.78-12.37l-1.57 1.23-4.9-6.2 1.58-1.23zm-9.78-12.4l-1.57 1.25-4.9-6.2 1.58-1.23zm-9.78-12.37l-1.57 1.24-4.82-6.1h2.55zm-20.7-26.2h-2.54l-2.77-3.5 1.57-1.25zm-8.63-10.93l-1.56 1.24-4.9-6.2 1.58-1.23zm-9.77-12.38l-1.57 1.24-4.9-6.2 1.58-1.23zm-9.78-12.38l-1.57 1.24-4.9-6.2 1.58-1.23zm-9.78-12.38l-1.57 1.24-4.9-6.2 1.58-1.23zm-9.78-12.38l-1.58 1.24-4.9-6.2 1.58-1.23zm-9.8-12.38l-1.56 1.25-4.88-6.2 1.56-1.23zm-9.76-12.37l-1.57 1.24-4.9-6.2 1.57-1.23zm-9.78-12.38L914.2 903l-4.9-6.2 1.57-1.24zm-9.78-12.38l-1.57 1.24-4.88-6.18 1.57-1.24zM896.2 877l-1.57 1.23-2.45-3.1 1.57-1.23z" stroke="#5e5e5e" stroke-width=".05" fill="#5e5e5e"/><path d="M896 870.86l-7.3 5.75-5.2-14.06z" fill="#5e5e5e"/><path d="M897.7 870.8l-9.45 7.45L881.5 860zm-8.53 4.17l5.12-4.04-8.8-5.85z" stroke="#5e5e5e" stroke-width=".05" fill="#5e5e5e"/><path d="M1118.5 1160l.02 1.64-1.44-1.83 1.45-1.13z" fill="#5e5e5e"/><path d="M1118.53 1160l.02 1.7-1.5-1.9 1.5-1.18zm-1.4-.18l1.36 1.75-.03-1.58.03-1.28z" stroke="#5e5e5e" stroke-width=".05" fill="#5e5e5e"/><g><use xlink:href="#m" transform="matrix(1,0,0,1,940.8147612060912,999.3333333333334) translate(0.005000000000002558 14.222222222222223)"/><use xlink:href="#n" transform="matrix(1,0,0,1,940.8147612060912,999.3333333333334) translate(25.68401234567902 14.222222222222223)"/><use xlink:href="#o" transform="matrix(1,0,0,1,940.8147612060912,999.3333333333334) translate(97.63462962962964 14.222222222222223)"/></g><path d="M514.56 681c0 54.68-49.24 99-110 99-60.75 0-110-44.32-110-99s49.25-99 110-99 110 44.32 110 99zm-220 0h220" stroke="#5e5e5e" stroke-width="3" fill="#fff"/><g><use xlink:href="#g" transform="matrix(1,0,0,1,327.5641282091965,601.8) translate(39.625 43.6)"/><use xlink:href="#G" transform="matrix(1,0,0,1,327.5641282091965,601.8) translate(75.525 43.6)"/></g><g><use xlink:href="#H" transform="matrix(1,0,0,1,327.5641282091965,705) translate(29.099999999999994 15.799999999999999)"/><use xlink:href="#I" transform="matrix(1,0,0,1,327.5641282091965,705) translate(68.05 15.799999999999999)"/><use xlink:href="#H" transform="matrix(1,0,0,1,327.5641282091965,705) translate(1.5999999999999943 37.4)"/><use xlink:href="#J" transform="matrix(1,0,0,1,327.5641282091965,705) translate(40.55 37.4)"/></g><g><use xlink:href="#y" transform="matrix(1,0,0,1,294.5641282091965,681) translate(30.57499999999999 15.6)"/><use xlink:href="#z" transform="matrix(1,0,0,1,294.5641282091965,681) translate(90.425 15.6)"/></g><path d="M292.06 681H121" stroke="#5e5e5e" stroke-width="2" fill="none"/><path d="M293.06 681l.02 1h-1.04v-2h1.05zM121.03 682H120v-1.25h-3V680h4.03zM401 579.6h-2v-4.23h2zm0-12.7h-2v-8.47h2zm0-16.94h-2v-8.48h2zm0-16.95h-2v-8.46h2zm0-33.88h-2v-8.47h2zm0-16.94h-2v-8.47h2zm0-16.94h-2V461h2z" stroke="#5e5e5e" stroke-width=".05" fill="#5e5e5e"/><path d="M404.63 460h-9.26l4.63-14.26z" fill="#5e5e5e"/><path d="M406 461h-12l6-18.5zm-9.26-2h6.52L400 448.97z" stroke="#5e5e5e" stroke-width=".05" fill="#5e5e5e"/><path d="M401 580.56l-2 .1v-1.08h2z" fill="#5e5e5e"/><path d="M401.02 580.58l-2.04.1v-1.13h2.04zm-2-.98v1.03l1.96-.1v-.92z" stroke="#5e5e5e" stroke-width=".05" fill="#5e5e5e"/><g><use xlink:href="#m" transform="matrix(1,0,0,1,343.28395061728395,500.8863232327589) translate(0.005000000000002558 14.222222222222223)"/><use xlink:href="#p" transform="matrix(1,0,0,1,343.28395061728395,500.8863232327589) translate(25.68401234567902 14.222222222222223)"/><use xlink:href="#o" transform="matrix(1,0,0,1,343.28395061728395,500.8863232327589) translate(92.69635802469136 14.222222222222223)"/></g><defs><path fill="#333" d="M240 0l2-218c-23 76-54 145-80 218h-23L58-218 59 0H30v-248h44l77 211c21-75 51-140 76-211h43V0h-30" id="K"/><path fill="#333" d="M179-190L93 31C79 59 56 82 12 73V49c39 6 53-20 64-50L1-190h34L92-34l54-156h33" id="L"/><path fill="#333" d="M160-131c35 5 61 23 61 61C221 17 115-2 30 0v-248c76 3 177-17 177 60 0 33-19 50-47 57zm-97-11c50-1 110 9 110-42 0-47-63-36-110-37v79zm0 115c55-2 124 14 124-45 0-56-70-42-124-44v89" id="M"/><path fill="#333" d="M24 0v-261h32V0H24" id="N"/><path fill="#333" d="M100-194c62-1 85 37 85 99 1 63-27 99-86 99S16-35 15-95c0-66 28-99 85-99zM99-20c44 1 53-31 53-75 0-43-8-75-51-75s-53 32-53 75 10 74 51 75" id="O"/><path fill="#333" d="M177-190C167-65 218 103 67 71c-23-6-38-20-44-43l32-5c15 47 100 32 89-28v-30C133-14 115 1 83 1 29 1 15-40 15-95c0-56 16-97 71-98 29-1 48 16 59 35 1-10 0-23 2-32h30zM94-22c36 0 50-32 50-73 0-42-14-75-50-75-39 0-46 34-46 75s6 73 46 73" id="P"/><g id="a"><use transform="matrix(0.06172839506172839,0,0,0.06172839506172839,0,0)" xlink:href="#K"/><use transform="matrix(0.06172839506172839,0,0,0.06172839506172839,18.456790123456788,0)" xlink:href="#L"/><use transform="matrix(0.06172839506172839,0,0,0.06172839506172839,29.5679012345679,0)" xlink:href="#M"/><use transform="matrix(0.06172839506172839,0,0,0.06172839506172839,44.38271604938271,0)" xlink:href="#N"/><use transform="matrix(0.06172839506172839,0,0,0.06172839506172839,49.25925925925925,0)" xlink:href="#O"/><use transform="matrix(0.06172839506172839,0,0,0.06172839506172839,61.60493827160493,0)" xlink:href="#P"/></g><path fill="#333" d="M16-82v-28h88v28H16" id="Q"/><use transform="matrix(0.06172839506172839,0,0,0.06172839506172839,0,0)" xlink:href="#Q" id="b"/><path fill="#333" d="M205 0l-28-72H64L36 0H1l101-248h38L239 0h-34zm-38-99l-47-123c-12 45-31 82-46 123h93" id="R"/><path fill="#333" d="M85-194c31 0 48 13 60 33l-1-100h32l1 261h-30c-2-10 0-23-3-31C134-8 116 4 85 4 32 4 16-35 15-94c0-66 23-100 70-100zm9 24c-40 0-46 34-46 75 0 40 6 74 45 74 42 0 51-32 51-76 0-42-9-74-50-73" id="S"/><path fill="#333" d="M210-169c-67 3-38 105-44 169h-31v-121c0-29-5-50-35-48C34-165 62-65 56 0H25l-1-190h30c1 10-1 24 2 32 10-44 99-50 107 0 11-21 27-35 58-36 85-2 47 119 55 194h-31v-121c0-29-5-49-35-48" id="T"/><path fill="#333" d="M24-231v-30h32v30H24zM24 0v-190h32V0H24" id="U"/><path fill="#333" d="M117-194c89-4 53 116 60 194h-32v-121c0-31-8-49-39-48C34-167 62-67 57 0H25l-1-190h30c1 10-1 24 2 32 11-22 29-35 61-36" id="V"/><g id="c"><use transform="matrix(0.06172839506172839,0,0,0.06172839506172839,0,0)" xlink:href="#R"/><use transform="matrix(0.06172839506172839,0,0,0.06172839506172839,14.814814814814813,0)" xlink:href="#S"/><use transform="matrix(0.06172839506172839,0,0,0.06172839506172839,27.160493827160494,0)" xlink:href="#T"/><use transform="matrix(0.06172839506172839,0,0,0.06172839506172839,45.61728395061728,0)" xlink:href="#U"/><use transform="matrix(0.06172839506172839,0,0,0.06172839506172839,50.49382716049382,0)" xlink:href="#V"/></g><path fill="#333" d="M135-143c-3-34-86-38-87 0 15 53 115 12 119 90S17 21 10-45l28-5c4 36 97 45 98 0-10-56-113-15-118-90-4-57 82-63 122-42 12 7 21 19 24 35" id="W"/><path fill="#333" d="M59-47c-2 24 18 29 38 22v24C64 9 27 4 27-40v-127H5v-23h24l9-43h21v43h35v23H59v120" id="X"/><path fill="#333" d="M114-163C36-179 61-72 57 0H25l-1-190h30c1 12-1 29 2 39 6-27 23-49 58-41v29" id="Y"/><path fill="#333" d="M141-36C126-15 110 5 73 4 37 3 15-17 15-53c-1-64 63-63 125-63 3-35-9-54-41-54-24 1-41 7-42 31l-33-3c5-37 33-52 76-52 45 0 72 20 72 64v82c-1 20 7 32 28 27v20c-31 9-61-2-59-35zM48-53c0 20 12 33 32 33 41-3 63-29 60-74-43 2-92-5-92 41" id="Z"/><path fill="#333" d="M100-194c63 0 86 42 84 106H49c0 40 14 67 53 68 26 1 43-12 49-29l28 8c-11 28-37 45-77 45C44 4 14-33 15-96c1-61 26-98 85-98zm52 81c6-60-76-77-97-28-3 7-6 17-6 28h103" id="aa"/><path fill="#333" d="M84 4C-5 8 30-112 23-190h32v120c0 31 7 50 39 49 72-2 45-101 50-169h31l1 190h-30c-1-10 1-25-2-33-11 22-28 36-60 37" id="ab"/><g id="d"><use transform="matrix(0.06172839506172839,0,0,0.06172839506172839,0,0)" xlink:href="#R"/><use transform="matrix(0.06172839506172839,0,0,0.06172839506172839,14.814814814814813,0)" xlink:href="#S"/><use transform="matrix(0.06172839506172839,0,0,0.06172839506172839,27.160493827160494,0)" xlink:href="#T"/><use transform="matrix(0.06172839506172839,0,0,0.06172839506172839,45.61728395061728,0)" xlink:href="#U"/><use transform="matrix(0.06172839506172839,0,0,0.06172839506172839,50.49382716049382,0)" xlink:href="#V"/><use transform="matrix(0.06172839506172839,0,0,0.06172839506172839,62.8395061728395,0)" xlink:href="#U"/><use transform="matrix(0.06172839506172839,0,0,0.06172839506172839,67.71604938271604,0)" xlink:href="#W"/><use transform="matrix(0.06172839506172839,0,0,0.06172839506172839,78.82716049382715,0)" xlink:href="#X"/><use transform="matrix(0.06172839506172839,0,0,0.06172839506172839,84.99999999999999,0)" xlink:href="#Y"/><use transform="matrix(0.06172839506172839,0,0,0.06172839506172839,92.34567901234567,0)" xlink:href="#Z"/><use transform="matrix(0.06172839506172839,0,0,0.06172839506172839,104.69135802469135,0)" xlink:href="#X"/><use transform="matrix(0.06172839506172839,0,0,0.06172839506172839,110.86419753086419,0)" xlink:href="#aa"/><use transform="matrix(0.06172839506172839,0,0,0.06172839506172839,123.20987654320987,0)" xlink:href="#ab"/><use transform="matrix(0.06172839506172839,0,0,0.06172839506172839,135.55555555555554,0)" xlink:href="#Y"/></g><path d="M185-189c-5-48-123-54-124 2 14 75 158 14 163 119 3 78-121 87-175 55-17-10-28-26-33-46l33-7c5 56 141 63 141-1 0-78-155-14-162-118-5-82 145-84 179-34 5 7 8 16 11 25" id="ac"/><path d="M100-194c63 0 86 42 84 106H49c0 40 14 67 53 68 26 1 43-12 49-29l28 8c-11 28-37 45-77 45C44 4 14-33 15-96c1-61 26-98 85-98zm52 81c6-60-76-77-97-28-3 7-6 17-6 28h103" id="ad"/><g id="e"><use transform="matrix(0.05,0,0,0.05,0,0)" xlink:href="#ac"/><use transform="matrix(0.05,0,0,0.05,12,0)" xlink:href="#ad"/></g><path d="M96-169c-40 0-48 33-48 73s9 75 48 75c24 0 41-14 43-38l32 2c-6 37-31 61-74 61-59 0-76-41-82-99-10-93 101-131 147-64 4 7 5 14 7 22l-32 3c-4-21-16-35-41-35" id="ae"/><path d="M100-194c62-1 85 37 85 99 1 63-27 99-86 99S16-35 15-95c0-66 28-99 85-99zM99-20c44 1 53-31 53-75 0-43-8-75-51-75s-53 32-53 75 10 74 51 75" id="af"/><path d="M117-194c89-4 53 116 60 194h-32v-121c0-31-8-49-39-48C34-167 62-67 57 0H25l-1-190h30c1 10-1 24 2 32 11-22 29-35 61-36" id="ag"/><path d="M59-47c-2 24 18 29 38 22v24C64 9 27 4 27-40v-127H5v-23h24l9-43h21v43h35v23H59v120" id="ah"/><path d="M114-163C36-179 61-72 57 0H25l-1-190h30c1 12-1 29 2 39 6-27 23-49 58-41v29" id="ai"/><g id="f"><use transform="matrix(0.05,0,0,0.05,0,0)" xlink:href="#ae"/><use transform="matrix(0.05,0,0,0.05,9,0)" xlink:href="#af"/><use transform="matrix(0.05,0,0,0.05,19,0)" xlink:href="#ag"/><use transform="matrix(0.05,0,0,0.05,29,0)" xlink:href="#ag"/><use transform="matrix(0.05,0,0,0.05,39,0)" xlink:href="#ad"/><use transform="matrix(0.05,0,0,0.05,49,0)" xlink:href="#ae"/><use transform="matrix(0.05,0,0,0.05,58,0)" xlink:href="#ah"/><use transform="matrix(0.05,0,0,0.05,63,0)" xlink:href="#ad"/><use transform="matrix(0.05,0,0,0.05,73,0)" xlink:href="#ai"/></g><path d="M137 0h-34L2-248h35l83 218 83-218h36" id="aj"/><path d="M24-231v-30h32v30H24zM24 0v-190h32V0H24" id="ak"/><g id="g"><use transform="matrix(0.05,0,0,0.05,0,0)" xlink:href="#aj"/><use transform="matrix(0.05,0,0,0.05,11,0)" xlink:href="#af"/><use transform="matrix(0.05,0,0,0.05,21,0)" xlink:href="#ak"/><use transform="matrix(0.05,0,0,0.05,24.95,0)" xlink:href="#ai"/></g><path d="M24 0v-261h32V0H24" id="al"/><path d="M135-143c-3-34-86-38-87 0 15 53 115 12 119 90S17 21 10-45l28-5c4 36 97 45 98 0-10-56-113-15-118-90-4-57 82-63 122-42 12 7 21 19 24 35" id="am"/><g id="h"><use transform="matrix(0.05,0,0,0.05,0,0)" xlink:href="#al"/><use transform="matrix(0.05,0,0,0.05,3.95,0)" xlink:href="#ad"/><use transform="matrix(0.05,0,0,0.05,13.949999999999998,0)" xlink:href="#am"/></g><path d="M141-36C126-15 110 5 73 4 37 3 15-17 15-53c-1-64 63-63 125-63 3-35-9-54-41-54-24 1-41 7-42 31l-33-3c5-37 33-52 76-52 45 0 72 20 72 64v82c-1 20 7 32 28 27v20c-31 9-61-2-59-35zM48-53c0 20 12 33 32 33 41-3 63-29 60-74-43 2-92-5-92 41" id="an"/><g id="i"><use transform="matrix(0.05,0,0,0.05,0,0)" xlink:href="#an"/><use transform="matrix(0.05,0,0,0.05,10,0)" xlink:href="#ai"/><use transform="matrix(0.05,0,0,0.05,15.949999999999998,0)" xlink:href="#ah"/><use transform="matrix(0.05,0,0,0.05,20.95,0)" xlink:href="#ak"/><use transform="matrix(0.05,0,0,0.05,24.9,0)" xlink:href="#ae"/><use transform="matrix(0.05,0,0,0.05,33.9,0)" xlink:href="#al"/><use transform="matrix(0.05,0,0,0.05,37.85,0)" xlink:href="#ad"/><use transform="matrix(0.05,0,0,0.05,47.85,0)" xlink:href="#am"/></g><path d="M30-248c87 1 191-15 191 75 0 78-77 80-158 76V0H30v-248zm33 125c57 0 124 11 124-50 0-59-68-47-124-48v98" id="ao"/><g id="j"><use transform="matrix(0.05,0,0,0.05,0,0)" xlink:href="#ao"/><use transform="matrix(0.05,0,0,0.05,12,0)" xlink:href="#af"/><use transform="matrix(0.05,0,0,0.05,22,0)" xlink:href="#am"/><use transform="matrix(0.05,0,0,0.05,31,0)" xlink:href="#ah"/><use transform="matrix(0.05,0,0,0.05,36,0)" xlink:href="#ad"/><use transform="matrix(0.05,0,0,0.05,46,0)" xlink:href="#ai"/></g><path d="M84 4C-5 8 30-112 23-190h32v120c0 31 7 50 39 49 72-2 45-101 50-169h31l1 190h-30c-1-10 1-25-2-33-11 22-28 36-60 37" id="ap"/><g id="k"><use transform="matrix(0.05,0,0,0.05,0,0)" xlink:href="#ap"/><use transform="matrix(0.05,0,0,0.05,10,0)" xlink:href="#ag"/></g><path d="M210-169c-67 3-38 105-44 169h-31v-121c0-29-5-50-35-48C34-165 62-65 56 0H25l-1-190h30c1 10-1 24 2 32 10-44 99-50 107 0 11-21 27-35 58-36 85-2 47 119 55 194h-31v-121c0-29-5-49-35-48" id="aq"/><g id="l"><use transform="matrix(0.05,0,0,0.05,0,0)" xlink:href="#ae"/><use transform="matrix(0.05,0,0,0.05,9,0)" xlink:href="#af"/><use transform="matrix(0.05,0,0,0.05,19,0)" xlink:href="#aq"/><use transform="matrix(0.05,0,0,0.05,33.95,0)" xlink:href="#aq"/><use transform="matrix(0.05,0,0,0.05,48.900000000000006,0)" xlink:href="#ad"/><use transform="matrix(0.05,0,0,0.05,58.900000000000006,0)" xlink:href="#ag"/><use transform="matrix(0.05,0,0,0.05,68.9,0)" xlink:href="#ah"/><use transform="matrix(0.05,0,0,0.05,73.9,0)" xlink:href="#an"/><use transform="matrix(0.05,0,0,0.05,83.9,0)" xlink:href="#ak"/><use transform="matrix(0.05,0,0,0.05,87.85000000000001,0)" xlink:href="#ai"/><use transform="matrix(0.05,0,0,0.05,93.80000000000001,0)" xlink:href="#ad"/></g><path fill="#333" d="M15-91v-56l181-69v40L49-119l147 57v40" id="ar"/><g id="m"><use transform="matrix(0.04938271604938272,0,0,0.04938271604938272,0,0)" xlink:href="#ar"/><use transform="matrix(0.04938271604938272,0,0,0.04938271604938272,10.370370370370372,0)" xlink:href="#ar"/></g><path fill="#333" d="M185-48c-13 30-37 53-82 52C43 2 14-33 14-96s30-98 90-98c62 0 83 45 84 108H66c0 31 8 55 39 56 18 0 30-7 34-22zm-45-69c5-46-57-63-70-21-2 6-4 13-4 21h74" id="as"/><path fill="#333" d="M144 0l-44-69L55 0H2l70-98-66-92h53l41 62 40-62h54l-67 91 71 99h-54" id="at"/><path fill="#333" d="M115-3C79 11 28 4 28-45v-112H4v-33h27l15-45h31v45h36v33H77v99c-1 23 16 31 38 25v30" id="au"/><path fill="#333" d="M135-194c87-1 58 113 63 194h-50c-7-57 23-157-34-157-59 0-34 97-39 157H25l-1-190h47c2 12-1 28 3 38 12-26 28-41 61-42" id="av"/><path fill="#333" d="M88-194c31-1 46 15 58 34l-1-101h50l1 261h-48c-2-10 0-23-3-31C134-8 116 4 84 4 32 4 16-41 15-95c0-56 19-97 73-99zm17 164c33 0 40-30 41-66 1-37-9-64-41-64s-38 30-39 65c0 43 13 65 39 65" id="aw"/><path fill="#333" d="M137-138c1-29-70-34-71-4 15 46 118 7 119 86 1 83-164 76-172 9l43-7c4 19 20 25 44 25 33 8 57-30 24-41C81-84 22-81 20-136c-2-80 154-74 161-7" id="ax"/><g id="n"><use transform="matrix(0.04938271604938272,0,0,0.04938271604938272,0,0)" xlink:href="#as"/><use transform="matrix(0.04938271604938272,0,0,0.04938271604938272,9.876543209876544,0)" xlink:href="#at"/><use transform="matrix(0.04938271604938272,0,0,0.04938271604938272,19.75308641975309,0)" xlink:href="#au"/><use transform="matrix(0.04938271604938272,0,0,0.04938271604938272,25.629629629629633,0)" xlink:href="#as"/><use transform="matrix(0.04938271604938272,0,0,0.04938271604938272,35.50617283950618,0)" xlink:href="#av"/><use transform="matrix(0.04938271604938272,0,0,0.04938271604938272,46.320987654320994,0)" xlink:href="#aw"/><use transform="matrix(0.04938271604938272,0,0,0.04938271604938272,57.135802469135804,0)" xlink:href="#ax"/></g><path fill="#333" d="M15-22v-40l146-57-146-57v-40l181 69v56" id="ay"/><g id="o"><use transform="matrix(0.04938271604938272,0,0,0.04938271604938272,0,0)" xlink:href="#ay"/><use transform="matrix(0.04938271604938272,0,0,0.04938271604938272,10.370370370370372,0)" xlink:href="#ay"/></g><path fill="#333" d="M25-224v-37h50v37H25zM25 0v-190h50V0H25" id="az"/><path fill="#333" d="M190-63c-7 42-38 67-86 67-59 0-84-38-90-98-12-110 154-137 174-36l-49 2c-2-19-15-32-35-32-30 0-35 28-38 64-6 74 65 87 74 30" id="aA"/><path fill="#333" d="M25 0v-261h50V0H25" id="aB"/><path fill="#333" d="M85 4C-2 5 27-109 22-190h50c7 57-23 150 33 157 60-5 35-97 40-157h50l1 190h-47c-2-12 1-28-3-38-12 25-28 42-61 42" id="aC"/><g id="p"><use transform="matrix(0.04938271604938272,0,0,0.04938271604938272,0,0)" xlink:href="#az"/><use transform="matrix(0.04938271604938272,0,0,0.04938271604938272,4.938271604938272,0)" xlink:href="#av"/><use transform="matrix(0.04938271604938272,0,0,0.04938271604938272,15.753086419753087,0)" xlink:href="#aA"/><use transform="matrix(0.04938271604938272,0,0,0.04938271604938272,25.629629629629633,0)" xlink:href="#aB"/><use transform="matrix(0.04938271604938272,0,0,0.04938271604938272,30.567901234567906,0)" xlink:href="#aC"/><use transform="matrix(0.04938271604938272,0,0,0.04938271604938272,41.38271604938272,0)" xlink:href="#aw"/><use transform="matrix(0.04938271604938272,0,0,0.04938271604938272,52.19753086419754,0)" xlink:href="#as"/></g><path d="M33 0v-248h34V0H33" id="aD"/><path d="M101-234c-31-9-42 10-38 44h38v23H63V0H32v-167H5v-23h27c-7-52 17-82 69-68v24" id="aE"/><g id="q"><use transform="matrix(0.05,0,0,0.05,0,0)" xlink:href="#aD"/><use transform="matrix(0.05,0,0,0.05,5,0)" xlink:href="#ag"/><use transform="matrix(0.05,0,0,0.05,15,0)" xlink:href="#ah"/><use transform="matrix(0.05,0,0,0.05,20,0)" xlink:href="#ad"/><use transform="matrix(0.05,0,0,0.05,30,0)" xlink:href="#ai"/><use transform="matrix(0.05,0,0,0.05,35.95,0)" xlink:href="#aE"/><use transform="matrix(0.05,0,0,0.05,40.95,0)" xlink:href="#an"/><use transform="matrix(0.05,0,0,0.05,50.95,0)" xlink:href="#ae"/><use transform="matrix(0.05,0,0,0.05,59.95,0)" xlink:href="#ad"/></g><path d="M85-194c31 0 48 13 60 33l-1-100h32l1 261h-30c-2-10 0-23-3-31C134-8 116 4 85 4 32 4 16-35 15-94c0-66 23-100 70-100zm9 24c-40 0-46 34-46 75 0 40 6 74 45 74 42 0 51-32 51-76 0-42-9-74-50-73" id="aF"/><g id="r"><use transform="matrix(0.05,0,0,0.05,0,0)" xlink:href="#an"/><use transform="matrix(0.05,0,0,0.05,10,0)" xlink:href="#aF"/><use transform="matrix(0.05,0,0,0.05,20,0)" xlink:href="#aq"/><use transform="matrix(0.05,0,0,0.05,34.95,0)" xlink:href="#ak"/><use transform="matrix(0.05,0,0,0.05,38.900000000000006,0)" xlink:href="#ag"/><use transform="matrix(0.05,0,0,0.05,48.900000000000006,0)" xlink:href="#ak"/><use transform="matrix(0.05,0,0,0.05,52.85,0)" xlink:href="#am"/><use transform="matrix(0.05,0,0,0.05,61.85,0)" xlink:href="#ah"/><use transform="matrix(0.05,0,0,0.05,66.85000000000001,0)" xlink:href="#ai"/><use transform="matrix(0.05,0,0,0.05,72.80000000000001,0)" xlink:href="#an"/><use transform="matrix(0.05,0,0,0.05,82.80000000000001,0)" xlink:href="#ah"/><use transform="matrix(0.05,0,0,0.05,87.80000000000001,0)" xlink:href="#ak"/><use transform="matrix(0.05,0,0,0.05,91.75000000000001,0)" xlink:href="#af"/><use transform="matrix(0.05,0,0,0.05,101.75000000000001,0)" xlink:href="#ag"/></g><path d="M143 4C61 4 22-44 18-125c-5-107 100-154 193-111 17 8 29 25 37 43l-32 9c-13-25-37-40-76-40-61 0-88 39-88 99 0 61 29 100 91 101 35 0 62-11 79-27v-45h-74v-28h105v86C228-13 192 4 143 4" id="aG"/><g id="s"><use transform="matrix(0.05,0,0,0.05,0,0)" xlink:href="#aG"/><use transform="matrix(0.05,0,0,0.05,14,0)" xlink:href="#ad"/><use transform="matrix(0.05,0,0,0.05,24,0)" xlink:href="#am"/><use transform="matrix(0.05,0,0,0.05,33,0)" xlink:href="#ah"/><use transform="matrix(0.05,0,0,0.05,38,0)" xlink:href="#ak"/><use transform="matrix(0.05,0,0,0.05,41.95,0)" xlink:href="#af"/><use transform="matrix(0.05,0,0,0.05,51.95,0)" xlink:href="#ag"/></g><g id="t"><use transform="matrix(0.05,0,0,0.05,0,0)" xlink:href="#an"/><use transform="matrix(0.05,0,0,0.05,10,0)" xlink:href="#ai"/><use transform="matrix(0.05,0,0,0.05,15.949999999999998,0)" xlink:href="#ah"/><use transform="matrix(0.05,0,0,0.05,20.95,0)" xlink:href="#ak"/><use transform="matrix(0.05,0,0,0.05,24.9,0)" xlink:href="#ae"/><use transform="matrix(0.05,0,0,0.05,33.9,0)" xlink:href="#al"/><use transform="matrix(0.05,0,0,0.05,37.85,0)" xlink:href="#ad"/></g><path d="M212-179c-10-28-35-45-73-45-59 0-87 40-87 99 0 60 29 101 89 101 43 0 62-24 78-52l27 14C228-24 195 4 139 4 59 4 22-46 18-125c-6-104 99-153 187-111 19 9 31 26 39 46" id="aH"/><g id="u"><use transform="matrix(0.05,0,0,0.05,0,0)" xlink:href="#aH"/><use transform="matrix(0.05,0,0,0.05,12.950000000000001,0)" xlink:href="#ai"/><use transform="matrix(0.05,0,0,0.05,18.900000000000002,0)" xlink:href="#ad"/><use transform="matrix(0.05,0,0,0.05,28.900000000000002,0)" xlink:href="#ad"/><use transform="matrix(0.05,0,0,0.05,38.900000000000006,0)" xlink:href="#ai"/></g><path d="M240 0l2-218c-23 76-54 145-80 218h-23L58-218 59 0H30v-248h44l77 211c21-75 51-140 76-211h43V0h-30" id="aI"/><g id="v"><use transform="matrix(0.05,0,0,0.05,0,0)" xlink:href="#aI"/><use transform="matrix(0.05,0,0,0.05,14.950000000000001,0)" xlink:href="#af"/><use transform="matrix(0.05,0,0,0.05,24.950000000000003,0)" xlink:href="#aF"/><use transform="matrix(0.05,0,0,0.05,34.95,0)" xlink:href="#ak"/><use transform="matrix(0.05,0,0,0.05,38.900000000000006,0)" xlink:href="#aE"/><use transform="matrix(0.05,0,0,0.05,43.900000000000006,0)" xlink:href="#ak"/><use transform="matrix(0.05,0,0,0.05,47.85000000000001,0)" xlink:href="#ad"/><use transform="matrix(0.05,0,0,0.05,57.85,0)" xlink:href="#ai"/></g><path d="M115-194c55 1 70 41 70 98S169 2 115 4C84 4 66-9 55-30l1 105H24l-1-265h31l2 30c10-21 28-34 59-34zm-8 174c40 0 45-34 45-75s-6-73-45-74c-42 0-51 32-51 76 0 43 10 73 51 73" id="aJ"/><g id="w"><use transform="matrix(0.05,0,0,0.05,0,0)" xlink:href="#ac"/><use transform="matrix(0.05,0,0,0.05,12,0)" xlink:href="#ap"/><use transform="matrix(0.05,0,0,0.05,22,0)" xlink:href="#aJ"/><use transform="matrix(0.05,0,0,0.05,32,0)" xlink:href="#aJ"/><use transform="matrix(0.05,0,0,0.05,42,0)" xlink:href="#ai"/><use transform="matrix(0.05,0,0,0.05,47.95,0)" xlink:href="#ak"/><use transform="matrix(0.05,0,0,0.05,51.900000000000006,0)" xlink:href="#aq"/><use transform="matrix(0.05,0,0,0.05,66.85000000000001,0)" xlink:href="#ad"/><use transform="matrix(0.05,0,0,0.05,76.85000000000001,0)" xlink:href="#ai"/></g><path d="M24-248c93 1 206-16 204 79-1 75-69 88-152 82V0H24v-248zm52 121c47 0 100 7 100-41 0-47-54-39-100-39v80" id="aK"/><path d="M110-194c64 0 96 36 96 99 0 64-35 99-97 99-61 0-95-36-95-99 0-62 34-99 96-99zm-1 164c35 0 45-28 45-65 0-40-10-65-43-65-34 0-45 26-45 65 0 36 10 65 43 65" id="aL"/><path d="M25-224v-37h50v37H25zM25 0v-190h50V0H25" id="aM"/><path d="M135-194c87-1 58 113 63 194h-50c-7-57 23-157-34-157-59 0-34 97-39 157H25l-1-190h47c2 12-1 28 3 38 12-26 28-41 61-42" id="aN"/><path d="M115-3C79 11 28 4 28-45v-112H4v-33h27l15-45h31v45h36v33H77v99c-1 23 16 31 38 25v30" id="aO"/><path d="M137-138c1-29-70-34-71-4 15 46 118 7 119 86 1 83-164 76-172 9l43-7c4 19 20 25 44 25 33 8 57-30 24-41C81-84 22-81 20-136c-2-80 154-74 161-7" id="aP"/><g id="y"><use transform="matrix(0.05,0,0,0.05,0,0)" xlink:href="#aK"/><use transform="matrix(0.05,0,0,0.05,12,0)" xlink:href="#aL"/><use transform="matrix(0.05,0,0,0.05,22.950000000000003,0)" xlink:href="#aM"/><use transform="matrix(0.05,0,0,0.05,27.950000000000003,0)" xlink:href="#aN"/><use transform="matrix(0.05,0,0,0.05,38.900000000000006,0)" xlink:href="#aO"/><use transform="matrix(0.05,0,0,0.05,44.85000000000001,0)" xlink:href="#aP"/></g><path d="M88-194c31-1 46 15 58 34l-1-101h50l1 261h-48c-2-10 0-23-3-31C134-8 116 4 84 4 32 4 16-41 15-95c0-56 19-97 73-99zm17 164c33 0 40-30 41-66 1-37-9-64-41-64s-38 30-39 65c0 43 13 65 39 65" id="aQ"/><path d="M62-158H24l-5-90h48" id="aR"/><path d="M185-48c-13 30-37 53-82 52C43 2 14-33 14-96s30-98 90-98c62 0 83 45 84 108H66c0 31 8 55 39 56 18 0 30-7 34-22zm-45-69c5-46-57-63-70-21-2 6-4 13-4 21h74" id="aS"/><path d="M144 0l-44-69L55 0H2l70-98-66-92h53l41 62 40-62h54l-67 91 71 99h-54" id="aT"/><g id="z"><use transform="matrix(0.05,0,0,0.05,0,0)" xlink:href="#aQ"/><use transform="matrix(0.05,0,0,0.05,10.950000000000001,0)" xlink:href="#aR"/><use transform="matrix(0.05,0,0,0.05,15.200000000000001,0)" xlink:href="#aS"/><use transform="matrix(0.05,0,0,0.05,25.200000000000003,0)" xlink:href="#aT"/><use transform="matrix(0.05,0,0,0.05,35.2,0)" xlink:href="#aO"/><use transform="matrix(0.05,0,0,0.05,41.150000000000006,0)" xlink:href="#aS"/><use transform="matrix(0.05,0,0,0.05,51.150000000000006,0)" xlink:href="#aN"/><use transform="matrix(0.05,0,0,0.05,62.1,0)" xlink:href="#aP"/><use transform="matrix(0.05,0,0,0.05,72.10000000000001,0)" xlink:href="#aM"/><use transform="matrix(0.05,0,0,0.05,77.10000000000001,0)" xlink:href="#aL"/><use transform="matrix(0.05,0,0,0.05,88.05000000000001,0)" xlink:href="#aN"/></g><g id="A"><use transform="matrix(0.05,0,0,0.05,0,0)" xlink:href="#aG"/><use transform="matrix(0.05,0,0,0.05,14,0)" xlink:href="#ad"/><use transform="matrix(0.05,0,0,0.05,24,0)" xlink:href="#am"/><use transform="matrix(0.05,0,0,0.05,33,0)" xlink:href="#ah"/><use transform="matrix(0.05,0,0,0.05,38,0)" xlink:href="#ak"/><use transform="matrix(0.05,0,0,0.05,41.95,0)" xlink:href="#af"/><use transform="matrix(0.05,0,0,0.05,51.95,0)" xlink:href="#ag"/></g><g id="B"><use transform="matrix(0.05,0,0,0.05,0,0)" xlink:href="#ae"/><use transform="matrix(0.05,0,0,0.05,9,0)" xlink:href="#af"/><use transform="matrix(0.05,0,0,0.05,19,0)" xlink:href="#aq"/><use transform="matrix(0.05,0,0,0.05,33.95,0)" xlink:href="#aq"/><use transform="matrix(0.05,0,0,0.05,48.900000000000006,0)" xlink:href="#ad"/><use transform="matrix(0.05,0,0,0.05,58.900000000000006,0)" xlink:href="#ag"/><use transform="matrix(0.05,0,0,0.05,68.9,0)" xlink:href="#ah"/><use transform="matrix(0.05,0,0,0.05,73.9,0)" xlink:href="#an"/><use transform="matrix(0.05,0,0,0.05,83.9,0)" xlink:href="#ak"/><use transform="matrix(0.05,0,0,0.05,87.85000000000001,0)" xlink:href="#ai"/><use transform="matrix(0.05,0,0,0.05,93.80000000000001,0)" xlink:href="#ad"/><use transform="matrix(0.05,0,0,0.05,103.80000000000001,0)" xlink:href="#am"/></g><g id="C"><use transform="matrix(0.05,0,0,0.05,0,0)" xlink:href="#aj"/><use transform="matrix(0.05,0,0,0.05,11,0)" xlink:href="#af"/><use transform="matrix(0.05,0,0,0.05,21,0)" xlink:href="#ak"/><use transform="matrix(0.05,0,0,0.05,24.95,0)" xlink:href="#ai"/></g><g id="D"><use transform="matrix(0.05,0,0,0.05,0,0)" xlink:href="#ap"/><use transform="matrix(0.05,0,0,0.05,10,0)" xlink:href="#ah"/><use transform="matrix(0.05,0,0,0.05,15,0)" xlink:href="#ak"/><use transform="matrix(0.05,0,0,0.05,18.95,0)" xlink:href="#al"/><use transform="matrix(0.05,0,0,0.05,22.9,0)" xlink:href="#ak"/><use transform="matrix(0.05,0,0,0.05,26.849999999999994,0)" xlink:href="#am"/><use transform="matrix(0.05,0,0,0.05,35.849999999999994,0)" xlink:href="#an"/><use transform="matrix(0.05,0,0,0.05,45.849999999999994,0)" xlink:href="#ah"/><use transform="matrix(0.05,0,0,0.05,50.849999999999994,0)" xlink:href="#ad"/><use transform="matrix(0.05,0,0,0.05,60.849999999999994,0)" xlink:href="#ap"/><use transform="matrix(0.05,0,0,0.05,70.85,0)" xlink:href="#ai"/><use transform="matrix(0.05,0,0,0.05,76.8,0)" xlink:href="#am"/></g><g id="E"><use transform="matrix(0.05,0,0,0.05,0,0)" xlink:href="#aI"/><use transform="matrix(0.05,0,0,0.05,14.950000000000001,0)" xlink:href="#af"/><use transform="matrix(0.05,0,0,0.05,24.950000000000003,0)" xlink:href="#aF"/><use transform="matrix(0.05,0,0,0.05,34.95,0)" xlink:href="#ak"/><use transform="matrix(0.05,0,0,0.05,38.900000000000006,0)" xlink:href="#aE"/><use transform="matrix(0.05,0,0,0.05,43.900000000000006,0)" xlink:href="#ak"/><use transform="matrix(0.05,0,0,0.05,47.85000000000001,0)" xlink:href="#ad"/><use transform="matrix(0.05,0,0,0.05,57.85,0)" xlink:href="#ai"/></g><g id="F"><use transform="matrix(0.05,0,0,0.05,0,0)" xlink:href="#ai"/><use transform="matrix(0.05,0,0,0.05,5.95,0)" xlink:href="#af"/><use transform="matrix(0.05,0,0,0.05,15.949999999999998,0)" xlink:href="#al"/><use transform="matrix(0.05,0,0,0.05,19.9,0)" xlink:href="#ad"/></g><g id="G"><use transform="matrix(0.05,0,0,0.05,0,0)" xlink:href="#aJ"/><use transform="matrix(0.05,0,0,0.05,10,0)" xlink:href="#ai"/><use transform="matrix(0.05,0,0,0.05,15.949999999999998,0)" xlink:href="#af"/><use transform="matrix(0.05,0,0,0.05,25.950000000000003,0)" xlink:href="#aE"/><use transform="matrix(0.05,0,0,0.05,30.950000000000003,0)" xlink:href="#ak"/><use transform="matrix(0.05,0,0,0.05,34.9,0)" xlink:href="#al"/></g><g id="H"><use transform="matrix(0.05,0,0,0.05,0,0)" xlink:href="#aI"/><use transform="matrix(0.05,0,0,0.05,14.950000000000001,0)" xlink:href="#ad"/><use transform="matrix(0.05,0,0,0.05,24.950000000000003,0)" xlink:href="#am"/></g><g id="I"><use transform="matrix(0.05,0,0,0.05,0,0)" xlink:href="#an"/><use transform="matrix(0.05,0,0,0.05,10,0)" xlink:href="#ai"/><use transform="matrix(0.05,0,0,0.05,15.949999999999998,0)" xlink:href="#ah"/><use transform="matrix(0.05,0,0,0.05,20.95,0)" xlink:href="#ak"/><use transform="matrix(0.05,0,0,0.05,24.9,0)" xlink:href="#ae"/><use transform="matrix(0.05,0,0,0.05,33.9,0)" xlink:href="#al"/><use transform="matrix(0.05,0,0,0.05,37.85,0)" xlink:href="#ad"/><use transform="matrix(0.05,0,0,0.05,47.85,0)" xlink:href="#am"/></g><g id="J"><use transform="matrix(0.05,0,0,0.05,0,0)" xlink:href="#ae"/><use transform="matrix(0.05,0,0,0.05,9,0)" xlink:href="#af"/><use transform="matrix(0.05,0,0,0.05,19,0)" xlink:href="#aq"/><use transform="matrix(0.05,0,0,0.05,33.95,0)" xlink:href="#aq"/><use transform="matrix(0.05,0,0,0.05,48.900000000000006,0)" xlink:href="#ad"/><use transform="matrix(0.05,0,0,0.05,58.900000000000006,0)" xlink:href="#ag"/><use transform="matrix(0.05,0,0,0.05,68.9,0)" xlink:href="#ah"/><use transform="matrix(0.05,0,0,0.05,73.9,0)" xlink:href="#an"/><use transform="matrix(0.05,0,0,0.05,83.9,0)" xlink:href="#ak"/><use transform="matrix(0.05,0,0,0.05,87.85000000000001,0)" xlink:href="#ah"/><use transform="matrix(0.05,0,0,0.05,92.85000000000001,0)" xlink:href="#ad"/><use transform="matrix(0.05,0,0,0.05,102.85000000000001,0)" xlink:href="#am"/></g></defs></g></svg>