<svg xmlns="http://www.w3.org/2000/svg" xmlns:xlink="http://www.w3.org/1999/xlink" xmlns:lucid="lucid" width="1624.52" height="3680"><g transform="translate(4.518518518518519 -60)" lucid:page-tab-id="0_0"><path d="M0 0h1870.87v3840.5H0z" fill="#fff"/><path d="M200 86a6 6 0 0 1 6-6h1388a6 6 0 0 1 6 6v1108a6 6 0 0 1-6 6H206a6 6 0 0 1-6-6z" stroke="#5e5e5e" stroke-width="3" fill-opacity="0"/><use xlink:href="#a" transform="matrix(1,0,0,1,208,88) translate(621.783950617284 17.77777777777778)"/><use xlink:href="#b" transform="matrix(1,0,0,1,208,88) translate(701.9074074074074 17.77777777777778)"/><use xlink:href="#c" transform="matrix(1,0,0,1,208,88) translate(715.4259259259259 17.77777777777778)"/><path d="M200 1406a6 6 0 0 1 6-6h1388a6 6 0 0 1 6 6v1068a6 6 0 0 1-6 6H206a6 6 0 0 1-6-6z" stroke="#5e5e5e" stroke-width="3" fill-opacity="0"/><use xlink:href="#d" transform="matrix(1,0,0,1,208.0000000000001,1408) translate(581.6604938271605 17.77777777777778)"/><use xlink:href="#e" transform="matrix(1,0,0,1,208.0000000000001,1408) translate(661.783950617284 17.77777777777778)"/><use xlink:href="#f" transform="matrix(1,0,0,1,208.0000000000001,1408) translate(675.3024691358024 17.77777777777778)"/><use xlink:href="#g" transform="matrix(1,0,0,1,208.0000000000001,1408) translate(755.5493827160494 17.77777777777778)"/><path d="M200 2646a6 6 0 0 1 6-6h1388a6 6 0 0 1 6 6v1068a6 6 0 0 1-6 6H206a6 6 0 0 1-6-6z" stroke="#5e5e5e" stroke-width="3" fill-opacity="0"/><use xlink:href="#d" transform="matrix(1,0,0,1,208.0000000000001,2648) translate(613.7592592592592 17.77777777777778)"/><use xlink:href="#e" transform="matrix(1,0,0,1,208.0000000000001,2648) translate(693.8827160493827 17.77777777777778)"/><use xlink:href="#h" transform="matrix(1,0,0,1,208.0000000000001,2648) translate(707.4012345679012 17.77777777777778)"/><path d="M99.75 561.75c0 10.9-8.84 19.75-19.75 19.75-10.9 0-19.75-8.84-19.75-19.75C60.25 550.85 69.1 542 80 542c10.9 0 19.75 8.84 19.75 19.75z" stroke="#5e5e5e" stroke-width="3" fill="#fff"/><path d="M80 581.5v49.3a20.7 20.7 0 0 0 3.2 11.07L120 700m-40-63.2L40 700m0-98.75h80" stroke="#5e5e5e" stroke-width="3" fill="none"/><path d="M40 548a6 6 0 0 1 6-6h68a6 6 0 0 1 6 6v168a6 6 0 0 1-6 6H46a6 6 0 0 1-6-6z" fill="none"/><use xlink:href="#i" transform="matrix(1,0,0,1,-40,700) translate(70.7716049382716 17.77777777777778)"/><path d="M610 760c0 33.14-35.82 60-80 60s-80-26.86-80-60 35.82-60 80-60 80 26.86 80 60z" stroke="#5e5e5e" stroke-width="3" fill="#fff"/><use xlink:href="#j" transform="matrix(1,0,0,1,450,700) translate(27.029999999999994 63.15)"/><use xlink:href="#k" transform="matrix(1,0,0,1,450,700) translate(54.029999999999994 63.15)"/><path d="M610 920c0 33.14-35.82 60-80 60s-80-26.86-80-60 35.82-60 80-60 80 26.86 80 60z" stroke="#5e5e5e" stroke-width="3" fill="#fff"/><use xlink:href="#l" transform="matrix(1,0,0,1,450,860) translate(14.104999999999999 63.15)"/><use xlink:href="#m" transform="matrix(1,0,0,1,450,860) translate(97.00500000000001 63.15)"/><path d="M610 600c0 33.14-35.82 60-80 60s-80-26.86-80-60 35.82-60 80-60 80 26.86 80 60z" stroke="#5e5e5e" stroke-width="3" fill="#fff"/><use xlink:href="#n" transform="matrix(1,0,0,1,450,540) translate(64.555 51.9)"/><use xlink:href="#o" transform="matrix(1,0,0,1,450,540) translate(23.60499999999999 73.5)"/><path d="M121 600h326.5" stroke="#5e5e5e" stroke-width="2" fill="none"/><path d="M121.03 601H120v-1.25h-3V599h4.03zM448.5 599.98v.43l.02.6h-1.05v-2h1.06z" stroke="#5e5e5e" stroke-width=".05" fill="#5e5e5e"/><path d="M120.6 599.2l257.3-334.03" stroke="#5e5e5e" stroke-width="2" fill="none"/><path d="M118.96 603l-.3-.25h.48zm2.46-3.2l-1.42 1.84v-1.9h-1.07l.9-1.16zM378.5 264.37v1.3l-1.42-1.1 1.46-1.88z" stroke="#5e5e5e" stroke-width=".05" fill="#5e5e5e"/><path d="M120.72 600.7l327.06 318.6" stroke="#5e5e5e" stroke-width="2" fill="none"/><path d="M121.43 600l-1.4 1.43-.03-.03v-1.65h-1.7l-1.15-1.13 1.4-1.43zM448.54 918.64l-.04 1.34v.43l.04 1.04-1.47-1.44 1.4-1.43z" stroke="#5e5e5e" stroke-width=".05" fill="#5e5e5e"/><path d="M120.9 600.44l326.7 159.12" stroke="#5e5e5e" stroke-width="2" fill="none"/><path d="M121.36 599.55l-.88 1.8-.48-.24v-1.35h-2.8l-.34-.16.88-1.8zM448.53 758.9l-.03 1.08v.43l.03.73-1.4-.68.9-1.8z" stroke="#5e5e5e" stroke-width=".05" fill="#5e5e5e"/><path d="M99.75 1871.17c0 10.9-8.84 19.75-19.75 19.75-10.9 0-19.75-8.85-19.75-19.75s8.84-19.75 19.75-19.75c10.9 0 19.75 8.84 19.75 19.75z" stroke="#5e5e5e" stroke-width="3" fill="#fff"/><path d="M80 1890.92v49.3a20.7 20.7 0 0 0 3.2 11.07l36.8 58.12m-40-63.2l-40 63.2m0-98.75h80" stroke="#5e5e5e" stroke-width="3" fill="none"/><path d="M40 1857.42a6 6 0 0 1 6-6h68a6 6 0 0 1 6 6v168a6 6 0 0 1-6 6H46a6 6 0 0 1-6-6z" fill="none"/><use xlink:href="#p" transform="matrix(1,0,0,1,-40,2009.4173228346456) translate(56.48148148148148 17.77777777777778)"/><use xlink:href="#g" transform="matrix(1,0,0,1,-40,2009.4173228346456) translate(136.7283950617284 17.77777777777778)"/><path d="M610 1080c0 33.14-35.82 60-80 60s-80-26.86-80-60 35.82-60 80-60 80 26.86 80 60z" stroke="#5e5e5e" stroke-width="3" fill="#fff"/><use xlink:href="#q" transform="matrix(1,0,0,1,450,1020) translate(17.12999999999999 63.15)"/><use xlink:href="#r" transform="matrix(1,0,0,1,450,1020) translate(117.93 63.15)"/><path d="M120.56 600.83l327.38 478.34" stroke="#5e5e5e" stroke-width="2" fill="none"/><path d="M121.4 600.28l-1.4.96v-1.5h-1.38l-1.14-1.65 1.65-1.14zM448.5 1079.98v.43l.06 1.46-1.46-2.14 1.44-1z" stroke="#5e5e5e" stroke-width=".05" fill="#5e5e5e"/><path d="M80 640.6v1208.32M80 640.63v-4.02" stroke="#5e5e5e" stroke-width="2" fill="none"/><path d="M81 1850.03l-.92-.12-1.08.04v-1.05h2z" stroke="#5e5e5e" stroke-width=".05" fill="#5e5e5e"/><path d="M540 1620c0 55.23-53.73 100-120 100-66.27 0-120-44.77-120-100s53.73-100 120-100c66.27 0 120 44.77 120 100zm-240 0h240" stroke="#5e5e5e" stroke-width="3" fill="#fff"/><use xlink:href="#s" transform="matrix(1,0,0,1,336,1540) translate(19.299999999999997 43.6)"/><use xlink:href="#t" transform="matrix(1,0,0,1,336,1540) translate(55.199999999999996 43.6)"/><use xlink:href="#u" transform="matrix(1,0,0,1,336,1540) translate(101.49999999999999 43.6)"/><use xlink:href="#v" transform="matrix(1,0,0,1,336,1644) translate(34.625 14.4)"/><use xlink:href="#w" transform="matrix(1,0,0,1,336,1644) translate(94.525 14.4)"/><use xlink:href="#x" transform="matrix(1,0,0,1,336,1644) translate(63.85 36)"/><use xlink:href="#y" transform="matrix(1,0,0,1,336,1644) translate(22.449999999999996 57.6)"/><use xlink:href="#z" transform="matrix(1,0,0,1,336,1644) translate(84 79.20000000000002)"/><use xlink:href="#A" transform="matrix(1,0,0,1,300,1620) translate(40.57499999999999 15.6)"/><use xlink:href="#B" transform="matrix(1,0,0,1,300,1620) translate(100.425 15.6)"/><path d="M120.53 1908.32l177.45-287.47" stroke="#5e5e5e" stroke-width="2" fill="none"/><path d="M119.28 1912.24l-.13-.07h.17zm2.1-3.42l-1.38 2.25v-1.9h-1.17l.86-1.4zM298.5 1620v1.2l-1.4-.85 1.44-2.32z" stroke="#5e5e5e" stroke-width=".05" fill="#5e5e5e"/><path d="M500 1909.17c0 33.13-35.82 60-80 60s-80-26.87-80-60c0-33.14 35.82-60 80-60s80 26.86 80 60z" stroke="#5e5e5e" stroke-width="3" fill="#fff"/><use xlink:href="#C" transform="matrix(1,0,0,1,340,1849.1673228346456) translate(27.554999999999993 63.15)"/><path d="M500 2158.34c0 33.13-35.82 60-80 60s-80-26.87-80-60c0-33.14 35.82-60 80-60s80 26.86 80 60z" stroke="#5e5e5e" stroke-width="3" fill="#fff"/><use xlink:href="#D" transform="matrix(1,0,0,1,340.0000000000001,2098.334645669291) translate(41.529999999999994 51.9)"/><use xlink:href="#E" transform="matrix(1,0,0,1,340.0000000000001,2098.334645669291) translate(98.48 51.9)"/><use xlink:href="#F" transform="matrix(1,0,0,1,340.0000000000001,2098.334645669291) translate(28.10499999999999 73.5)"/><path d="M121 1909.17h216.5" stroke="#5e5e5e" stroke-width="2" fill="none"/><path d="M121.03 1910.17H120v-1h-3v-1h4.03zM338.5 1909.15v.43l.02.6h-1.05v-2h1.06z" stroke="#5e5e5e" stroke-width=".05" fill="#5e5e5e"/><path d="M120.66 1909.92l217.18 247.66" stroke="#5e5e5e" stroke-width="2" fill="none"/><path d="M121.43 1909.28l-1.43 1.25v-1.36h-1.33l-1.4-1.6 1.5-1.32zM338.5 2158.3v.45l.05 1.16-1.48-1.68 1.47-1.3z" stroke="#5e5e5e" stroke-width=".05" fill="#5e5e5e"/><path d="M99.75 3059.75c0 10.9-8.84 19.75-19.75 19.75-10.9 0-19.75-8.84-19.75-19.75 0-10.9 8.84-19.75 19.75-19.75 10.9 0 19.75 8.84 19.75 19.75z" stroke="#5e5e5e" stroke-width="3" fill="#fff"/><path d="M80 3079.5v49.3a20.7 20.7 0 0 0 3.2 11.07L120 3198m-40-63.2L40 3198m0-98.75h80" stroke="#5e5e5e" stroke-width="3" fill="none"/><path d="M40 3046a6 6 0 0 1 6-6h68a6 6 0 0 1 6 6v168a6 6 0 0 1-6 6H46a6 6 0 0 1-6-6z" fill="none"/><use xlink:href="#G" transform="matrix(1,0,0,1,-40,3198) translate(88.58024691358025 17.77777777777778)"/><path d="M680 264.38C680 339.27 612.84 400 530 400s-150-60.72-150-135.63c0-74.9 67.16-135.62 150-135.62s150 60.72 150 135.63zm-300 0h300" stroke="#5e5e5e" stroke-width="3" fill="#fff"/><use xlink:href="#s" transform="matrix(1,0,0,1,425,155.875) translate(70.075 58.1)"/><use xlink:href="#H" transform="matrix(1,0,0,1,425,155.875) translate(105.975 58.1)"/><use xlink:href="#I" transform="matrix(1,0,0,1,425,288.375) translate(58.975 14.4)"/><use xlink:href="#J" transform="matrix(1,0,0,1,425,288.375) translate(84.175 14.4)"/><use xlink:href="#K" transform="matrix(1,0,0,1,425,288.375) translate(146.025 14.4)"/><use xlink:href="#L" transform="matrix(1,0,0,1,425,288.375) translate(57.574999999999996 36)"/><use xlink:href="#M" transform="matrix(1,0,0,1,425,288.375) translate(68.52499999999999 36)"/><use xlink:href="#N" transform="matrix(1,0,0,1,425,288.375) translate(101.475 36)"/><use xlink:href="#O" transform="matrix(1,0,0,1,425,288.375) translate(64.07499999999999 57.6)"/><use xlink:href="#M" transform="matrix(1,0,0,1,425,288.375) translate(75.02499999999999 57.6)"/><use xlink:href="#P" transform="matrix(1,0,0,1,425,288.375) translate(107.975 57.6)"/><use xlink:href="#L" transform="matrix(1,0,0,1,425,288.375) translate(44.12499999999999 79.20000000000002)"/><use xlink:href="#M" transform="matrix(1,0,0,1,425,288.375) translate(55.07499999999999 79.20000000000002)"/><use xlink:href="#Q" transform="matrix(1,0,0,1,425,288.375) translate(88.025 79.20000000000002)"/><use xlink:href="#L" transform="matrix(1,0,0,1,425,288.375) translate(68.57499999999999 100.80000000000001)"/><use xlink:href="#M" transform="matrix(1,0,0,1,425,288.375) translate(79.52499999999999 100.80000000000001)"/><use xlink:href="#R" transform="matrix(1,0,0,1,425,288.375) translate(112.475 100.80000000000001)"/><use xlink:href="#z" transform="matrix(1,0,0,1,425,288.375) translate(105 122.4)"/><use xlink:href="#A" transform="matrix(1,0,0,1,380,264.375) translate(70.57499999999999 15.6)"/><use xlink:href="#B" transform="matrix(1,0,0,1,380,264.375) translate(130.425 15.6)"/><path d="M1015.43 264.38c0 33.13-35.8 60-80 60-44.18 0-80-26.87-80-60 0-33.14 35.82-60 80-60 44.2 0 80 26.86 80 60z" stroke="#5e5e5e" stroke-width="3" fill="#fff"/><use xlink:href="#S" transform="matrix(1,0,0,1,855.4330708661416,204.375) translate(23.305 63.15)"/><use xlink:href="#T" transform="matrix(1,0,0,1,855.4330708661416,204.375) translate(88.855 63.15)"/><path d="M682.5 264.38h3.82m7.65 0h7.65m7.64 0h7.65m7.66 0h7.64m7.65 0h7.65m7.64 0h7.65m7.63 0h7.65m7.65 0h7.64m7.65 0h7.65m7.65 0h7.64m7.65 0h3.83" stroke="#5e5e5e" stroke-width="2" fill="none"/><path d="M682.53 265.38h-1.05l.02-1v-1h1.03z" stroke="#5e5e5e" stroke-width=".05" fill="#5e5e5e"/><path d="M850.7 264.38L836.43 269v-9.26z" stroke="#5e5e5e" stroke-width="2" fill="#5e5e5e"/><use xlink:href="#U" transform="matrix(1,0,0,1,708.5313848268789,239.04166666666666) translate(0.005000000000002558 14.222222222222223)"/><use xlink:href="#V" transform="matrix(1,0,0,1,708.5313848268789,239.04166666666666) translate(25.68401234567902 14.222222222222223)"/><use xlink:href="#W" transform="matrix(1,0,0,1,708.5313848268789,239.04166666666666) translate(97.63462962962964 14.222222222222223)"/><path d="M625.46 582.4l-2.32 3.2-1.62-1.18 2.3-3.2zm9.24-12.8l-4.63 6.4-1.62-1.18 4.62-6.4zm9.24-12.8l-4.63 6.4-1.6-1.17 4.6-6.4zm9.24-12.8l-4.62 6.4-1.63-1.16 4.63-6.4zm9.24-12.78l-4.62 6.4-1.63-1.18 4.63-6.4zm9.24-12.8l-4.62 6.4-1.62-1.17 4.62-6.4zm9.24-12.8l-4.62 6.4-1.62-1.16 4.62-6.4zm9.24-12.78l-4.62 6.4-1.62-1.17 4.62-6.4zm9.24-12.8l-4.62 6.4-1.62-1.17 4.62-6.4zm9.24-12.8l-4.62 6.4-1.62-1.16 4.62-6.4zm9.24-12.78l-4.62 6.4-1.62-1.17 4.62-6.4zm4.62-6.4l-1.62-1.17 2.92-4.05h2.47zm23.1-31.98l-3.93 5.44h-2.02l-.3-.2 4.63-6.4zm9.24-12.8l-4.62 6.4-1.62-1.16 4.62-6.4zm9.24-12.78l-4.62 6.4-1.62-1.17 4.62-6.4zm9.24-12.8l-4.62 6.4-1.62-1.17 4.62-6.4zm9.24-12.8l-4.62 6.4-1.62-1.16 4.62-6.4zm9.24-12.78l-4.62 6.4-1.62-1.17 4.62-6.4zm9.25-12.8l-4.63 6.4-1.62-1.17 4.62-6.4zm9.24-12.78l-4.63 6.4-1.62-1.18 4.62-6.4zm9.24-12.8l-4.6 6.4-1.63-1.17 4.62-6.4zm9.25-12.8l-4.62 6.4-1.63-1.16 4.63-6.4zm9.24-12.78l-4.63 6.4-1.62-1.18 4.62-6.4zm9.23-12.8l-4.62 6.4-1.6-1.17 4.6-6.4zm6.93-9.6l-2.3 3.2-1.63-1.16 2.3-3.2z" stroke="#5e5e5e" stroke-width=".05" fill="#5e5e5e"/><path d="M625.5 588.53l-12.1 8.85 4.6-14.28z" fill="#5e5e5e"/><path d="M627.2 588.52L611.5 600l5.96-18.52zm-11.9 6.23l8.5-6.22-5.28-3.8z" stroke="#5e5e5e" stroke-width=".05" fill="#5e5e5e"/><path d="M853.93 264.36v.43l.04.87-1.45-1.05 1.47-2.03z" fill="#5e5e5e"/><path d="M853.96 264.36v.43l.04.92-1.5-1.1 1.52-2.1zm-1.4.25l1.38 1.02-.03-.83v-.45l.06-1.68z" stroke="#5e5e5e" stroke-width=".05" fill="#5e5e5e"/><use xlink:href="#U" transform="matrix(1,0,0,1,673.5313502478856,421.5208333333333) translate(0.005000000000002558 14.222222222222223)"/><use xlink:href="#V" transform="matrix(1,0,0,1,673.5313502478856,421.5208333333333) translate(25.68401234567902 14.222222222222223)"/><use xlink:href="#W" transform="matrix(1,0,0,1,673.5313502478856,421.5208333333333) translate(97.63462962962964 14.222222222222223)"/><path d="M1015.43 600c0 33.14-35.8 60-80 60-44.18 0-80-26.86-80-60s35.82-60 80-60c44.2 0 80 26.86 80 60z" stroke="#5e5e5e" stroke-width="3" fill="#fff"/><use xlink:href="#S" transform="matrix(1,0,0,1,855.4330708661416,540) translate(27.805000000000003 40.65)"/><use xlink:href="#X" transform="matrix(1,0,0,1,855.4330708661416,540) translate(93.355 40.65)"/><use xlink:href="#Y" transform="matrix(1,0,0,1,855.4330708661416,540) translate(54.529999999999994 62.25)"/><use xlink:href="#F" transform="matrix(1,0,0,1,855.4330708661416,540) translate(28.104999999999993 83.85000000000001)"/><path d="M612.5 600h3.98m7.96 0h7.96m7.97 0h7.96m7.96 0h7.95m7.96 0h7.98m7.96 0h7.96m7.96 0h7.96m7.97 0h7.95m7.96 0h7.97m7.96 0h7.96m7.96 0h7.96m7.96 0h7.96m7.96 0h7.97m7.96 0h7.96m7.95 0h3.98" stroke="#5e5e5e" stroke-width="2" fill="none"/><path d="M612.53 601h-1.06l.03-.98v-.43l-.02-.6h1.05z" stroke="#5e5e5e" stroke-width=".05" fill="#5e5e5e"/><path d="M850.7 600l-14.27 4.63v-9.26z" stroke="#5e5e5e" stroke-width="2" fill="#5e5e5e"/><use xlink:href="#U" transform="matrix(1,0,0,1,673.5313502478856,574.6666666666667) translate(0.005000000000002558 14.222222222222223)"/><use xlink:href="#V" transform="matrix(1,0,0,1,673.5313502478856,574.6666666666667) translate(25.68401234567902 14.222222222222223)"/><use xlink:href="#W" transform="matrix(1,0,0,1,673.5313502478856,574.6666666666667) translate(97.63462962962964 14.222222222222223)"/><path d="M1360 264.38c0 33.13-35.82 60-80 60s-80-26.87-80-60c0-33.14 35.82-60 80-60s80 26.86 80 60z" stroke="#5e5e5e" stroke-width="3" fill="#fff"/><use xlink:href="#S" transform="matrix(1,0,0,1,1200,204.375) translate(27.805 51.9)"/><use xlink:href="#X" transform="matrix(1,0,0,1,1200,204.375) translate(93.355 51.9)"/><use xlink:href="#Z" transform="matrix(1,0,0,1,1200,204.375) translate(28.104999999999997 73.5)"/><use xlink:href="#T" transform="matrix(1,0,0,1,1200,204.375) translate(84.055 73.5)"/><path d="M1017.93 264.38h4.06m8.1 0h8.1m8.1 0h8.1m8.1 0h8.1m8.1 0h8.1m8.1 0h8.12m8.1 0h8.1m8.1 0h8.1m8.1 0h8.12m8.1 0h8.1m8.1 0h4.06" stroke="#5e5e5e" stroke-width="2" fill="none"/><path d="M1017.96 265.38h-1.06l.03-1v-.42l-.02-.58h1.06z" stroke="#5e5e5e" stroke-width=".05" fill="#5e5e5e"/><path d="M1195.26 264.38L1181 269v-9.26z" stroke="#5e5e5e" stroke-width="2" fill="#5e5e5e"/><g><use xlink:href="#U" transform="matrix(1,0,0,1,1048.5313502478855,239.04166666666666) translate(0.005000000000002558 14.222222222222223)"/><use xlink:href="#V" transform="matrix(1,0,0,1,1048.5313502478855,239.04166666666666) translate(25.68401234567902 14.222222222222223)"/><use xlink:href="#W" transform="matrix(1,0,0,1,1048.5313502478855,239.04166666666666) translate(97.63462962962964 14.222222222222223)"/></g><path d="M80 3037.5V1950.02" stroke="#5e5e5e" stroke-width="2" fill="none"/><path d="M81 3038.6l-.92-.1-1.08.03v-1.06h2z" stroke="#5e5e5e" stroke-width=".05" fill="#5e5e5e"/><path d="M80 1950.05v-4.03" stroke="#5e5e5e" stroke-width="2" fill="none"/><path d="M600 3020c0 77.32-67.16 140-150 140s-150-62.68-150-140 67.16-140 150-140 150 62.68 150 140zm-300 0h300" stroke="#5e5e5e" stroke-width="3" fill="#fff"/><g><use xlink:href="#s" transform="matrix(1,0,0,1,345,2908) translate(17.625 59.6)"/><use xlink:href="#aa" transform="matrix(1,0,0,1,345,2908) translate(53.525 59.6)"/><use xlink:href="#ab" transform="matrix(1,0,0,1,345,2908) translate(107.42500000000001 59.6)"/></g><g><use xlink:href="#ac" transform="matrix(1,0,0,1,345,3044) translate(43.099999999999994 14.4)"/><use xlink:href="#ad" transform="matrix(1,0,0,1,345,3044) translate(110.05 14.4)"/><use xlink:href="#ac" transform="matrix(1,0,0,1,345,3044) translate(15.125 36)"/><use xlink:href="#ae" transform="matrix(1,0,0,1,345,3044) translate(82.075 36)"/><use xlink:href="#ac" transform="matrix(1,0,0,1,345,3044) translate(28.099999999999994 57.6)"/><use xlink:href="#af" transform="matrix(1,0,0,1,345,3044) translate(95.05 57.6)"/><use xlink:href="#ag" transform="matrix(1,0,0,1,345,3044) translate(52.55 79.20000000000002)"/><use xlink:href="#ah" transform="matrix(1,0,0,1,345,3044) translate(119.5 79.20000000000002)"/></g><g><use xlink:href="#A" transform="matrix(1,0,0,1,300,3020) translate(70.57499999999999 15.6)"/><use xlink:href="#B" transform="matrix(1,0,0,1,300,3020) translate(130.425 15.6)"/></g><path d="M1050 3130c0 33.14-35.82 60-80 60s-80-26.86-80-60 35.82-60 80-60 80 26.86 80 60z" stroke="#5e5e5e" stroke-width="3" fill="#fff"/><g><use xlink:href="#ai" transform="matrix(1,0,0,1,890,3070) translate(31.079999999999995 40.65)"/><use xlink:href="#aj" transform="matrix(1,0,0,1,890,3070) translate(123.93 40.65)"/><use xlink:href="#ak" transform="matrix(1,0,0,1,890,3070) translate(13.104999999999999 62.25)"/><use xlink:href="#al" transform="matrix(1,0,0,1,890,3070) translate(126.90500000000002 62.25)"/><use xlink:href="#F" transform="matrix(1,0,0,1,890,3070) translate(28.104999999999993 83.85000000000001)"/></g><path d="M1140 2850c0 71.8-76.1 130-170 130s-170-58.2-170-130 76.1-130 170-130 170 58.2 170 130zm-340 0h340" stroke="#5e5e5e" stroke-width="3" fill="#fff"/><g><use xlink:href="#am" transform="matrix(1,0,0,1,851,2746) translate(90.075 55.6)"/></g><g><use xlink:href="#an" transform="matrix(1,0,0,1,851,2874) translate(100.525 14.4)"/><use xlink:href="#ao" transform="matrix(1,0,0,1,851,2874) translate(13.674999999999983 36)"/><use xlink:href="#ap" transform="matrix(1,0,0,1,851,2874) translate(106.52499999999999 36)"/><use xlink:href="#aq" transform="matrix(1,0,0,1,851,2874) translate(116.52499999999999 36)"/><use xlink:href="#ar" transform="matrix(1,0,0,1,851,2874) translate(97.07499999999999 57.6)"/><use xlink:href="#as" transform="matrix(1,0,0,1,851,2874) translate(96.05 79.20000000000002)"/></g><g><use xlink:href="#A" transform="matrix(1,0,0,1,800,2850) translate(91.07499999999999 15.6)"/><use xlink:href="#B" transform="matrix(1,0,0,1,800,2850) translate(150.925 15.6)"/></g><path d="M120.92 3097.35l176.66-76.95" stroke="#5e5e5e" stroke-width="2" fill="none"/><path d="M121.34 3098.26l-1.34.58v-1.1h-2.5l3.04-1.32zM298.5 3020v1.1l-.54.23-.8-1.84 1.36-.6zM887.92 3128.7l-.7 1.88-3.75-1.43.72-1.87zm-11.2-4.28l-.7 1.86-7.48-2.86.72-1.87zm-14.93-5.73l-.72 1.86-7.47-2.86.73-1.87zm-14.94-5.73l-.72 1.87-7.46-2.87.7-1.86zm-14.93-5.72l-.72 1.86-7.46-2.85.72-1.87zm-14.94-5.73l-.72 1.87-7.47-2.87.73-1.87zm-14.94-5.72l-.7 1.87-7.48-2.87.7-1.86zm-14.93-5.72l-.72 1.86-7.45-2.86.7-1.87zm-15.65-3.86l-1.44-.55h1.65zm-51.52-21.9h-.03zm-7.5-2.86l-.7 1.87-7.48-2.86.72-1.87zm-14.93-5.72l-.7 1.86-7.48-2.86.72-1.87zM682.6 3050l-.72 1.88-7.46-2.86.7-1.87zm-14.93-5.7l-.72 1.86-7.47-2.86.72-1.87zm-14.94-5.74l-.7 1.87-7.48-2.86.72-1.87zm-14.93-5.72l-.7 1.87-7.48-2.85.7-1.87zm-14.93-5.72l-.72 1.87-3.73-1.45.7-1.86z" stroke="#5e5e5e" stroke-width=".05" fill="#5e5e5e"/><path d="M619.5 3021.93l-3.32 8.66-11.66-9.44z" fill="#5e5e5e"/><path d="M620.93 3021l-4.3 11.24L601.5 3020zm-5.2 7.95l2.35-6.1-10.54-.53z" stroke="#5e5e5e" stroke-width=".05" fill="#5e5e5e"/><path d="M888.53 3128.94l-.03 1.04v.43l.03.68-1.35-.5.72-1.88z" fill="#5e5e5e"/><path d="M888.56 3128.92l-.03 1.06v.43l.02.72-1.4-.54.74-1.9zm-1.34 1.63l1.28.5-.02-.64v-.42l.03-1.02-.6-.23z" stroke="#5e5e5e" stroke-width=".05" fill="#5e5e5e"/><g><use xlink:href="#U" transform="matrix(1,0,0,1,688.2839851922153,3064.3333333333335) translate(0.005000000000002558 14.222222222222223)"/><use xlink:href="#at" transform="matrix(1,0,0,1,688.2839851922153,3064.3333333333335) translate(25.68401234567902 14.222222222222223)"/><use xlink:href="#W" transform="matrix(1,0,0,1,688.2839851922153,3064.3333333333335) translate(92.69635802469136 14.222222222222223)"/></g><path d="M619.2 3006.05l-3.04 2.62-1.3-1.5 3.03-2.64zm12.15-10.5l-6.08 5.26-1.3-1.5 6.07-5.25zm12.15-10.47l-6.08 5.24-1.3-1.5 6.07-5.25zm12.14-10.48l-6.07 5.24-1.3-1.52 6.07-5.24zm12.15-10.5l-6.08 5.26-1.3-1.52 6.07-5.24zm12.14-10.47l-6.07 5.24-1.3-1.5 6.07-5.26zm6.08-5.24l-1.3-1.53 1.4-1.2h3.05zm30.37-26.22l-2.5 2.15h-3.07l4.25-3.67zm12.14-10.5l-6.07 5.26-1.3-1.52 6.06-5.24zm12.15-10.47l-6.1 5.25-1.3-1.5 6.08-5.25zm12.14-10.47l-6.08 5.24-1.3-1.52 6.07-5.24zm12.15-10.5l-6.1 5.25-1.3-1.5 6.08-5.25zm12.13-10.47l-6.07 5.24-1.3-1.5 6.07-5.26zm12.15-10.5l-6.07 5.25-1.3-1.5 6.08-5.24zm9.12-7.85l-3.04 2.63-1.3-1.5 3.03-2.63z" stroke="#5e5e5e" stroke-width=".05" fill="#5e5e5e"/><path d="M617.78 3012.07l-13.83 5.82 7.77-12.84z" fill="#5e5e5e"/><path d="M619.43 3012.46L601.5 3020l10.08-16.64zm-13.03 3.3l9.72-4.07-4.26-4.95z" stroke="#5e5e5e" stroke-width=".05" fill="#5e5e5e"/><path d="M798.5 2850v1.3l-.12.13-1.3-1.52 1.45-1.24z" fill="#5e5e5e"/><path d="M798.52 2850l.02 1.32-.17.14-1.34-1.55 1.52-1.3zm-1.4-.08l1.26 1.47.1-.1v-1.3l.02-1.3z" stroke="#5e5e5e" stroke-width=".05" fill="#5e5e5e"/><g><use xlink:href="#U" transform="matrix(1,0,0,1,643.2839505934131,2924.3333333333335) translate(0.005000000000002558 14.222222222222223)"/><use xlink:href="#at" transform="matrix(1,0,0,1,643.2839505934131,2924.3333333333335) translate(25.68401234567902 14.222222222222223)"/><use xlink:href="#W" transform="matrix(1,0,0,1,643.2839505934131,2924.3333333333335) translate(92.69635802469136 14.222222222222223)"/></g><path d="M1040 3340c0 33.14-35.82 60-80 60s-80-26.86-80-60 35.82-60 80-60 80 26.86 80 60z" stroke="#5e5e5e" stroke-width="3" fill="#fff"/><g><use xlink:href="#au" transform="matrix(1,0,0,1,880,3280) translate(39.05499999999999 40.65)"/><use xlink:href="#av" transform="matrix(1,0,0,1,880,3280) translate(100.95500000000001 40.65)"/><use xlink:href="#aw" transform="matrix(1,0,0,1,880,3280) translate(30.60499999999999 62.25)"/><use xlink:href="#ax" transform="matrix(1,0,0,1,880,3280) translate(99.405 62.25)"/><use xlink:href="#ay" transform="matrix(1,0,0,1,880,3280) translate(43.05499999999999 83.85000000000001)"/></g><path d="M1040 3550c0 33.14-35.82 60-80 60s-80-26.86-80-60 35.82-60 80-60 80 26.86 80 60z" stroke="#5e5e5e" stroke-width="3" fill="#fff"/><g><use xlink:href="#au" transform="matrix(1,0,0,1,880,3490) translate(39.05499999999999 51.9)"/><use xlink:href="#av" transform="matrix(1,0,0,1,880,3490) translate(100.95500000000001 51.9)"/><use xlink:href="#aw" transform="matrix(1,0,0,1,880,3490) translate(20.604999999999997 73.5)"/><use xlink:href="#az" transform="matrix(1,0,0,1,880,3490) translate(89.40500000000002 73.5)"/><use xlink:href="#aA" transform="matrix(1,0,0,1,880,3490) translate(114.40500000000002 73.5)"/></g><path d="M878.6 3338.6l-1.5 1.3-2.65-3.05 1.5-1.3zm-7.93-9.17l-1.5 1.3-5.3-6.1 1.52-1.3zm-10.56-12.2l-1.5 1.3-5.3-6.1 1.52-1.3zM849.55 3305l-1.52 1.32-5.28-6.1 1.5-1.3zm-10.57-12.2l-1.52 1.3-5.28-6.1 1.5-1.3zm-10.57-12.2l-1.5 1.3-5.3-6.1 1.5-1.3zm-10.57-12.22l-1.5 1.3-5.3-6.1 1.5-1.3zm-10.57-12.2l-1.5 1.3-5.3-6.1 1.5-1.32zm-10.57-12.22l-1.52 1.3-5.3-6.1 1.52-1.3zm-10.58-12.2l-1.5 1.3-5.3-6.1 1.5-1.32zm-10.57-12.22l-1.5 1.3-5.3-6.1 1.5-1.3zm-10.57-12.2l-1.5 1.3-5.3-6.1 1.52-1.32zm-10.57-12.22l-1.5 1.3-5-5.75h2.66zm-22.3-25.8h-2.66l-2.97-3.42 1.52-1.3zm-9.4-10.83l-1.5 1.3-5.3-6.1 1.52-1.32zm-10.57-12.22l-1.5 1.3-5.3-6.1 1.52-1.3zm-10.57-12.2l-1.5 1.3-5.3-6.1 1.52-1.32zM691 3121.85l-1.52 1.3-5.28-6.1 1.5-1.3zm-10.58-12.2l-1.5 1.3-5.3-6.1 1.52-1.32zm-10.56-12.22l-1.52 1.3-5.28-6.1 1.5-1.3zm-10.58-12.2l-1.5 1.3-5.3-6.1 1.52-1.32zM648.73 3073l-1.52 1.3-5.28-6.1 1.5-1.3zm-10.57-12.2l-1.52 1.3-5.28-6.1 1.5-1.32zm-10.57-12.22l-1.5 1.3-5.3-6.1 1.5-1.3zM617 3036.4l-1.5 1.3-2.65-3.06 1.5-1.3z" stroke="#5e5e5e" stroke-width=".05" fill="#5e5e5e"/><path d="M616.46 3030.2l-7 6.07-5.84-13.82z" fill="#5e5e5e"/><path d="M618.15 3030.05l-9.1 7.87-7.55-17.92zm-8.3 4.56l4.9-4.26-9-5.45z" stroke="#5e5e5e" stroke-width=".05" fill="#5e5e5e"/><path d="M878.5 3339.98v.43l.05 1.18-1.48-1.7 1.47-1.27z" fill="#5e5e5e"/><path d="M878.52 3339.98v.43l.06 1.25-1.54-1.77 1.53-1.33zm-1.4-.1l1.4 1.63-.04-1.1v-.42l.04-1.32z" stroke="#5e5e5e" stroke-width=".05" fill="#5e5e5e"/><g><use xlink:href="#U" transform="matrix(1,0,0,1,683.2839851922153,3169.3333333333335) translate(0.005000000000002558 14.222222222222223)"/><use xlink:href="#at" transform="matrix(1,0,0,1,683.2839851922153,3169.3333333333335) translate(25.68401234567902 14.222222222222223)"/><use xlink:href="#W" transform="matrix(1,0,0,1,683.2839851922153,3169.3333333333335) translate(92.69635802469136 14.222222222222223)"/></g><path d="M878.92 3548.65l-1.77.93-1.86-3.56 1.76-.93zm-5.58-10.68l-1.77.93-3.72-7.13 1.77-.92zm-7.44-14.24l-1.78.92-3.72-7.12 1.77-.92zm-7.45-14.24l-1.77.9-3.72-7.1 1.77-.94zm-7.44-14.26l-1.76.93-3.72-7.12 1.77-.93zm-7.43-14.24l-1.78.93-3.73-7.12 1.77-.92zm-7.45-14.24l-1.77.92-3.72-7.12 1.77-.92zm-7.44-14.24l-1.77.92-3.72-7.12 1.78-.93zm-7.44-14.25l-1.78.93-3.72-7.12 1.77-.93zm-7.45-14.24l-1.78.93-3.72-7.12 1.77-.93zm-7.45-14.24l-1.77.92-3.73-7.13 1.78-.93zm-7.45-14.25l-1.77.92-3.72-7.12 1.78-.92zm-7.44-14.24l-1.77.93-3.73-7.12 1.77-.9zm-7.44-14.24l-1.77.93-3.73-7.13 1.78-.93zm-7.44-14.24l-1.78.93-3.72-7.12 1.77-.93zm-7.45-14.24l-1.77.93-3.72-7.1 1.77-.94zm-7.44-14.24l-1.8.92-3.7-7.12 1.77-.92zm-7.46-14.25l-1.77.92-3.72-7.12 1.77-.93zm-7.44-14.25l-1.77.93-.58-1.1h2.25zm-14.9-28.48l-1.76.93-3.72-7.13 1.77-.92zm-7.43-14.24l-1.77.92-3.72-7.12 1.77-.92zm-7.44-14.25l-1.78.93-3.72-7.1 1.77-.94zm-7.45-14.24l-1.77.93-3.7-7.12 1.76-.93zm-7.44-14.24l-1.77.93-3.73-7.12 1.78-.92zm-7.44-14.24l-1.78.92-3.35-6.4h2.26zm-11.42-17.52l-1.52-2.92 1.52-.8zm-3.47-10.97l-1.76.93-3.72-7.12 1.77-.93zm-7.43-14.24l-1.78.93-3.73-7.12 1.77-.93zm-7.45-14.24l-1.77.92-3.72-7.13 1.77-.93zm-7.44-14.25l-1.77.92-3.72-7.12 1.78-.92zm-7.45-14.24l-1.77.93-3.72-7.12 1.77-.92zm-7.44-14.24l-1.78.93-3.72-7.13 1.77-.93zm-7.45-14.24l-1.77.93-3.73-7.12 1.78-.93zm-7.45-14.24l-1.77.93-3.72-7.12 1.78-.92zm-7.44-14.24l-1.77.92-3.73-7.12 1.77-.92zm-7.44-14.24l-1.78.92-1.86-3.56 1.78-.93z" stroke="#5e5e5e" stroke-width=".05" fill="#5e5e5e"/><path d="M613.7 3033.36l-8.2 4.3-2.5-14.8z" fill="#5e5e5e"/><path d="M615.4 3033.6l-10.66 5.58-3.24-19.18zm-9.14 2.53l5.77-3.02-7.53-7.36z" stroke="#5e5e5e" stroke-width=".05" fill="#5e5e5e"/><path d="M878.5 3549.98v.43l.08 1.9-1.44-2.75 1.4-.73z" fill="#5e5e5e"/><path d="M878.52 3549.98v.43l.1 2-1.5-2.86 1.44-.76zm-1.35-.4l1.38 2.62-.07-1.8v-.42l.03-1.1z" stroke="#5e5e5e" stroke-width=".05" fill="#5e5e5e"/><g><use xlink:href="#U" transform="matrix(1,0,0,1,683.2839851922153,3274.3333333333335) translate(0.005000000000002558 14.222222222222223)"/><use xlink:href="#at" transform="matrix(1,0,0,1,683.2839851922153,3274.3333333333335) translate(25.68401234567902 14.222222222222223)"/><use xlink:href="#W" transform="matrix(1,0,0,1,683.2839851922153,3274.3333333333335) translate(92.69635802469136 14.222222222222223)"/></g><defs><path fill="#333" d="M240 0l2-218c-23 76-54 145-80 218h-23L58-218 59 0H30v-248h44l77 211c21-75 51-140 76-211h43V0h-30" id="aB"/><path fill="#333" d="M179-190L93 31C79 59 56 82 12 73V49c39 6 53-20 64-50L1-190h34L92-34l54-156h33" id="aC"/><path fill="#333" d="M160-131c35 5 61 23 61 61C221 17 115-2 30 0v-248c76 3 177-17 177 60 0 33-19 50-47 57zm-97-11c50-1 110 9 110-42 0-47-63-36-110-37v79zm0 115c55-2 124 14 124-45 0-56-70-42-124-44v89" id="aD"/><path fill="#333" d="M24 0v-261h32V0H24" id="aE"/><path fill="#333" d="M100-194c62-1 85 37 85 99 1 63-27 99-86 99S16-35 15-95c0-66 28-99 85-99zM99-20c44 1 53-31 53-75 0-43-8-75-51-75s-53 32-53 75 10 74 51 75" id="aF"/><path fill="#333" d="M177-190C167-65 218 103 67 71c-23-6-38-20-44-43l32-5c15 47 100 32 89-28v-30C133-14 115 1 83 1 29 1 15-40 15-95c0-56 16-97 71-98 29-1 48 16 59 35 1-10 0-23 2-32h30zM94-22c36 0 50-32 50-73 0-42-14-75-50-75-39 0-46 34-46 75s6 73 46 73" id="aG"/><g id="a"><use transform="matrix(0.06172839506172839,0,0,0.06172839506172839,0,0)" xlink:href="#aB"/><use transform="matrix(0.06172839506172839,0,0,0.06172839506172839,18.456790123456788,0)" xlink:href="#aC"/><use transform="matrix(0.06172839506172839,0,0,0.06172839506172839,29.5679012345679,0)" xlink:href="#aD"/><use transform="matrix(0.06172839506172839,0,0,0.06172839506172839,44.38271604938271,0)" xlink:href="#aE"/><use transform="matrix(0.06172839506172839,0,0,0.06172839506172839,49.25925925925925,0)" xlink:href="#aF"/><use transform="matrix(0.06172839506172839,0,0,0.06172839506172839,61.60493827160493,0)" xlink:href="#aG"/></g><path fill="#333" d="M16-82v-28h88v28H16" id="aH"/><use transform="matrix(0.06172839506172839,0,0,0.06172839506172839,0,0)" xlink:href="#aH" id="b"/><path fill="#333" d="M232-93c-1 65-40 97-104 97C67 4 28-28 28-90v-158h33c8 89-33 224 67 224 102 0 64-133 71-224h33v155" id="aI"/><path fill="#333" d="M135-143c-3-34-86-38-87 0 15 53 115 12 119 90S17 21 10-45l28-5c4 36 97 45 98 0-10-56-113-15-118-90-4-57 82-63 122-42 12 7 21 19 24 35" id="aJ"/><path fill="#333" d="M100-194c63 0 86 42 84 106H49c0 40 14 67 53 68 26 1 43-12 49-29l28 8c-11 28-37 45-77 45C44 4 14-33 15-96c1-61 26-98 85-98zm52 81c6-60-76-77-97-28-3 7-6 17-6 28h103" id="aK"/><path fill="#333" d="M114-163C36-179 61-72 57 0H25l-1-190h30c1 12-1 29 2 39 6-27 23-49 58-41v29" id="aL"/><g id="c"><use transform="matrix(0.06172839506172839,0,0,0.06172839506172839,0,0)" xlink:href="#aI"/><use transform="matrix(0.06172839506172839,0,0,0.06172839506172839,15.987654320987653,0)" xlink:href="#aJ"/><use transform="matrix(0.06172839506172839,0,0,0.06172839506172839,27.098765432098766,0)" xlink:href="#aK"/><use transform="matrix(0.06172839506172839,0,0,0.06172839506172839,39.44444444444444,0)" xlink:href="#aL"/></g><g id="d"><use transform="matrix(0.06172839506172839,0,0,0.06172839506172839,0,0)" xlink:href="#aB"/><use transform="matrix(0.06172839506172839,0,0,0.06172839506172839,18.456790123456788,0)" xlink:href="#aC"/><use transform="matrix(0.06172839506172839,0,0,0.06172839506172839,29.5679012345679,0)" xlink:href="#aD"/><use transform="matrix(0.06172839506172839,0,0,0.06172839506172839,44.38271604938271,0)" xlink:href="#aE"/><use transform="matrix(0.06172839506172839,0,0,0.06172839506172839,49.25925925925925,0)" xlink:href="#aF"/><use transform="matrix(0.06172839506172839,0,0,0.06172839506172839,61.60493827160493,0)" xlink:href="#aG"/></g><use transform="matrix(0.06172839506172839,0,0,0.06172839506172839,0,0)" xlink:href="#aH" id="e"/><path fill="#333" d="M30 0v-248h33v221h125V0H30" id="aM"/><path fill="#333" d="M85-194c31 0 48 13 60 33l-1-100h32l1 261h-30c-2-10 0-23-3-31C134-8 116 4 85 4 32 4 16-35 15-94c0-66 23-100 70-100zm9 24c-40 0-46 34-46 75 0 40 6 74 45 74 42 0 51-32 51-76 0-42-9-74-50-73" id="aN"/><g id="f"><use transform="matrix(0.06172839506172839,0,0,0.06172839506172839,0,0)" xlink:href="#aM"/><use transform="matrix(0.06172839506172839,0,0,0.06172839506172839,12.345679012345679,0)" xlink:href="#aF"/><use transform="matrix(0.06172839506172839,0,0,0.06172839506172839,24.691358024691358,0)" xlink:href="#aG"/><use transform="matrix(0.06172839506172839,0,0,0.06172839506172839,37.03703703703704,0)" xlink:href="#aG"/><use transform="matrix(0.06172839506172839,0,0,0.06172839506172839,49.382716049382715,0)" xlink:href="#aK"/><use transform="matrix(0.06172839506172839,0,0,0.06172839506172839,61.72839506172839,0)" xlink:href="#aN"/></g><g id="g"><use transform="matrix(0.06172839506172839,0,0,0.06172839506172839,0,0)" xlink:href="#aI"/><use transform="matrix(0.06172839506172839,0,0,0.06172839506172839,15.987654320987653,0)" xlink:href="#aJ"/><use transform="matrix(0.06172839506172839,0,0,0.06172839506172839,27.098765432098766,0)" xlink:href="#aK"/><use transform="matrix(0.06172839506172839,0,0,0.06172839506172839,39.44444444444444,0)" xlink:href="#aL"/></g><path fill="#333" d="M205 0l-28-72H64L36 0H1l101-248h38L239 0h-34zm-38-99l-47-123c-12 45-31 82-46 123h93" id="aO"/><path fill="#333" d="M210-169c-67 3-38 105-44 169h-31v-121c0-29-5-50-35-48C34-165 62-65 56 0H25l-1-190h30c1 10-1 24 2 32 10-44 99-50 107 0 11-21 27-35 58-36 85-2 47 119 55 194h-31v-121c0-29-5-49-35-48" id="aP"/><path fill="#333" d="M24-231v-30h32v30H24zM24 0v-190h32V0H24" id="aQ"/><path fill="#333" d="M117-194c89-4 53 116 60 194h-32v-121c0-31-8-49-39-48C34-167 62-67 57 0H25l-1-190h30c1 10-1 24 2 32 11-22 29-35 61-36" id="aR"/><g id="h"><use transform="matrix(0.06172839506172839,0,0,0.06172839506172839,0,0)" xlink:href="#aO"/><use transform="matrix(0.06172839506172839,0,0,0.06172839506172839,14.814814814814813,0)" xlink:href="#aN"/><use transform="matrix(0.06172839506172839,0,0,0.06172839506172839,27.160493827160494,0)" xlink:href="#aP"/><use transform="matrix(0.06172839506172839,0,0,0.06172839506172839,45.61728395061728,0)" xlink:href="#aQ"/><use transform="matrix(0.06172839506172839,0,0,0.06172839506172839,50.49382716049382,0)" xlink:href="#aR"/></g><path fill="#333" d="M59-47c-2 24 18 29 38 22v24C64 9 27 4 27-40v-127H5v-23h24l9-43h21v43h35v23H59v120" id="aS"/><path fill="#333" d="M141-36C126-15 110 5 73 4 37 3 15-17 15-53c-1-64 63-63 125-63 3-35-9-54-41-54-24 1-41 7-42 31l-33-3c5-37 33-52 76-52 45 0 72 20 72 64v82c-1 20 7 32 28 27v20c-31 9-61-2-59-35zM48-53c0 20 12 33 32 33 41-3 63-29 60-74-43 2-92-5-92 41" id="aT"/><path fill="#333" d="M84 4C-5 8 30-112 23-190h32v120c0 31 7 50 39 49 72-2 45-101 50-169h31l1 190h-30c-1-10 1-25-2-33-11 22-28 36-60 37" id="aU"/><g id="i"><use transform="matrix(0.06172839506172839,0,0,0.06172839506172839,0,0)" xlink:href="#aI"/><use transform="matrix(0.06172839506172839,0,0,0.06172839506172839,15.987654320987653,0)" xlink:href="#aS"/><use transform="matrix(0.06172839506172839,0,0,0.06172839506172839,22.160493827160494,0)" xlink:href="#aQ"/><use transform="matrix(0.06172839506172839,0,0,0.06172839506172839,27.037037037037038,0)" xlink:href="#aE"/><use transform="matrix(0.06172839506172839,0,0,0.06172839506172839,31.913580246913586,0)" xlink:href="#aQ"/><use transform="matrix(0.06172839506172839,0,0,0.06172839506172839,36.79012345679013,0)" xlink:href="#aJ"/><use transform="matrix(0.06172839506172839,0,0,0.06172839506172839,47.90123456790124,0)" xlink:href="#aT"/><use transform="matrix(0.06172839506172839,0,0,0.06172839506172839,60.24691358024692,0)" xlink:href="#aS"/><use transform="matrix(0.06172839506172839,0,0,0.06172839506172839,66.41975308641976,0)" xlink:href="#aK"/><use transform="matrix(0.06172839506172839,0,0,0.06172839506172839,78.76543209876544,0)" xlink:href="#aU"/><use transform="matrix(0.06172839506172839,0,0,0.06172839506172839,91.11111111111113,0)" xlink:href="#aL"/></g><path d="M185-189c-5-48-123-54-124 2 14 75 158 14 163 119 3 78-121 87-175 55-17-10-28-26-33-46l33-7c5 56 141 63 141-1 0-78-155-14-162-118-5-82 145-84 179-34 5 7 8 16 11 25" id="aV"/><path d="M100-194c63 0 86 42 84 106H49c0 40 14 67 53 68 26 1 43-12 49-29l28 8c-11 28-37 45-77 45C44 4 14-33 15-96c1-61 26-98 85-98zm52 81c6-60-76-77-97-28-3 7-6 17-6 28h103" id="aW"/><g id="j"><use transform="matrix(0.05,0,0,0.05,0,0)" xlink:href="#aV"/><use transform="matrix(0.05,0,0,0.05,12,0)" xlink:href="#aW"/></g><path d="M96-169c-40 0-48 33-48 73s9 75 48 75c24 0 41-14 43-38l32 2c-6 37-31 61-74 61-59 0-76-41-82-99-10-93 101-131 147-64 4 7 5 14 7 22l-32 3c-4-21-16-35-41-35" id="aX"/><path d="M100-194c62-1 85 37 85 99 1 63-27 99-86 99S16-35 15-95c0-66 28-99 85-99zM99-20c44 1 53-31 53-75 0-43-8-75-51-75s-53 32-53 75 10 74 51 75" id="aY"/><path d="M117-194c89-4 53 116 60 194h-32v-121c0-31-8-49-39-48C34-167 62-67 57 0H25l-1-190h30c1 10-1 24 2 32 11-22 29-35 61-36" id="aZ"/><path d="M59-47c-2 24 18 29 38 22v24C64 9 27 4 27-40v-127H5v-23h24l9-43h21v43h35v23H59v120" id="ba"/><path d="M114-163C36-179 61-72 57 0H25l-1-190h30c1 12-1 29 2 39 6-27 23-49 58-41v29" id="bb"/><g id="k"><use transform="matrix(0.05,0,0,0.05,0,0)" xlink:href="#aX"/><use transform="matrix(0.05,0,0,0.05,9,0)" xlink:href="#aY"/><use transform="matrix(0.05,0,0,0.05,19,0)" xlink:href="#aZ"/><use transform="matrix(0.05,0,0,0.05,29,0)" xlink:href="#aZ"/><use transform="matrix(0.05,0,0,0.05,39,0)" xlink:href="#aW"/><use transform="matrix(0.05,0,0,0.05,49,0)" xlink:href="#aX"/><use transform="matrix(0.05,0,0,0.05,58,0)" xlink:href="#ba"/><use transform="matrix(0.05,0,0,0.05,63,0)" xlink:href="#aW"/><use transform="matrix(0.05,0,0,0.05,73,0)" xlink:href="#bb"/></g><path d="M212-179c-10-28-35-45-73-45-59 0-87 40-87 99 0 60 29 101 89 101 43 0 62-24 78-52l27 14C228-24 195 4 139 4 59 4 22-46 18-125c-6-104 99-153 187-111 19 9 31 26 39 46" id="bc"/><path d="M141-36C126-15 110 5 73 4 37 3 15-17 15-53c-1-64 63-63 125-63 3-35-9-54-41-54-24 1-41 7-42 31l-33-3c5-37 33-52 76-52 45 0 72 20 72 64v82c-1 20 7 32 28 27v20c-31 9-61-2-59-35zM48-53c0 20 12 33 32 33 41-3 63-29 60-74-43 2-92-5-92 41" id="bd"/><g id="l"><use transform="matrix(0.05,0,0,0.05,0,0)" xlink:href="#bc"/><use transform="matrix(0.05,0,0,0.05,12.950000000000001,0)" xlink:href="#aY"/><use transform="matrix(0.05,0,0,0.05,22.950000000000003,0)" xlink:href="#aZ"/><use transform="matrix(0.05,0,0,0.05,32.95,0)" xlink:href="#ba"/><use transform="matrix(0.05,0,0,0.05,37.95,0)" xlink:href="#bd"/><use transform="matrix(0.05,0,0,0.05,47.95,0)" xlink:href="#aX"/><use transform="matrix(0.05,0,0,0.05,56.95,0)" xlink:href="#ba"/><use transform="matrix(0.05,0,0,0.05,61.95,0)" xlink:href="#aW"/><use transform="matrix(0.05,0,0,0.05,71.95,0)" xlink:href="#bb"/></g><path d="M85-194c31 0 48 13 60 33l-1-100h32l1 261h-30c-2-10 0-23-3-31C134-8 116 4 85 4 32 4 16-35 15-94c0-66 23-100 70-100zm9 24c-40 0-46 34-46 75 0 40 6 74 45 74 42 0 51-32 51-76 0-42-9-74-50-73" id="be"/><path d="M210-169c-67 3-38 105-44 169h-31v-121c0-29-5-50-35-48C34-165 62-65 56 0H25l-1-190h30c1 10-1 24 2 32 10-44 99-50 107 0 11-21 27-35 58-36 85-2 47 119 55 194h-31v-121c0-29-5-49-35-48" id="bf"/><path d="M24-231v-30h32v30H24zM24 0v-190h32V0H24" id="bg"/><g id="m"><use transform="matrix(0.05,0,0,0.05,0,0)" xlink:href="#bd"/><use transform="matrix(0.05,0,0,0.05,10,0)" xlink:href="#be"/><use transform="matrix(0.05,0,0,0.05,20,0)" xlink:href="#bf"/><use transform="matrix(0.05,0,0,0.05,34.95,0)" xlink:href="#bg"/><use transform="matrix(0.05,0,0,0.05,38.900000000000006,0)" xlink:href="#aZ"/></g><path d="M137 0h-34L2-248h35l83 218 83-218h36" id="bh"/><g id="n"><use transform="matrix(0.05,0,0,0.05,0,0)" xlink:href="#bh"/><use transform="matrix(0.05,0,0,0.05,11,0)" xlink:href="#aY"/><use transform="matrix(0.05,0,0,0.05,21,0)" xlink:href="#bg"/><use transform="matrix(0.05,0,0,0.05,24.95,0)" xlink:href="#bb"/></g><path d="M135-143c-3-34-86-38-87 0 15 53 115 12 119 90S17 21 10-45l28-5c4 36 97 45 98 0-10-56-113-15-118-90-4-57 82-63 122-42 12 7 21 19 24 35" id="bi"/><g id="o"><use transform="matrix(0.05,0,0,0.05,0,0)" xlink:href="#aX"/><use transform="matrix(0.05,0,0,0.05,9,0)" xlink:href="#aY"/><use transform="matrix(0.05,0,0,0.05,19,0)" xlink:href="#bf"/><use transform="matrix(0.05,0,0,0.05,33.95,0)" xlink:href="#bf"/><use transform="matrix(0.05,0,0,0.05,48.900000000000006,0)" xlink:href="#aW"/><use transform="matrix(0.05,0,0,0.05,58.900000000000006,0)" xlink:href="#aZ"/><use transform="matrix(0.05,0,0,0.05,68.9,0)" xlink:href="#ba"/><use transform="matrix(0.05,0,0,0.05,73.9,0)" xlink:href="#bd"/><use transform="matrix(0.05,0,0,0.05,83.9,0)" xlink:href="#bg"/><use transform="matrix(0.05,0,0,0.05,87.85000000000001,0)" xlink:href="#bb"/><use transform="matrix(0.05,0,0,0.05,93.80000000000001,0)" xlink:href="#aW"/><use transform="matrix(0.05,0,0,0.05,103.80000000000001,0)" xlink:href="#bi"/></g><g id="p"><use transform="matrix(0.06172839506172839,0,0,0.06172839506172839,0,0)" xlink:href="#aM"/><use transform="matrix(0.06172839506172839,0,0,0.06172839506172839,12.345679012345679,0)" xlink:href="#aF"/><use transform="matrix(0.06172839506172839,0,0,0.06172839506172839,24.691358024691358,0)" xlink:href="#aG"/><use transform="matrix(0.06172839506172839,0,0,0.06172839506172839,37.03703703703704,0)" xlink:href="#aG"/><use transform="matrix(0.06172839506172839,0,0,0.06172839506172839,49.382716049382715,0)" xlink:href="#aK"/><use transform="matrix(0.06172839506172839,0,0,0.06172839506172839,61.72839506172839,0)" xlink:href="#aN"/></g><path d="M127-220V0H93v-220H8v-28h204v28h-85" id="bj"/><path d="M100-194c63 0 86 42 84 106H49c0 40 14 67 53 68 26 1 43-12 49-29l28 8c-11 28-37 45-77 45C44 4 14-33 15-96c1-61 26-98 85-98zm52 81c6-60-76-77-97-28-3 7-6 17-6 28h103zm-74-98c8-23 27-35 38-54h36v5l-58 49H78" id="bk"/><path d="M24 0v-261h32V0H24" id="bl"/><path d="M106-169C34-169 62-67 57 0H25v-261h32l-1 103c12-21 28-36 61-36 89 0 53 116 60 194h-32v-121c2-32-8-49-39-48" id="bm"/><path d="M177-190C167-65 218 103 67 71c-23-6-38-20-44-43l32-5c15 47 100 32 89-28v-30C133-14 115 1 83 1 29 1 15-40 15-95c0-56 16-97 71-98 29-1 48 16 59 35 1-10 0-23 2-32h30zM94-22c36 0 50-32 50-73 0-42-14-75-50-75-39 0-46 34-46 75s6 73 46 73" id="bn"/><g id="q"><use transform="matrix(0.05,0,0,0.05,0,0)" xlink:href="#bj"/><use transform="matrix(0.05,0,0,0.05,10.950000000000001,0)" xlink:href="#bk"/><use transform="matrix(0.05,0,0,0.05,20.950000000000003,0)" xlink:href="#bl"/><use transform="matrix(0.05,0,0,0.05,24.900000000000002,0)" xlink:href="#bk"/><use transform="matrix(0.05,0,0,0.05,34.900000000000006,0)" xlink:href="#aX"/><use transform="matrix(0.05,0,0,0.05,43.900000000000006,0)" xlink:href="#bm"/><use transform="matrix(0.05,0,0,0.05,53.900000000000006,0)" xlink:href="#bd"/><use transform="matrix(0.05,0,0,0.05,63.900000000000006,0)" xlink:href="#bb"/><use transform="matrix(0.05,0,0,0.05,69.85000000000001,0)" xlink:href="#bn"/><use transform="matrix(0.05,0,0,0.05,79.85000000000001,0)" xlink:href="#aW"/><use transform="matrix(0.05,0,0,0.05,89.85000000000001,0)" xlink:href="#bb"/></g><g id="r"><use transform="matrix(0.05,0,0,0.05,0,0)" xlink:href="#bc"/><use transform="matrix(0.05,0,0,0.05,12.950000000000001,0)" xlink:href="#bh"/></g><g id="s"><use transform="matrix(0.05,0,0,0.05,0,0)" xlink:href="#bh"/><use transform="matrix(0.05,0,0,0.05,11,0)" xlink:href="#aY"/><use transform="matrix(0.05,0,0,0.05,21,0)" xlink:href="#bg"/><use transform="matrix(0.05,0,0,0.05,24.95,0)" xlink:href="#bb"/></g><path d="M109-170H84l-4-78h32zm-65 0H19l-4-78h33" id="bo"/><path d="M240 0l2-218c-23 76-54 145-80 218h-23L58-218 59 0H30v-248h44l77 211c21-75 51-140 76-211h43V0h-30" id="bp"/><g id="t"><use transform="matrix(0.05,0,0,0.05,0,0)" xlink:href="#bo"/><use transform="matrix(0.05,0,0,0.05,6.3500000000000005,0)" xlink:href="#bp"/><use transform="matrix(0.05,0,0,0.05,21.3,0)" xlink:href="#aY"/><use transform="matrix(0.05,0,0,0.05,31.3,0)" xlink:href="#aZ"/></g><path d="M30-248c87 1 191-15 191 75 0 78-77 80-158 76V0H30v-248zm33 125c57 0 124 11 124-50 0-59-68-47-124-48v98" id="bq"/><path d="M101-234c-31-9-42 10-38 44h38v23H63V0H32v-167H5v-23h27c-7-52 17-82 69-68v24" id="br"/><g id="u"><use transform="matrix(0.05,0,0,0.05,0,0)" xlink:href="#bq"/><use transform="matrix(0.05,0,0,0.05,12,0)" xlink:href="#bb"/><use transform="matrix(0.05,0,0,0.05,17.95,0)" xlink:href="#aY"/><use transform="matrix(0.05,0,0,0.05,27.950000000000003,0)" xlink:href="#br"/><use transform="matrix(0.05,0,0,0.05,32.95,0)" xlink:href="#bg"/><use transform="matrix(0.05,0,0,0.05,36.900000000000006,0)" xlink:href="#bl"/><use transform="matrix(0.05,0,0,0.05,40.85000000000001,0)" xlink:href="#bo"/></g><path d="M30 0v-248h187v28H63v79h144v27H63v87h162V0H30" id="bs"/><g id="v"><use transform="matrix(0.05,0,0,0.05,0,0)" xlink:href="#bs"/><use transform="matrix(0.05,0,0,0.05,12,0)" xlink:href="#be"/><use transform="matrix(0.05,0,0,0.05,22,0)" xlink:href="#bg"/><use transform="matrix(0.05,0,0,0.05,25.950000000000003,0)" xlink:href="#ba"/><use transform="matrix(0.05,0,0,0.05,30.950000000000003,0)" xlink:href="#bg"/><use transform="matrix(0.05,0,0,0.05,34.9,0)" xlink:href="#aY"/><use transform="matrix(0.05,0,0,0.05,44.9,0)" xlink:href="#aZ"/></g><path d="M115-194c55 1 70 41 70 98S169 2 115 4C84 4 66-9 55-30l1 105H24l-1-265h31l2 30c10-21 28-34 59-34zm-8 174c40 0 45-34 45-75s-6-73-45-74c-42 0-51 32-51 76 0 43 10 73 51 73" id="bt"/><g id="w"><use transform="matrix(0.05,0,0,0.05,0,0)" xlink:href="#bt"/><use transform="matrix(0.05,0,0,0.05,10,0)" xlink:href="#bb"/><use transform="matrix(0.05,0,0,0.05,15.949999999999998,0)" xlink:href="#aY"/><use transform="matrix(0.05,0,0,0.05,25.950000000000003,0)" xlink:href="#br"/><use transform="matrix(0.05,0,0,0.05,30.950000000000003,0)" xlink:href="#bg"/><use transform="matrix(0.05,0,0,0.05,34.9,0)" xlink:href="#bl"/></g><g id="x"><use transform="matrix(0.05,0,0,0.05,0,0)" xlink:href="#bo"/><use transform="matrix(0.05,0,0,0.05,6.3500000000000005,0)" xlink:href="#bp"/><use transform="matrix(0.05,0,0,0.05,21.3,0)" xlink:href="#aW"/><use transform="matrix(0.05,0,0,0.05,31.3,0)" xlink:href="#bi"/></g><g id="y"><use transform="matrix(0.05,0,0,0.05,0,0)" xlink:href="#bc"/><use transform="matrix(0.05,0,0,0.05,12.950000000000001,0)" xlink:href="#aY"/><use transform="matrix(0.05,0,0,0.05,22.950000000000003,0)" xlink:href="#bf"/><use transform="matrix(0.05,0,0,0.05,37.900000000000006,0)" xlink:href="#bf"/><use transform="matrix(0.05,0,0,0.05,52.85,0)" xlink:href="#aW"/><use transform="matrix(0.05,0,0,0.05,62.85,0)" xlink:href="#aZ"/><use transform="matrix(0.05,0,0,0.05,72.85000000000001,0)" xlink:href="#ba"/><use transform="matrix(0.05,0,0,0.05,77.85000000000001,0)" xlink:href="#bd"/><use transform="matrix(0.05,0,0,0.05,87.85000000000001,0)" xlink:href="#bg"/><use transform="matrix(0.05,0,0,0.05,91.80000000000001,0)" xlink:href="#bb"/><use transform="matrix(0.05,0,0,0.05,97.75000000000001,0)" xlink:href="#aW"/><use transform="matrix(0.05,0,0,0.05,107.75,0)" xlink:href="#bi"/><use transform="matrix(0.05,0,0,0.05,116.75,0)" xlink:href="#bo"/></g><path d="M24-248c93 1 206-16 204 79-1 75-69 88-152 82V0H24v-248zm52 121c47 0 100 7 100-41 0-47-54-39-100-39v80" id="bu"/><path d="M110-194c64 0 96 36 96 99 0 64-35 99-97 99-61 0-95-36-95-99 0-62 34-99 96-99zm-1 164c35 0 45-28 45-65 0-40-10-65-43-65-34 0-45 26-45 65 0 36 10 65 43 65" id="bv"/><path d="M25-224v-37h50v37H25zM25 0v-190h50V0H25" id="bw"/><path d="M135-194c87-1 58 113 63 194h-50c-7-57 23-157-34-157-59 0-34 97-39 157H25l-1-190h47c2 12-1 28 3 38 12-26 28-41 61-42" id="bx"/><path d="M115-3C79 11 28 4 28-45v-112H4v-33h27l15-45h31v45h36v33H77v99c-1 23 16 31 38 25v30" id="by"/><path d="M137-138c1-29-70-34-71-4 15 46 118 7 119 86 1 83-164 76-172 9l43-7c4 19 20 25 44 25 33 8 57-30 24-41C81-84 22-81 20-136c-2-80 154-74 161-7" id="bz"/><g id="A"><use transform="matrix(0.05,0,0,0.05,0,0)" xlink:href="#bu"/><use transform="matrix(0.05,0,0,0.05,12,0)" xlink:href="#bv"/><use transform="matrix(0.05,0,0,0.05,22.950000000000003,0)" xlink:href="#bw"/><use transform="matrix(0.05,0,0,0.05,27.950000000000003,0)" xlink:href="#bx"/><use transform="matrix(0.05,0,0,0.05,38.900000000000006,0)" xlink:href="#by"/><use transform="matrix(0.05,0,0,0.05,44.85000000000001,0)" xlink:href="#bz"/></g><path d="M88-194c31-1 46 15 58 34l-1-101h50l1 261h-48c-2-10 0-23-3-31C134-8 116 4 84 4 32 4 16-41 15-95c0-56 19-97 73-99zm17 164c33 0 40-30 41-66 1-37-9-64-41-64s-38 30-39 65c0 43 13 65 39 65" id="bA"/><path d="M62-158H24l-5-90h48" id="bB"/><path d="M185-48c-13 30-37 53-82 52C43 2 14-33 14-96s30-98 90-98c62 0 83 45 84 108H66c0 31 8 55 39 56 18 0 30-7 34-22zm-45-69c5-46-57-63-70-21-2 6-4 13-4 21h74" id="bC"/><path d="M144 0l-44-69L55 0H2l70-98-66-92h53l41 62 40-62h54l-67 91 71 99h-54" id="bD"/><g id="B"><use transform="matrix(0.05,0,0,0.05,0,0)" xlink:href="#bA"/><use transform="matrix(0.05,0,0,0.05,10.950000000000001,0)" xlink:href="#bB"/><use transform="matrix(0.05,0,0,0.05,15.200000000000001,0)" xlink:href="#bC"/><use transform="matrix(0.05,0,0,0.05,25.200000000000003,0)" xlink:href="#bD"/><use transform="matrix(0.05,0,0,0.05,35.2,0)" xlink:href="#by"/><use transform="matrix(0.05,0,0,0.05,41.150000000000006,0)" xlink:href="#bC"/><use transform="matrix(0.05,0,0,0.05,51.150000000000006,0)" xlink:href="#bx"/><use transform="matrix(0.05,0,0,0.05,62.1,0)" xlink:href="#bz"/><use transform="matrix(0.05,0,0,0.05,72.10000000000001,0)" xlink:href="#bw"/><use transform="matrix(0.05,0,0,0.05,77.10000000000001,0)" xlink:href="#bv"/><use transform="matrix(0.05,0,0,0.05,88.05000000000001,0)" xlink:href="#bx"/></g><path d="M30-248c118-7 216 8 213 122C240-48 200 0 122 0H30v-248zM63-27c89 8 146-16 146-99s-60-101-146-95v194" id="bE"/><path d="M141 0L90-78 38 0H4l68-98-65-92h35l48 74 47-74h35l-64 92 68 98h-35" id="bF"/><g id="C"><use transform="matrix(0.05,0,0,0.05,0,0)" xlink:href="#bE"/><use transform="matrix(0.05,0,0,0.05,12.950000000000001,0)" xlink:href="#bk"/><use transform="matrix(0.05,0,0,0.05,22.950000000000003,0)" xlink:href="#aX"/><use transform="matrix(0.05,0,0,0.05,31.950000000000003,0)" xlink:href="#aY"/><use transform="matrix(0.05,0,0,0.05,41.95,0)" xlink:href="#aZ"/><use transform="matrix(0.05,0,0,0.05,51.95,0)" xlink:href="#aZ"/><use transform="matrix(0.05,0,0,0.05,61.95,0)" xlink:href="#aW"/><use transform="matrix(0.05,0,0,0.05,71.95,0)" xlink:href="#bF"/><use transform="matrix(0.05,0,0,0.05,80.95,0)" xlink:href="#bg"/><use transform="matrix(0.05,0,0,0.05,84.9,0)" xlink:href="#aY"/><use transform="matrix(0.05,0,0,0.05,94.9,0)" xlink:href="#aZ"/></g><g id="D"><use transform="matrix(0.05,0,0,0.05,0,0)" xlink:href="#bq"/><use transform="matrix(0.05,0,0,0.05,12,0)" xlink:href="#aY"/><use transform="matrix(0.05,0,0,0.05,22,0)" xlink:href="#bi"/><use transform="matrix(0.05,0,0,0.05,31,0)" xlink:href="#ba"/><use transform="matrix(0.05,0,0,0.05,36,0)" xlink:href="#aW"/><use transform="matrix(0.05,0,0,0.05,46,0)" xlink:href="#bb"/></g><path d="M84 4C-5 8 30-112 23-190h32v120c0 31 7 50 39 49 72-2 45-101 50-169h31l1 190h-30c-1-10 1-25-2-33-11 22-28 36-60 37" id="bG"/><g id="E"><use transform="matrix(0.05,0,0,0.05,0,0)" xlink:href="#bG"/><use transform="matrix(0.05,0,0,0.05,10,0)" xlink:href="#aZ"/></g><g id="F"><use transform="matrix(0.05,0,0,0.05,0,0)" xlink:href="#aX"/><use transform="matrix(0.05,0,0,0.05,9,0)" xlink:href="#aY"/><use transform="matrix(0.05,0,0,0.05,19,0)" xlink:href="#bf"/><use transform="matrix(0.05,0,0,0.05,33.95,0)" xlink:href="#bf"/><use transform="matrix(0.05,0,0,0.05,48.900000000000006,0)" xlink:href="#aW"/><use transform="matrix(0.05,0,0,0.05,58.900000000000006,0)" xlink:href="#aZ"/><use transform="matrix(0.05,0,0,0.05,68.9,0)" xlink:href="#ba"/><use transform="matrix(0.05,0,0,0.05,73.9,0)" xlink:href="#bd"/><use transform="matrix(0.05,0,0,0.05,83.9,0)" xlink:href="#bg"/><use transform="matrix(0.05,0,0,0.05,87.85000000000001,0)" xlink:href="#bb"/><use transform="matrix(0.05,0,0,0.05,93.80000000000001,0)" xlink:href="#aW"/></g><g id="G"><use transform="matrix(0.06172839506172839,0,0,0.06172839506172839,0,0)" xlink:href="#aO"/><use transform="matrix(0.06172839506172839,0,0,0.06172839506172839,14.814814814814813,0)" xlink:href="#aN"/><use transform="matrix(0.06172839506172839,0,0,0.06172839506172839,27.160493827160494,0)" xlink:href="#aP"/><use transform="matrix(0.06172839506172839,0,0,0.06172839506172839,45.61728395061728,0)" xlink:href="#aQ"/><use transform="matrix(0.06172839506172839,0,0,0.06172839506172839,50.49382716049382,0)" xlink:href="#aR"/></g><path d="M115-194c53 0 69 39 70 98 0 66-23 100-70 100C84 3 66-7 56-30L54 0H23l1-261h32v101c10-23 28-34 59-34zm-8 174c40 0 45-34 45-75 0-40-5-75-45-74-42 0-51 32-51 76 0 43 10 73 51 73" id="bH"/><g id="H"><use transform="matrix(0.05,0,0,0.05,0,0)" xlink:href="#bH"/><use transform="matrix(0.05,0,0,0.05,10,0)" xlink:href="#bl"/><use transform="matrix(0.05,0,0,0.05,13.949999999999998,0)" xlink:href="#aY"/><use transform="matrix(0.05,0,0,0.05,23.95,0)" xlink:href="#bn"/></g><g id="I"><use transform="matrix(0.05,0,0,0.05,0,0)" xlink:href="#bj"/><use transform="matrix(0.05,0,0,0.05,10.3,0)" xlink:href="#bb"/><use transform="matrix(0.05,0,0,0.05,16.25,0)" xlink:href="#bg"/></g><g id="J"><use transform="matrix(0.05,0,0,0.05,0,0)" xlink:href="#bd"/><use transform="matrix(0.05,0,0,0.05,10,0)" xlink:href="#bb"/><use transform="matrix(0.05,0,0,0.05,15.949999999999998,0)" xlink:href="#ba"/><use transform="matrix(0.05,0,0,0.05,20.95,0)" xlink:href="#bg"/><use transform="matrix(0.05,0,0,0.05,24.9,0)" xlink:href="#aX"/><use transform="matrix(0.05,0,0,0.05,33.9,0)" xlink:href="#bl"/><use transform="matrix(0.05,0,0,0.05,37.85,0)" xlink:href="#aW"/><use transform="matrix(0.05,0,0,0.05,47.85,0)" xlink:href="#bi"/></g><path d="M33-154v-36h34v36H33zM33 0v-36h34V0H33" id="bI"/><use transform="matrix(0.05,0,0,0.05,0,0)" xlink:href="#bI" id="K"/><path d="M16-82v-28h88v28H16" id="bJ"/><use transform="matrix(0.05,0,0,0.05,0,0)" xlink:href="#bJ" id="L"/><g id="M"><use transform="matrix(0.05,0,0,0.05,0,0)" xlink:href="#bq"/><use transform="matrix(0.05,0,0,0.05,12,0)" xlink:href="#bd"/><use transform="matrix(0.05,0,0,0.05,22,0)" xlink:href="#bb"/></g><g id="N"><use transform="matrix(0.05,0,0,0.05,0,0)" xlink:href="#bd"/><use transform="matrix(0.05,0,0,0.05,10,0)" xlink:href="#bG"/><use transform="matrix(0.05,0,0,0.05,20,0)" xlink:href="#ba"/><use transform="matrix(0.05,0,0,0.05,25,0)" xlink:href="#aW"/><use transform="matrix(0.05,0,0,0.05,35,0)" xlink:href="#bG"/><use transform="matrix(0.05,0,0,0.05,45,0)" xlink:href="#bb"/></g><use transform="matrix(0.05,0,0,0.05,0,0)" xlink:href="#bJ" id="O"/><g id="P"><use transform="matrix(0.05,0,0,0.05,0,0)" xlink:href="#bE"/><use transform="matrix(0.05,0,0,0.05,12.950000000000001,0)" xlink:href="#bd"/><use transform="matrix(0.05,0,0,0.05,22.950000000000003,0)" xlink:href="#ba"/><use transform="matrix(0.05,0,0,0.05,27.950000000000003,0)" xlink:href="#aW"/></g><g id="Q"><use transform="matrix(0.05,0,0,0.05,0,0)" xlink:href="#bc"/><use transform="matrix(0.05,0,0,0.05,12.950000000000001,0)" xlink:href="#bd"/><use transform="matrix(0.05,0,0,0.05,22.950000000000003,0)" xlink:href="#ba"/><use transform="matrix(0.05,0,0,0.05,27.950000000000003,0)" xlink:href="#bk"/><use transform="matrix(0.05,0,0,0.05,37.95,0)" xlink:href="#bn"/><use transform="matrix(0.05,0,0,0.05,47.95,0)" xlink:href="#aY"/><use transform="matrix(0.05,0,0,0.05,57.95,0)" xlink:href="#bb"/><use transform="matrix(0.05,0,0,0.05,63.900000000000006,0)" xlink:href="#bg"/><use transform="matrix(0.05,0,0,0.05,67.85000000000001,0)" xlink:href="#aW"/></g><g id="R"><use transform="matrix(0.05,0,0,0.05,0,0)" xlink:href="#bj"/><use transform="matrix(0.05,0,0,0.05,8.950000000000001,0)" xlink:href="#bd"/><use transform="matrix(0.05,0,0,0.05,18.950000000000003,0)" xlink:href="#bn"/></g><path d="M205 0l-28-72H64L36 0H1l101-248h38L239 0h-34zm-38-99l-47-123c-12 45-31 82-46 123h93" id="bK"/><g id="S"><use transform="matrix(0.05,0,0,0.05,0,0)" xlink:href="#bK"/><use transform="matrix(0.05,0,0,0.05,12,0)" xlink:href="#br"/><use transform="matrix(0.05,0,0,0.05,16.65,0)" xlink:href="#br"/><use transform="matrix(0.05,0,0,0.05,21.65,0)" xlink:href="#bg"/><use transform="matrix(0.05,0,0,0.05,25.599999999999998,0)" xlink:href="#aX"/><use transform="matrix(0.05,0,0,0.05,34.599999999999994,0)" xlink:href="#bm"/><use transform="matrix(0.05,0,0,0.05,44.599999999999994,0)" xlink:href="#aW"/><use transform="matrix(0.05,0,0,0.05,54.599999999999994,0)" xlink:href="#bb"/></g><g id="T"><use transform="matrix(0.05,0,0,0.05,0,0)" xlink:href="#bd"/><use transform="matrix(0.05,0,0,0.05,10,0)" xlink:href="#bb"/><use transform="matrix(0.05,0,0,0.05,15.949999999999998,0)" xlink:href="#ba"/><use transform="matrix(0.05,0,0,0.05,20.95,0)" xlink:href="#bg"/><use transform="matrix(0.05,0,0,0.05,24.9,0)" xlink:href="#aX"/><use transform="matrix(0.05,0,0,0.05,33.9,0)" xlink:href="#bl"/><use transform="matrix(0.05,0,0,0.05,37.85,0)" xlink:href="#aW"/></g><path fill="#333" d="M15-91v-56l181-69v40L49-119l147 57v40" id="bL"/><g id="U"><use transform="matrix(0.04938271604938272,0,0,0.04938271604938272,0,0)" xlink:href="#bL"/><use transform="matrix(0.04938271604938272,0,0,0.04938271604938272,10.370370370370372,0)" xlink:href="#bL"/></g><path fill="#333" d="M185-48c-13 30-37 53-82 52C43 2 14-33 14-96s30-98 90-98c62 0 83 45 84 108H66c0 31 8 55 39 56 18 0 30-7 34-22zm-45-69c5-46-57-63-70-21-2 6-4 13-4 21h74" id="bM"/><path fill="#333" d="M144 0l-44-69L55 0H2l70-98-66-92h53l41 62 40-62h54l-67 91 71 99h-54" id="bN"/><path fill="#333" d="M115-3C79 11 28 4 28-45v-112H4v-33h27l15-45h31v45h36v33H77v99c-1 23 16 31 38 25v30" id="bO"/><path fill="#333" d="M135-194c87-1 58 113 63 194h-50c-7-57 23-157-34-157-59 0-34 97-39 157H25l-1-190h47c2 12-1 28 3 38 12-26 28-41 61-42" id="bP"/><path fill="#333" d="M88-194c31-1 46 15 58 34l-1-101h50l1 261h-48c-2-10 0-23-3-31C134-8 116 4 84 4 32 4 16-41 15-95c0-56 19-97 73-99zm17 164c33 0 40-30 41-66 1-37-9-64-41-64s-38 30-39 65c0 43 13 65 39 65" id="bQ"/><path fill="#333" d="M137-138c1-29-70-34-71-4 15 46 118 7 119 86 1 83-164 76-172 9l43-7c4 19 20 25 44 25 33 8 57-30 24-41C81-84 22-81 20-136c-2-80 154-74 161-7" id="bR"/><g id="V"><use transform="matrix(0.04938271604938272,0,0,0.04938271604938272,0,0)" xlink:href="#bM"/><use transform="matrix(0.04938271604938272,0,0,0.04938271604938272,9.876543209876544,0)" xlink:href="#bN"/><use transform="matrix(0.04938271604938272,0,0,0.04938271604938272,19.75308641975309,0)" xlink:href="#bO"/><use transform="matrix(0.04938271604938272,0,0,0.04938271604938272,25.629629629629633,0)" xlink:href="#bM"/><use transform="matrix(0.04938271604938272,0,0,0.04938271604938272,35.50617283950618,0)" xlink:href="#bP"/><use transform="matrix(0.04938271604938272,0,0,0.04938271604938272,46.320987654320994,0)" xlink:href="#bQ"/><use transform="matrix(0.04938271604938272,0,0,0.04938271604938272,57.135802469135804,0)" xlink:href="#bR"/></g><path fill="#333" d="M15-22v-40l146-57-146-57v-40l181 69v56" id="bS"/><g id="W"><use transform="matrix(0.04938271604938272,0,0,0.04938271604938272,0,0)" xlink:href="#bS"/><use transform="matrix(0.04938271604938272,0,0,0.04938271604938272,10.370370370370372,0)" xlink:href="#bS"/></g><g id="X"><use transform="matrix(0.05,0,0,0.05,0,0)" xlink:href="#bt"/><use transform="matrix(0.05,0,0,0.05,10,0)" xlink:href="#bb"/><use transform="matrix(0.05,0,0,0.05,15.949999999999998,0)" xlink:href="#aY"/><use transform="matrix(0.05,0,0,0.05,25.950000000000003,0)" xlink:href="#br"/><use transform="matrix(0.05,0,0,0.05,30.950000000000003,0)" xlink:href="#bg"/><use transform="matrix(0.05,0,0,0.05,34.9,0)" xlink:href="#bl"/></g><g id="Y"><use transform="matrix(0.05,0,0,0.05,0,0)" xlink:href="#bd"/><use transform="matrix(0.05,0,0,0.05,10,0)" xlink:href="#bG"/><use transform="matrix(0.05,0,0,0.05,20,0)" xlink:href="#ba"/><use transform="matrix(0.05,0,0,0.05,25,0)" xlink:href="#aW"/><use transform="matrix(0.05,0,0,0.05,35,0)" xlink:href="#bG"/><use transform="matrix(0.05,0,0,0.05,45,0)" xlink:href="#bb"/></g><g id="Z"><use transform="matrix(0.05,0,0,0.05,0,0)" xlink:href="#bd"/><use transform="matrix(0.05,0,0,0.05,10,0)" xlink:href="#bG"/><use transform="matrix(0.05,0,0,0.05,20,0)" xlink:href="#ba"/><use transform="matrix(0.05,0,0,0.05,25,0)" xlink:href="#aW"/><use transform="matrix(0.05,0,0,0.05,35,0)" xlink:href="#bG"/><use transform="matrix(0.05,0,0,0.05,45,0)" xlink:href="#bb"/></g><g id="aa"><use transform="matrix(0.05,0,0,0.05,0,0)" xlink:href="#bd"/><use transform="matrix(0.05,0,0,0.05,10,0)" xlink:href="#be"/><use transform="matrix(0.05,0,0,0.05,20,0)" xlink:href="#bf"/><use transform="matrix(0.05,0,0,0.05,34.95,0)" xlink:href="#bg"/><use transform="matrix(0.05,0,0,0.05,38.900000000000006,0)" xlink:href="#aZ"/></g><g id="ab"><use transform="matrix(0.05,0,0,0.05,0,0)" xlink:href="#be"/><use transform="matrix(0.05,0,0,0.05,10,0)" xlink:href="#bd"/><use transform="matrix(0.05,0,0,0.05,20,0)" xlink:href="#bi"/><use transform="matrix(0.05,0,0,0.05,29,0)" xlink:href="#bm"/><use transform="matrix(0.05,0,0,0.05,39,0)" xlink:href="#bH"/><use transform="matrix(0.05,0,0,0.05,49,0)" xlink:href="#aY"/><use transform="matrix(0.05,0,0,0.05,59,0)" xlink:href="#bd"/><use transform="matrix(0.05,0,0,0.05,69,0)" xlink:href="#bb"/><use transform="matrix(0.05,0,0,0.05,74.95,0)" xlink:href="#be"/></g><path d="M143 4C61 4 22-44 18-125c-5-107 100-154 193-111 17 8 29 25 37 43l-32 9c-13-25-37-40-76-40-61 0-88 39-88 99 0 61 29 100 91 101 35 0 62-11 79-27v-45h-74v-28h105v86C228-13 192 4 143 4" id="bT"/><g id="ac"><use transform="matrix(0.05,0,0,0.05,0,0)" xlink:href="#bT"/><use transform="matrix(0.05,0,0,0.05,14,0)" xlink:href="#aW"/><use transform="matrix(0.05,0,0,0.05,24,0)" xlink:href="#bi"/><use transform="matrix(0.05,0,0,0.05,33,0)" xlink:href="#ba"/><use transform="matrix(0.05,0,0,0.05,38,0)" xlink:href="#bg"/><use transform="matrix(0.05,0,0,0.05,41.95,0)" xlink:href="#aY"/><use transform="matrix(0.05,0,0,0.05,51.95,0)" xlink:href="#aZ"/></g><g id="ad"><use transform="matrix(0.05,0,0,0.05,0,0)" xlink:href="#bd"/><use transform="matrix(0.05,0,0,0.05,10,0)" xlink:href="#bb"/><use transform="matrix(0.05,0,0,0.05,15.949999999999998,0)" xlink:href="#ba"/><use transform="matrix(0.05,0,0,0.05,20.95,0)" xlink:href="#bg"/><use transform="matrix(0.05,0,0,0.05,24.9,0)" xlink:href="#aX"/><use transform="matrix(0.05,0,0,0.05,33.9,0)" xlink:href="#bl"/><use transform="matrix(0.05,0,0,0.05,37.85,0)" xlink:href="#aW"/><use transform="matrix(0.05,0,0,0.05,47.85,0)" xlink:href="#bi"/></g><g id="ae"><use transform="matrix(0.05,0,0,0.05,0,0)" xlink:href="#aX"/><use transform="matrix(0.05,0,0,0.05,9,0)" xlink:href="#aY"/><use transform="matrix(0.05,0,0,0.05,19,0)" xlink:href="#bf"/><use transform="matrix(0.05,0,0,0.05,33.95,0)" xlink:href="#bf"/><use transform="matrix(0.05,0,0,0.05,48.900000000000006,0)" xlink:href="#aW"/><use transform="matrix(0.05,0,0,0.05,58.900000000000006,0)" xlink:href="#aZ"/><use transform="matrix(0.05,0,0,0.05,68.9,0)" xlink:href="#ba"/><use transform="matrix(0.05,0,0,0.05,73.9,0)" xlink:href="#bd"/><use transform="matrix(0.05,0,0,0.05,83.9,0)" xlink:href="#bg"/><use transform="matrix(0.05,0,0,0.05,87.85000000000001,0)" xlink:href="#bb"/><use transform="matrix(0.05,0,0,0.05,93.80000000000001,0)" xlink:href="#aW"/><use transform="matrix(0.05,0,0,0.05,103.80000000000001,0)" xlink:href="#bi"/></g><g id="af"><use transform="matrix(0.05,0,0,0.05,0,0)" xlink:href="#bc"/><use transform="matrix(0.05,0,0,0.05,12.950000000000001,0)" xlink:href="#bd"/><use transform="matrix(0.05,0,0,0.05,22.950000000000003,0)" xlink:href="#ba"/><use transform="matrix(0.05,0,0,0.05,27.950000000000003,0)" xlink:href="#bk"/><use transform="matrix(0.05,0,0,0.05,37.95,0)" xlink:href="#bn"/><use transform="matrix(0.05,0,0,0.05,47.95,0)" xlink:href="#aY"/><use transform="matrix(0.05,0,0,0.05,57.95,0)" xlink:href="#bb"/><use transform="matrix(0.05,0,0,0.05,63.900000000000006,0)" xlink:href="#bg"/><use transform="matrix(0.05,0,0,0.05,67.85000000000001,0)" xlink:href="#aW"/><use transform="matrix(0.05,0,0,0.05,77.85000000000001,0)" xlink:href="#bi"/></g><g id="ag"><use transform="matrix(0.05,0,0,0.05,0,0)" xlink:href="#bT"/><use transform="matrix(0.05,0,0,0.05,14,0)" xlink:href="#aW"/><use transform="matrix(0.05,0,0,0.05,24,0)" xlink:href="#bi"/><use transform="matrix(0.05,0,0,0.05,33,0)" xlink:href="#ba"/><use transform="matrix(0.05,0,0,0.05,38,0)" xlink:href="#bg"/><use transform="matrix(0.05,0,0,0.05,41.95,0)" xlink:href="#aY"/><use transform="matrix(0.05,0,0,0.05,51.95,0)" xlink:href="#aZ"/></g><g id="ah"><use transform="matrix(0.05,0,0,0.05,0,0)" xlink:href="#bj"/><use transform="matrix(0.05,0,0,0.05,8.950000000000001,0)" xlink:href="#bd"/><use transform="matrix(0.05,0,0,0.05,18.950000000000003,0)" xlink:href="#bn"/><use transform="matrix(0.05,0,0,0.05,28.950000000000003,0)" xlink:href="#bi"/></g><g id="ai"><use transform="matrix(0.05,0,0,0.05,0,0)" xlink:href="#bq"/><use transform="matrix(0.05,0,0,0.05,12,0)" xlink:href="#bG"/><use transform="matrix(0.05,0,0,0.05,22,0)" xlink:href="#bH"/><use transform="matrix(0.05,0,0,0.05,32,0)" xlink:href="#bl"/><use transform="matrix(0.05,0,0,0.05,35.95,0)" xlink:href="#bg"/><use transform="matrix(0.05,0,0,0.05,39.900000000000006,0)" xlink:href="#aX"/><use transform="matrix(0.05,0,0,0.05,48.900000000000006,0)" xlink:href="#bd"/><use transform="matrix(0.05,0,0,0.05,58.900000000000006,0)" xlink:href="#ba"/><use transform="matrix(0.05,0,0,0.05,63.900000000000006,0)" xlink:href="#bg"/><use transform="matrix(0.05,0,0,0.05,67.85000000000001,0)" xlink:href="#aY"/><use transform="matrix(0.05,0,0,0.05,77.85000000000001,0)" xlink:href="#aZ"/></g><path d="M0 4l72-265h28L28 4H0" id="bU"/><use transform="matrix(0.05,0,0,0.05,0,0)" xlink:href="#bU" id="aj"/><g id="ak"><use transform="matrix(0.05,0,0,0.05,0,0)" xlink:href="#bE"/><use transform="matrix(0.05,0,0,0.05,12.950000000000001,0)" xlink:href="#bk"/><use transform="matrix(0.05,0,0,0.05,22.950000000000003,0)" xlink:href="#bt"/><use transform="matrix(0.05,0,0,0.05,32.95,0)" xlink:href="#bG"/><use transform="matrix(0.05,0,0,0.05,42.95,0)" xlink:href="#bH"/><use transform="matrix(0.05,0,0,0.05,52.95,0)" xlink:href="#bl"/><use transform="matrix(0.05,0,0,0.05,56.900000000000006,0)" xlink:href="#bg"/><use transform="matrix(0.05,0,0,0.05,60.85,0)" xlink:href="#aX"/><use transform="matrix(0.05,0,0,0.05,69.85000000000001,0)" xlink:href="#bd"/><use transform="matrix(0.05,0,0,0.05,79.85000000000001,0)" xlink:href="#ba"/><use transform="matrix(0.05,0,0,0.05,84.85000000000001,0)" xlink:href="#bg"/><use transform="matrix(0.05,0,0,0.05,88.80000000000001,0)" xlink:href="#aY"/><use transform="matrix(0.05,0,0,0.05,98.80000000000001,0)" xlink:href="#aZ"/></g><g id="al"><use transform="matrix(0.05,0,0,0.05,0,0)" xlink:href="#be"/><use transform="matrix(0.05,0,0,0.05,10,0)" xlink:href="#aW"/></g><g id="am"><use transform="matrix(0.05,0,0,0.05,0,0)" xlink:href="#bK"/><use transform="matrix(0.05,0,0,0.05,12,0)" xlink:href="#bb"/><use transform="matrix(0.05,0,0,0.05,17.95,0)" xlink:href="#ba"/><use transform="matrix(0.05,0,0,0.05,22.95,0)" xlink:href="#bg"/><use transform="matrix(0.05,0,0,0.05,26.899999999999995,0)" xlink:href="#aX"/><use transform="matrix(0.05,0,0,0.05,35.9,0)" xlink:href="#bl"/><use transform="matrix(0.05,0,0,0.05,39.85,0)" xlink:href="#aW"/><use transform="matrix(0.05,0,0,0.05,49.85,0)" xlink:href="#bi"/></g><path d="M30 0v-248h33v221h125V0H30" id="bV"/><g id="an"><use transform="matrix(0.05,0,0,0.05,0,0)" xlink:href="#bV"/><use transform="matrix(0.05,0,0,0.05,10,0)" xlink:href="#bg"/><use transform="matrix(0.05,0,0,0.05,13.949999999999998,0)" xlink:href="#bi"/><use transform="matrix(0.05,0,0,0.05,22.95,0)" xlink:href="#ba"/><use transform="matrix(0.05,0,0,0.05,27.950000000000003,0)" xlink:href="#aW"/></g><g id="ao"><use transform="matrix(0.05,0,0,0.05,0,0)" xlink:href="#bq"/><use transform="matrix(0.05,0,0,0.05,12,0)" xlink:href="#bG"/><use transform="matrix(0.05,0,0,0.05,22,0)" xlink:href="#bH"/><use transform="matrix(0.05,0,0,0.05,32,0)" xlink:href="#bl"/><use transform="matrix(0.05,0,0,0.05,35.95,0)" xlink:href="#bg"/><use transform="matrix(0.05,0,0,0.05,39.900000000000006,0)" xlink:href="#aX"/><use transform="matrix(0.05,0,0,0.05,48.900000000000006,0)" xlink:href="#bd"/><use transform="matrix(0.05,0,0,0.05,58.900000000000006,0)" xlink:href="#ba"/><use transform="matrix(0.05,0,0,0.05,63.900000000000006,0)" xlink:href="#bg"/><use transform="matrix(0.05,0,0,0.05,67.85000000000001,0)" xlink:href="#aY"/><use transform="matrix(0.05,0,0,0.05,77.85000000000001,0)" xlink:href="#aZ"/></g><use transform="matrix(0.05,0,0,0.05,0,0)" xlink:href="#bU" id="ap"/><g id="aq"><use transform="matrix(0.05,0,0,0.05,0,0)" xlink:href="#bE"/><use transform="matrix(0.05,0,0,0.05,12.950000000000001,0)" xlink:href="#bk"/><use transform="matrix(0.05,0,0,0.05,22.950000000000003,0)" xlink:href="#bt"/><use transform="matrix(0.05,0,0,0.05,32.95,0)" xlink:href="#bG"/><use transform="matrix(0.05,0,0,0.05,42.95,0)" xlink:href="#bH"/><use transform="matrix(0.05,0,0,0.05,52.95,0)" xlink:href="#bl"/><use transform="matrix(0.05,0,0,0.05,56.900000000000006,0)" xlink:href="#bg"/><use transform="matrix(0.05,0,0,0.05,60.85,0)" xlink:href="#aX"/><use transform="matrix(0.05,0,0,0.05,69.85000000000001,0)" xlink:href="#bd"/><use transform="matrix(0.05,0,0,0.05,79.85000000000001,0)" xlink:href="#ba"/><use transform="matrix(0.05,0,0,0.05,84.85000000000001,0)" xlink:href="#bg"/><use transform="matrix(0.05,0,0,0.05,88.80000000000001,0)" xlink:href="#aY"/><use transform="matrix(0.05,0,0,0.05,98.80000000000001,0)" xlink:href="#aZ"/></g><g id="ar"><use transform="matrix(0.05,0,0,0.05,0,0)" xlink:href="#bc"/><use transform="matrix(0.05,0,0,0.05,12.950000000000001,0)" xlink:href="#bb"/><use transform="matrix(0.05,0,0,0.05,18.900000000000002,0)" xlink:href="#bk"/><use transform="matrix(0.05,0,0,0.05,28.900000000000002,0)" xlink:href="#aW"/><use transform="matrix(0.05,0,0,0.05,38.900000000000006,0)" xlink:href="#bb"/></g><g id="as"><use transform="matrix(0.05,0,0,0.05,0,0)" xlink:href="#bs"/><use transform="matrix(0.05,0,0,0.05,12,0)" xlink:href="#be"/><use transform="matrix(0.05,0,0,0.05,22,0)" xlink:href="#bg"/><use transform="matrix(0.05,0,0,0.05,25.950000000000003,0)" xlink:href="#ba"/><use transform="matrix(0.05,0,0,0.05,30.950000000000003,0)" xlink:href="#aW"/><use transform="matrix(0.05,0,0,0.05,40.95,0)" xlink:href="#bb"/></g><path fill="#333" d="M25-224v-37h50v37H25zM25 0v-190h50V0H25" id="bW"/><path fill="#333" d="M190-63c-7 42-38 67-86 67-59 0-84-38-90-98-12-110 154-137 174-36l-49 2c-2-19-15-32-35-32-30 0-35 28-38 64-6 74 65 87 74 30" id="bX"/><path fill="#333" d="M25 0v-261h50V0H25" id="bY"/><path fill="#333" d="M85 4C-2 5 27-109 22-190h50c7 57-23 150 33 157 60-5 35-97 40-157h50l1 190h-47c-2-12 1-28-3-38-12 25-28 42-61 42" id="bZ"/><g id="at"><use transform="matrix(0.04938271604938272,0,0,0.04938271604938272,0,0)" xlink:href="#bW"/><use transform="matrix(0.04938271604938272,0,0,0.04938271604938272,4.938271604938272,0)" xlink:href="#bP"/><use transform="matrix(0.04938271604938272,0,0,0.04938271604938272,15.753086419753087,0)" xlink:href="#bX"/><use transform="matrix(0.04938271604938272,0,0,0.04938271604938272,25.629629629629633,0)" xlink:href="#bY"/><use transform="matrix(0.04938271604938272,0,0,0.04938271604938272,30.567901234567906,0)" xlink:href="#bZ"/><use transform="matrix(0.04938271604938272,0,0,0.04938271604938272,41.38271604938272,0)" xlink:href="#bQ"/><use transform="matrix(0.04938271604938272,0,0,0.04938271604938272,52.19753086419754,0)" xlink:href="#bM"/></g><path d="M24-231v-30h32v30H24zM-9 49c24 4 33-6 33-30v-209h32V24c2 40-23 58-65 49V49" id="ca"/><g id="au"><use transform="matrix(0.05,0,0,0.05,0,0)" xlink:href="#bK"/><use transform="matrix(0.05,0,0,0.05,12,0)" xlink:href="#ca"/><use transform="matrix(0.05,0,0,0.05,15.949999999999998,0)" xlink:href="#aY"/><use transform="matrix(0.05,0,0,0.05,25.950000000000003,0)" xlink:href="#bG"/><use transform="matrix(0.05,0,0,0.05,35.95,0)" xlink:href="#ba"/><use transform="matrix(0.05,0,0,0.05,40.95,0)" xlink:href="#aW"/><use transform="matrix(0.05,0,0,0.05,50.95,0)" xlink:href="#bb"/></g><g id="av"><use transform="matrix(0.05,0,0,0.05,0,0)" xlink:href="#aY"/><use transform="matrix(0.05,0,0,0.05,10,0)" xlink:href="#bG"/></g><g id="aw"><use transform="matrix(0.05,0,0,0.05,0,0)" xlink:href="#bf"/><use transform="matrix(0.05,0,0,0.05,14.950000000000001,0)" xlink:href="#aY"/><use transform="matrix(0.05,0,0,0.05,24.950000000000003,0)" xlink:href="#be"/><use transform="matrix(0.05,0,0,0.05,34.95,0)" xlink:href="#bg"/><use transform="matrix(0.05,0,0,0.05,38.900000000000006,0)" xlink:href="#br"/><use transform="matrix(0.05,0,0,0.05,43.900000000000006,0)" xlink:href="#bg"/><use transform="matrix(0.05,0,0,0.05,47.85000000000001,0)" xlink:href="#aW"/><use transform="matrix(0.05,0,0,0.05,57.85,0)" xlink:href="#bb"/></g><g id="ax"><use transform="matrix(0.05,0,0,0.05,0,0)" xlink:href="#bG"/><use transform="matrix(0.05,0,0,0.05,10,0)" xlink:href="#aZ"/><use transform="matrix(0.05,0,0,0.05,20,0)" xlink:href="#aW"/></g><g id="ay"><use transform="matrix(0.05,0,0,0.05,0,0)" xlink:href="#aX"/><use transform="matrix(0.05,0,0,0.05,9,0)" xlink:href="#bd"/><use transform="matrix(0.05,0,0,0.05,19,0)" xlink:href="#ba"/><use transform="matrix(0.05,0,0,0.05,24,0)" xlink:href="#bk"/><use transform="matrix(0.05,0,0,0.05,34,0)" xlink:href="#bn"/><use transform="matrix(0.05,0,0,0.05,44,0)" xlink:href="#aY"/><use transform="matrix(0.05,0,0,0.05,54,0)" xlink:href="#bb"/><use transform="matrix(0.05,0,0,0.05,59.95,0)" xlink:href="#bg"/><use transform="matrix(0.05,0,0,0.05,63.900000000000006,0)" xlink:href="#aW"/></g><g id="az"><use transform="matrix(0.05,0,0,0.05,0,0)" xlink:href="#bG"/><use transform="matrix(0.05,0,0,0.05,10,0)" xlink:href="#aZ"/></g><g id="aA"><use transform="matrix(0.05,0,0,0.05,0,0)" xlink:href="#ba"/><use transform="matrix(0.05,0,0,0.05,5,0)" xlink:href="#bd"/><use transform="matrix(0.05,0,0,0.05,15,0)" xlink:href="#bn"/></g></defs></g></svg>