<svg xmlns="http://www.w3.org/2000/svg" xmlns:xlink="http://www.w3.org/1999/xlink" xmlns:lucid="lucid" width="1610.23" height="1120"><g transform="translate(-9.771604938271594 -100)" lucid:page-tab-id="0_0"><path d="M0 0h1870.87v1322.84H0z" fill="#fff"/><path d="M200 126a6 6 0 0 1 6-6h1388a6 6 0 0 1 6 6v1068a6 6 0 0 1-6 6H206a6 6 0 0 1-6-6z" stroke="#5e5e5e" stroke-width="3" fill-opacity="0"/><use xlink:href="#a" transform="matrix(1,0,0,1,208,128) translate(621.783950617284 17.77777777777778)"/><use xlink:href="#b" transform="matrix(1,0,0,1,208,128) translate(701.9074074074074 17.77777777777778)"/><use xlink:href="#c" transform="matrix(1,0,0,1,208,128) translate(715.4259259259259 17.77777777777778)"/><path d="M99.75 591.17c0 10.9-8.84 19.75-19.75 19.75-10.9 0-19.75-8.84-19.75-19.75 0-10.9 8.84-19.75 19.75-19.75 10.9 0 19.75 8.84 19.75 19.75z" stroke="#5e5e5e" stroke-width="3" fill="#fff"/><path d="M80 610.92v49.3a20.7 20.7 0 0 0 3.2 11.07L120 729.4m-40-63.2l-40 63.2m0-98.75h80" stroke="#5e5e5e" stroke-width="3" fill="none"/><path d="M40 577.42a6 6 0 0 1 6-6h68a6 6 0 0 1 6 6v168a6 6 0 0 1-6 6H46a6 6 0 0 1-6-6z" fill="none"/><use xlink:href="#d" transform="matrix(1,0,0,1,-40,729.4173228346456) translate(70.7716049382716 17.77777777777778)"/><path d="M560 796.25c0 33.14-35.82 60-80 60s-80-26.86-80-60 35.82-60 80-60 80 26.86 80 60z" stroke="#5e5e5e" stroke-width="3" fill="#fff"/><use xlink:href="#e" transform="matrix(1,0,0,1,400,736.25) translate(27.029999999999994 63.15)"/><use xlink:href="#f" transform="matrix(1,0,0,1,400,736.25) translate(54.029999999999994 63.15)"/><path d="M560 268.75c0 33.14-35.82 60-80 60s-80-26.86-80-60 35.82-60 80-60 80 26.86 80 60z" stroke="#5e5e5e" stroke-width="3" fill="#fff"/><use xlink:href="#g" transform="matrix(1,0,0,1,400,208.75) translate(19.654999999999994 63.15)"/><use xlink:href="#h" transform="matrix(1,0,0,1,400,208.75) translate(55.55499999999999 63.15)"/><use xlink:href="#i" transform="matrix(1,0,0,1,400,208.75) translate(83.505 63.15)"/><path d="M960 900c0 33.14-35.82 60-80 60s-80-26.86-80-60 35.82-60 80-60 80 26.86 80 60z" stroke="#5e5e5e" stroke-width="3" fill="#fff"/><use xlink:href="#g" transform="matrix(1,0,0,1,800,840) translate(33.154999999999994 63.15)"/><use xlink:href="#j" transform="matrix(1,0,0,1,800,840) translate(69.05499999999999 63.15)"/><use xlink:href="#k" transform="matrix(1,0,0,1,800,840) translate(88.005 63.15)"/><path d="M980 540c0 33.14-35.82 60-80 60s-80-26.86-80-60 35.82-60 80-60 80 26.86 80 60z" stroke="#5e5e5e" stroke-width="3" fill="#fff"/><use xlink:href="#l" transform="matrix(1,0,0,1,820,480) translate(41.529999999999994 51.9)"/><use xlink:href="#m" transform="matrix(1,0,0,1,820,480) translate(98.48 51.9)"/><use xlink:href="#n" transform="matrix(1,0,0,1,820,480) translate(28.10499999999999 73.5)"/><path d="M1360 780c0 33.14-35.82 60-80 60s-80-26.86-80-60 35.82-60 80-60 80 26.86 80 60z" stroke="#5e5e5e" stroke-width="3" fill="#fff"/><use xlink:href="#g" transform="matrix(1,0,0,1,1200,720) translate(50.58 40.65)"/><use xlink:href="#o" transform="matrix(1,0,0,1,1200,720) translate(86.47999999999999 40.65)"/><use xlink:href="#p" transform="matrix(1,0,0,1,1200,720) translate(49.029999999999994 62.25)"/><use xlink:href="#q" transform="matrix(1,0,0,1,1200,720) translate(23.605 83.85000000000001)"/><path d="M560 1060c0 33.14-35.82 60-80 60s-80-26.86-80-60 35.82-60 80-60 80 26.86 80 60z" stroke="#5e5e5e" stroke-width="3" fill="#fff"/><use xlink:href="#r" transform="matrix(1,0,0,1,400,1000) translate(14.104999999999999 63.15)"/><use xlink:href="#s" transform="matrix(1,0,0,1,400,1000) translate(97.00500000000001 63.15)"/><path d="M560 532.5c0 33.14-35.82 60-80 60s-80-26.86-80-60 35.82-60 80-60 80 26.86 80 60z" stroke="#5e5e5e" stroke-width="3" fill="#fff"/><use xlink:href="#t" transform="matrix(1,0,0,1,400,472.5) translate(64.555 51.9)"/><use xlink:href="#q" transform="matrix(1,0,0,1,400,472.5) translate(23.60499999999999 73.5)"/><path d="M120.94 629.1l276.62-96.27" stroke="#5e5e5e" stroke-width="2" fill="none"/><path d="M121.3 630.02l-1.3.46v-1.3h-2.32l2.96-1.04zM398.5 532.48v.43l.03.65-.67.23-.66-1.9 1.33-.45z" stroke="#5e5e5e" stroke-width=".05" fill="#5e5e5e"/><path d="M120.6 628.63l277.3-359.1" stroke="#5e5e5e" stroke-width="2" fill="none"/><path d="M118.96 632.4l-.3-.23h.48zm2.46-3.18l-1.42 1.83v-1.88h-1.07l.9-1.18zM398.5 268.73v.43l.04.9-1.46-1.1 1.47-1.9z" stroke="#5e5e5e" stroke-width=".05" fill="#5e5e5e"/><path d="M120.54 630.26l277.42 428.9" stroke="#5e5e5e" stroke-width="2" fill="none"/><path d="M121.4 629.74l-1.4.9v-1.47h-1.35l-1.12-1.73 1.68-1.1zM398.5 1059.98v.43l.06 1.54-1.46-2.26 1.44-.93z" stroke="#5e5e5e" stroke-width=".05" fill="#5e5e5e"/><path d="M120.86 629.93l276.78 165.8" stroke="#5e5e5e" stroke-width="2" fill="none"/><path d="M121.4 629.1l-1.03 1.7-.37-.22v-1.4h-2.36l-.73-.45 1.04-1.7zM398.54 795.1l-.04 1.13v.43l.03.77-1.42-.85 1.03-1.72zM806.5 525.88l-1.45 1.38-2.77-2.92 1.45-1.38zm-8.3-8.76l-1.46 1.37-5.53-5.85 1.46-1.38zm-11.08-11.7l-1.45 1.4-5.53-5.86 1.45-1.37zm-11.07-11.68l-1.45 1.38-5.54-5.84 1.46-1.38zm-11.07-11.68l-1.45 1.37-5.54-5.84 1.44-1.38zm-11.07-11.7l-1.44 1.4-5.54-5.86 1.45-1.37zm-11.06-11.67l-1.46 1.36-5.53-5.84 1.45-1.38zM731.76 447l-1.45 1.38-5.52-5.85 1.45-1.37zm-11.07-11.7l-1.46 1.4-5.54-5.85 1.46-1.38zm-11.08-11.67l-1.45 1.37-5.54-5.84 1.45-1.38zm-33.22-35.06l-1.45 1.38-5.54-5.85 1.47-1.37zm-11.07-11.7l-1.45 1.4-5.54-5.85 1.45-1.38zm-11.07-11.67l-1.45 1.37-5.53-5.84 1.45-1.38zm-11.07-11.7l-1.47 1.4-5.53-5.85 1.45-1.38zm-11.1-11.67l-1.44 1.37-5.53-5.84 1.45-1.38zm-11.06-11.7l-1.45 1.38-5.55-5.83 1.46-1.37zm-11.07-11.68l-1.45 1.38-5.54-5.84 1.45-1.4zm-11.07-11.68l-1.45 1.37-5.54-5.84 1.46-1.38zm-11.07-11.7l-1.46 1.4-5.53-5.86 1.45-1.36zm-11.08-11.67l-1.45 1.37-5.53-5.84 1.45-1.38zm-11.07-11.7l-1.45 1.38-2.77-2.92 1.45-1.37z" stroke="#5e5e5e" stroke-width=".05" fill="#5e5e5e"/><path d="M562.93 268.8l-1.45 1.38.02-1.4v-.44l-.04-1.1z" fill="#5e5e5e"/><path d="M562.97 268.8l-1.52 1.44.02-1.47v-.43l-.04-1.16zm-1.45-.46v1.78l1.38-1.3-1.42-1.5z" stroke="#5e5e5e" stroke-width=".05" fill="#5e5e5e"/><path d="M816.27 537.65l-13.17-7.17 6.73-6.37z" fill="#5e5e5e"/><path d="M818.5 540l-17.1-9.3 8.74-8.27zm-13.72-9.74l9.27 5.04-4.53-9.52z" stroke="#5e5e5e" stroke-width=".05" fill="#5e5e5e"/><use xlink:href="#u" transform="matrix(1,0,0,1,630.8148148148148,393.7083333333333) translate(0.005000000000002558 14.222222222222223)"/><use xlink:href="#v" transform="matrix(1,0,0,1,630.8148148148148,393.7083333333333) translate(25.68401234567902 14.222222222222223)"/><use xlink:href="#w" transform="matrix(1,0,0,1,630.8148148148148,393.7083333333333) translate(97.63462962962964 14.222222222222223)"/><path d="M578.2 781l-2.9 2.9-1.4-1.42 2.9-2.9zm11.58-11.54l-5.8 5.77-1.4-1.4 5.8-5.8zm11.58-11.55l-5.8 5.8-1.4-1.43 5.8-5.77zm11.6-11.53l-5.8 5.77-1.42-1.4 5.8-5.8zm11.56-11.55l-5.78 5.77-1.42-1.42 5.8-5.77zm11.6-11.55l-5.8 5.78-1.42-1.42 5.8-5.77zm11.57-11.54l-5.8 5.77-1.42-1.4 5.8-5.8zm11.57-11.55l-5.8 5.77-1.4-1.4 5.78-5.78zm11.58-11.55l-5.8 5.78-1.4-1.4 5.78-5.78zm5.8-5.77l-1.42-1.4 2.66-2.67h2.82zM705.58 654l-3.5 3.46h-2.82l4.9-4.88zm11.57-11.55l-5.8 5.77-1.4-1.42 5.8-5.77zm11.58-11.55l-5.8 5.77-1.4-1.4 5.8-5.78zm11.58-11.55l-5.8 5.78-1.4-1.42 5.8-5.76zm11.58-11.54l-5.78 5.78-1.4-1.42 5.78-5.77zm11.6-11.54l-5.8 5.77-1.4-1.4 5.78-5.78zm11.57-11.55l-5.8 5.8-1.4-1.43 5.8-5.77zm11.58-11.53l-5.8 5.77-1.4-1.42 5.8-5.77zm11.58-11.55l-5.8 5.77-1.4-1.42 5.8-5.77zm11.58-11.55l-5.78 5.78-1.4-1.42 5.78-5.77zm8.7-8.66l-2.9 2.9-1.4-1.4 2.9-2.9z" stroke="#5e5e5e" stroke-width=".05" fill="#5e5e5e"/><path d="M577.17 787.17l-13.38 6.8 6.82-13.36z" fill="#5e5e5e"/><path d="M578.85 787.44l-17.35 8.8 8.86-17.3zm-12.77 4.24l9.4-4.77-4.6-4.6z" stroke="#5e5e5e" stroke-width=".05" fill="#5e5e5e"/><path d="M818.5 539.98v.43l.04.97-1.47-1.35 1.47-1.48z" fill="#5e5e5e"/><path d="M818.52 539.98v.43l.05 1.03-1.54-1.4 1.54-1.55zm-1.42.03l1.4 1.3-.02-.9V540l.04-1.38z" stroke="#5e5e5e" stroke-width=".05" fill="#5e5e5e"/><use xlink:href="#u" transform="matrix(1,0,0,1,633.283950617284,657.4583333333334) translate(0.005000000000002558 14.222222222222223)"/><use xlink:href="#x" transform="matrix(1,0,0,1,633.283950617284,657.4583333333334) translate(25.68401234567902 14.222222222222223)"/><use xlink:href="#w" transform="matrix(1,0,0,1,633.283950617284,657.4583333333334) translate(92.69635802469136 14.222222222222223)"/><path d="M798 898.68l-.82 1.84-3.65-1.6.8-1.84zm-10.97-4.8l-.8 1.84-7.3-3.2.8-1.83zm-14.6-6.4l-.8 1.84-7.32-3.2.82-1.83zm-14.62-6.38l-.8 1.83-7.3-3.2.8-1.83zm-14.6-6.4l-.8 1.83-7.3-3.2.8-1.83zm-14.6-6.4l-.8 1.84-7.3-3.2.8-1.83zm-14.62-6.4l-.8 1.84-7.3-3.2.76-1.75h.22zm-58.43-25.57l-.5 1.13h-1.9l-5.7-2.5.8-1.83zm-14.6-6.4l-.8 1.84-7.32-3.2.8-1.83zm-14.62-6.4l-.8 1.84-7.3-3.2.8-1.83zm-14.6-6.4l-.8 1.85-7.32-3.2.82-1.83zm-14.62-6.38l-.8 1.83-7.3-3.2.8-1.83zm-14.6-6.4l-.8 1.83-3.65-1.6.8-1.83z" stroke="#5e5e5e" stroke-width=".05" fill="#5e5e5e"/><path d="M798.53 898.92l-.03 1.06v.43l.03.7-1.37-.6.8-1.83z" fill="#5e5e5e"/><path d="M798.56 898.9l-.03 1.08v.43l.03.74-1.43-.62.82-1.88zm-1.37 1.6l1.3.57-.02-.66V900l.03-1.04-.53-.23z" stroke="#5e5e5e" stroke-width=".05" fill="#5e5e5e"/><path d="M579.4 799.02l-3.73 8.5-11.2-9.97z" fill="#5e5e5e"/><path d="M580.86 798.16l-4.82 11.02-14.54-12.93zm-5.55 7.7l2.62-5.98-10.5-1.03z" stroke="#5e5e5e" stroke-width=".05" fill="#5e5e5e"/><g><use xlink:href="#u" transform="matrix(1,0,0,1,623.283950617284,837.4583333333334) translate(0.005000000000002558 14.222222222222223)"/><use xlink:href="#x" transform="matrix(1,0,0,1,623.283950617284,837.4583333333334) translate(25.68401234567902 14.222222222222223)"/><use xlink:href="#w" transform="matrix(1,0,0,1,623.283950617284,837.4583333333334) translate(92.69635802469136 14.222222222222223)"/></g><path d="M982.12 890.68l-3.66 1.85-.9-1.78 3.66-1.85zm14.64-7.4l-7.32 3.7-.9-1.8 7.32-3.7zm14.64-7.42l-7.32 3.7-.9-1.78 7.32-3.7zm14.64-7.42l-7.32 3.7-.9-1.77 7.3-3.7zm14.64-7.4l-7.32 3.7-.9-1.8 7.32-3.7zm14.64-7.42l-7.32 3.7-.9-1.78 7.32-3.7zm58.56-29.65l-7.32 3.7-.9-1.78 7.32-3.72zm14.64-7.42l-7.32 3.7-.9-1.77 7.32-3.7zm14.64-7.4l-7.32 3.7-.9-1.8 7.32-3.7zm14.64-7.42l-7.32 3.7-.9-1.78 7.32-3.7zm14.64-7.4l-7.32 3.7-.9-1.8 7.32-3.7zm14.64-7.43l-7.32 3.7-.9-1.77 7.32-3.7zm10.98-5.56l-3.66 1.86-.9-1.8 3.66-1.84z" stroke="#5e5e5e" stroke-width=".05" fill="#5e5e5e"/><path d="M979.2 896.23l-14.8 2.3L975 887.97z" fill="#5e5e5e"/><path d="M980.72 897l-19.22 3 13.8-13.72zm-13.45.08l10.42-1.63-2.95-5.8z" stroke="#5e5e5e" stroke-width=".05" fill="#5e5e5e"/><path d="M1198.5 779.98v.43l.03.7-.5.25-.9-1.78 1.4-.7z" fill="#5e5e5e"/><path d="M1198.53 779.98v.43l.03.72-.53.27-.93-1.84 1.46-.74zm-1.36-.4l.88 1.74.45-.23-.02-.7V780l.03-1.08z" stroke="#5e5e5e" stroke-width=".05" fill="#5e5e5e"/><g><use xlink:href="#u" transform="matrix(1,0,0,1,1020.8148148148148,829.3333333333334) translate(0.005000000000002558 14.222222222222223)"/><use xlink:href="#v" transform="matrix(1,0,0,1,1020.8148148148148,829.3333333333334) translate(25.68401234567902 14.222222222222223)"/><use xlink:href="#w" transform="matrix(1,0,0,1,1020.8148148148148,829.3333333333334) translate(97.63462962962964 14.222222222222223)"/></g><path d="M1362 1020c0 33.14-35.82 60-80 60s-80-26.86-80-60 35.82-60 80-60 80 26.86 80 60z" stroke="#5e5e5e" stroke-width="3" fill="#fff"/><g><use xlink:href="#y" transform="matrix(1,0,0,1,1202,960) translate(15.579999999999993 51.9)"/><use xlink:href="#z" transform="matrix(1,0,0,1,1202,960) translate(89.48 51.9)"/><use xlink:href="#A" transform="matrix(1,0,0,1,1202,960) translate(124.43 51.9)"/><use xlink:href="#B" transform="matrix(1,0,0,1,1202,960) translate(56.005 73.5)"/></g><path d="M1200.06 1018.66l-.9 1.8-3.7-1.87.9-1.8zm-11.08-5.56l-.9 1.78-7.4-3.7.9-1.8zm-14.78-7.42l-.9 1.8-7.38-3.72.9-1.8zm-14.77-7.42l-.9 1.8-7.38-3.72.9-1.8zm-14.77-7.4l-.9 1.77-7.38-3.7.9-1.8zm-14.77-7.43l-.9 1.8-7.4-3.72.9-1.78zM1115.1 976l-.9 1.8-7.38-3.7.9-1.8zm-59.1-29.65l-.88 1.78-7.4-3.7.9-1.8zm-14.76-7.42l-.9 1.8-7.38-3.72.9-1.78zm-14.77-7.42l-.9 1.8-7.4-3.7.9-1.8zm-14.78-7.4l-.9 1.78-7.38-3.7.9-1.8zm-14.77-7.42l-.9 1.8-7.38-3.72.9-1.8zm-14.77-7.42l-.9 1.8-3.7-1.86.9-1.8z" stroke="#5e5e5e" stroke-width=".05" fill="#5e5e5e"/><path d="M979.22 903.7l-4.16 8.3-10.67-10.55z" fill="#5e5e5e"/><path d="M980.73 902.93l-5.4 10.74L961.5 900zm-5.95 7.4l2.93-5.84-10.42-1.6z" stroke="#5e5e5e" stroke-width=".05" fill="#5e5e5e"/><path d="M1200.53 1018.9l-.03 1.08v.43l.03.73-1.4-.7.9-1.78z" fill="#5e5e5e"/><path d="M1200.56 1018.88l-.03 1.1v.43l.03.77-1.46-.72.92-1.84zm-1.4 1.54l1.34.67-.02-.7v-.42l.03-1.07-.46-.22z" stroke="#5e5e5e" stroke-width=".05" fill="#5e5e5e"/><g><use xlink:href="#u" transform="matrix(1,0,0,1,1021.8148148148148,949.3333333333334) translate(0.005000000000002558 14.222222222222223)"/><use xlink:href="#v" transform="matrix(1,0,0,1,1021.8148148148148,949.3333333333334) translate(25.68401234567902 14.222222222222223)"/><use xlink:href="#w" transform="matrix(1,0,0,1,1021.8148148148148,949.3333333333334) translate(97.63462962962964 14.222222222222223)"/></g><defs><path fill="#333" d="M240 0l2-218c-23 76-54 145-80 218h-23L58-218 59 0H30v-248h44l77 211c21-75 51-140 76-211h43V0h-30" id="C"/><path fill="#333" d="M179-190L93 31C79 59 56 82 12 73V49c39 6 53-20 64-50L1-190h34L92-34l54-156h33" id="D"/><path fill="#333" d="M160-131c35 5 61 23 61 61C221 17 115-2 30 0v-248c76 3 177-17 177 60 0 33-19 50-47 57zm-97-11c50-1 110 9 110-42 0-47-63-36-110-37v79zm0 115c55-2 124 14 124-45 0-56-70-42-124-44v89" id="E"/><path fill="#333" d="M24 0v-261h32V0H24" id="F"/><path fill="#333" d="M100-194c62-1 85 37 85 99 1 63-27 99-86 99S16-35 15-95c0-66 28-99 85-99zM99-20c44 1 53-31 53-75 0-43-8-75-51-75s-53 32-53 75 10 74 51 75" id="G"/><path fill="#333" d="M177-190C167-65 218 103 67 71c-23-6-38-20-44-43l32-5c15 47 100 32 89-28v-30C133-14 115 1 83 1 29 1 15-40 15-95c0-56 16-97 71-98 29-1 48 16 59 35 1-10 0-23 2-32h30zM94-22c36 0 50-32 50-73 0-42-14-75-50-75-39 0-46 34-46 75s6 73 46 73" id="H"/><g id="a"><use transform="matrix(0.06172839506172839,0,0,0.06172839506172839,0,0)" xlink:href="#C"/><use transform="matrix(0.06172839506172839,0,0,0.06172839506172839,18.456790123456788,0)" xlink:href="#D"/><use transform="matrix(0.06172839506172839,0,0,0.06172839506172839,29.5679012345679,0)" xlink:href="#E"/><use transform="matrix(0.06172839506172839,0,0,0.06172839506172839,44.38271604938271,0)" xlink:href="#F"/><use transform="matrix(0.06172839506172839,0,0,0.06172839506172839,49.25925925925925,0)" xlink:href="#G"/><use transform="matrix(0.06172839506172839,0,0,0.06172839506172839,61.60493827160493,0)" xlink:href="#H"/></g><path fill="#333" d="M16-82v-28h88v28H16" id="I"/><use transform="matrix(0.06172839506172839,0,0,0.06172839506172839,0,0)" xlink:href="#I" id="b"/><path fill="#333" d="M232-93c-1 65-40 97-104 97C67 4 28-28 28-90v-158h33c8 89-33 224 67 224 102 0 64-133 71-224h33v155" id="J"/><path fill="#333" d="M135-143c-3-34-86-38-87 0 15 53 115 12 119 90S17 21 10-45l28-5c4 36 97 45 98 0-10-56-113-15-118-90-4-57 82-63 122-42 12 7 21 19 24 35" id="K"/><path fill="#333" d="M100-194c63 0 86 42 84 106H49c0 40 14 67 53 68 26 1 43-12 49-29l28 8c-11 28-37 45-77 45C44 4 14-33 15-96c1-61 26-98 85-98zm52 81c6-60-76-77-97-28-3 7-6 17-6 28h103" id="L"/><path fill="#333" d="M114-163C36-179 61-72 57 0H25l-1-190h30c1 12-1 29 2 39 6-27 23-49 58-41v29" id="M"/><g id="c"><use transform="matrix(0.06172839506172839,0,0,0.06172839506172839,0,0)" xlink:href="#J"/><use transform="matrix(0.06172839506172839,0,0,0.06172839506172839,15.987654320987653,0)" xlink:href="#K"/><use transform="matrix(0.06172839506172839,0,0,0.06172839506172839,27.098765432098766,0)" xlink:href="#L"/><use transform="matrix(0.06172839506172839,0,0,0.06172839506172839,39.44444444444444,0)" xlink:href="#M"/></g><path fill="#333" d="M59-47c-2 24 18 29 38 22v24C64 9 27 4 27-40v-127H5v-23h24l9-43h21v43h35v23H59v120" id="N"/><path fill="#333" d="M24-231v-30h32v30H24zM24 0v-190h32V0H24" id="O"/><path fill="#333" d="M141-36C126-15 110 5 73 4 37 3 15-17 15-53c-1-64 63-63 125-63 3-35-9-54-41-54-24 1-41 7-42 31l-33-3c5-37 33-52 76-52 45 0 72 20 72 64v82c-1 20 7 32 28 27v20c-31 9-61-2-59-35zM48-53c0 20 12 33 32 33 41-3 63-29 60-74-43 2-92-5-92 41" id="P"/><path fill="#333" d="M84 4C-5 8 30-112 23-190h32v120c0 31 7 50 39 49 72-2 45-101 50-169h31l1 190h-30c-1-10 1-25-2-33-11 22-28 36-60 37" id="Q"/><g id="d"><use transform="matrix(0.06172839506172839,0,0,0.06172839506172839,0,0)" xlink:href="#J"/><use transform="matrix(0.06172839506172839,0,0,0.06172839506172839,15.987654320987653,0)" xlink:href="#N"/><use transform="matrix(0.06172839506172839,0,0,0.06172839506172839,22.160493827160494,0)" xlink:href="#O"/><use transform="matrix(0.06172839506172839,0,0,0.06172839506172839,27.037037037037038,0)" xlink:href="#F"/><use transform="matrix(0.06172839506172839,0,0,0.06172839506172839,31.913580246913586,0)" xlink:href="#O"/><use transform="matrix(0.06172839506172839,0,0,0.06172839506172839,36.79012345679013,0)" xlink:href="#K"/><use transform="matrix(0.06172839506172839,0,0,0.06172839506172839,47.90123456790124,0)" xlink:href="#P"/><use transform="matrix(0.06172839506172839,0,0,0.06172839506172839,60.24691358024692,0)" xlink:href="#N"/><use transform="matrix(0.06172839506172839,0,0,0.06172839506172839,66.41975308641976,0)" xlink:href="#L"/><use transform="matrix(0.06172839506172839,0,0,0.06172839506172839,78.76543209876544,0)" xlink:href="#Q"/><use transform="matrix(0.06172839506172839,0,0,0.06172839506172839,91.11111111111113,0)" xlink:href="#M"/></g><path d="M185-189c-5-48-123-54-124 2 14 75 158 14 163 119 3 78-121 87-175 55-17-10-28-26-33-46l33-7c5 56 141 63 141-1 0-78-155-14-162-118-5-82 145-84 179-34 5 7 8 16 11 25" id="R"/><path d="M100-194c63 0 86 42 84 106H49c0 40 14 67 53 68 26 1 43-12 49-29l28 8c-11 28-37 45-77 45C44 4 14-33 15-96c1-61 26-98 85-98zm52 81c6-60-76-77-97-28-3 7-6 17-6 28h103" id="S"/><g id="e"><use transform="matrix(0.05,0,0,0.05,0,0)" xlink:href="#R"/><use transform="matrix(0.05,0,0,0.05,12,0)" xlink:href="#S"/></g><path d="M96-169c-40 0-48 33-48 73s9 75 48 75c24 0 41-14 43-38l32 2c-6 37-31 61-74 61-59 0-76-41-82-99-10-93 101-131 147-64 4 7 5 14 7 22l-32 3c-4-21-16-35-41-35" id="T"/><path d="M100-194c62-1 85 37 85 99 1 63-27 99-86 99S16-35 15-95c0-66 28-99 85-99zM99-20c44 1 53-31 53-75 0-43-8-75-51-75s-53 32-53 75 10 74 51 75" id="U"/><path d="M117-194c89-4 53 116 60 194h-32v-121c0-31-8-49-39-48C34-167 62-67 57 0H25l-1-190h30c1 10-1 24 2 32 11-22 29-35 61-36" id="V"/><path d="M59-47c-2 24 18 29 38 22v24C64 9 27 4 27-40v-127H5v-23h24l9-43h21v43h35v23H59v120" id="W"/><path d="M114-163C36-179 61-72 57 0H25l-1-190h30c1 12-1 29 2 39 6-27 23-49 58-41v29" id="X"/><g id="f"><use transform="matrix(0.05,0,0,0.05,0,0)" xlink:href="#T"/><use transform="matrix(0.05,0,0,0.05,9,0)" xlink:href="#U"/><use transform="matrix(0.05,0,0,0.05,19,0)" xlink:href="#V"/><use transform="matrix(0.05,0,0,0.05,29,0)" xlink:href="#V"/><use transform="matrix(0.05,0,0,0.05,39,0)" xlink:href="#S"/><use transform="matrix(0.05,0,0,0.05,49,0)" xlink:href="#T"/><use transform="matrix(0.05,0,0,0.05,58,0)" xlink:href="#W"/><use transform="matrix(0.05,0,0,0.05,63,0)" xlink:href="#S"/><use transform="matrix(0.05,0,0,0.05,73,0)" xlink:href="#X"/></g><path d="M137 0h-34L2-248h35l83 218 83-218h36" id="Y"/><path d="M24-231v-30h32v30H24zM24 0v-190h32V0H24" id="Z"/><g id="g"><use transform="matrix(0.05,0,0,0.05,0,0)" xlink:href="#Y"/><use transform="matrix(0.05,0,0,0.05,11,0)" xlink:href="#U"/><use transform="matrix(0.05,0,0,0.05,21,0)" xlink:href="#Z"/><use transform="matrix(0.05,0,0,0.05,24.95,0)" xlink:href="#X"/></g><path d="M24 0v-261h32V0H24" id="aa"/><path d="M135-143c-3-34-86-38-87 0 15 53 115 12 119 90S17 21 10-45l28-5c4 36 97 45 98 0-10-56-113-15-118-90-4-57 82-63 122-42 12 7 21 19 24 35" id="ab"/><g id="h"><use transform="matrix(0.05,0,0,0.05,0,0)" xlink:href="#aa"/><use transform="matrix(0.05,0,0,0.05,3.95,0)" xlink:href="#S"/><use transform="matrix(0.05,0,0,0.05,13.949999999999998,0)" xlink:href="#ab"/></g><path d="M141-36C126-15 110 5 73 4 37 3 15-17 15-53c-1-64 63-63 125-63 3-35-9-54-41-54-24 1-41 7-42 31l-33-3c5-37 33-52 76-52 45 0 72 20 72 64v82c-1 20 7 32 28 27v20c-31 9-61-2-59-35zM48-53c0 20 12 33 32 33 41-3 63-29 60-74-43 2-92-5-92 41" id="ac"/><g id="i"><use transform="matrix(0.05,0,0,0.05,0,0)" xlink:href="#ac"/><use transform="matrix(0.05,0,0,0.05,10,0)" xlink:href="#X"/><use transform="matrix(0.05,0,0,0.05,15.949999999999998,0)" xlink:href="#W"/><use transform="matrix(0.05,0,0,0.05,20.95,0)" xlink:href="#Z"/><use transform="matrix(0.05,0,0,0.05,24.9,0)" xlink:href="#T"/><use transform="matrix(0.05,0,0,0.05,33.9,0)" xlink:href="#aa"/><use transform="matrix(0.05,0,0,0.05,37.85,0)" xlink:href="#S"/><use transform="matrix(0.05,0,0,0.05,47.85,0)" xlink:href="#ab"/></g><g id="j"><use transform="matrix(0.05,0,0,0.05,0,0)" xlink:href="#aa"/><use transform="matrix(0.05,0,0,0.05,3.95,0)" xlink:href="#S"/></g><path d="M115-194c55 1 70 41 70 98S169 2 115 4C84 4 66-9 55-30l1 105H24l-1-265h31l2 30c10-21 28-34 59-34zm-8 174c40 0 45-34 45-75s-6-73-45-74c-42 0-51 32-51 76 0 43 10 73 51 73" id="ad"/><path d="M101-234c-31-9-42 10-38 44h38v23H63V0H32v-167H5v-23h27c-7-52 17-82 69-68v24" id="ae"/><g id="k"><use transform="matrix(0.05,0,0,0.05,0,0)" xlink:href="#ad"/><use transform="matrix(0.05,0,0,0.05,10,0)" xlink:href="#X"/><use transform="matrix(0.05,0,0,0.05,15.949999999999998,0)" xlink:href="#U"/><use transform="matrix(0.05,0,0,0.05,25.950000000000003,0)" xlink:href="#ae"/><use transform="matrix(0.05,0,0,0.05,30.950000000000003,0)" xlink:href="#Z"/><use transform="matrix(0.05,0,0,0.05,34.9,0)" xlink:href="#aa"/></g><path d="M30-248c87 1 191-15 191 75 0 78-77 80-158 76V0H30v-248zm33 125c57 0 124 11 124-50 0-59-68-47-124-48v98" id="af"/><g id="l"><use transform="matrix(0.05,0,0,0.05,0,0)" xlink:href="#af"/><use transform="matrix(0.05,0,0,0.05,12,0)" xlink:href="#U"/><use transform="matrix(0.05,0,0,0.05,22,0)" xlink:href="#ab"/><use transform="matrix(0.05,0,0,0.05,31,0)" xlink:href="#W"/><use transform="matrix(0.05,0,0,0.05,36,0)" xlink:href="#S"/><use transform="matrix(0.05,0,0,0.05,46,0)" xlink:href="#X"/></g><path d="M84 4C-5 8 30-112 23-190h32v120c0 31 7 50 39 49 72-2 45-101 50-169h31l1 190h-30c-1-10 1-25-2-33-11 22-28 36-60 37" id="ag"/><g id="m"><use transform="matrix(0.05,0,0,0.05,0,0)" xlink:href="#ag"/><use transform="matrix(0.05,0,0,0.05,10,0)" xlink:href="#V"/></g><path d="M210-169c-67 3-38 105-44 169h-31v-121c0-29-5-50-35-48C34-165 62-65 56 0H25l-1-190h30c1 10-1 24 2 32 10-44 99-50 107 0 11-21 27-35 58-36 85-2 47 119 55 194h-31v-121c0-29-5-49-35-48" id="ah"/><g id="n"><use transform="matrix(0.05,0,0,0.05,0,0)" xlink:href="#T"/><use transform="matrix(0.05,0,0,0.05,9,0)" xlink:href="#U"/><use transform="matrix(0.05,0,0,0.05,19,0)" xlink:href="#ah"/><use transform="matrix(0.05,0,0,0.05,33.95,0)" xlink:href="#ah"/><use transform="matrix(0.05,0,0,0.05,48.900000000000006,0)" xlink:href="#S"/><use transform="matrix(0.05,0,0,0.05,58.900000000000006,0)" xlink:href="#V"/><use transform="matrix(0.05,0,0,0.05,68.9,0)" xlink:href="#W"/><use transform="matrix(0.05,0,0,0.05,73.9,0)" xlink:href="#ac"/><use transform="matrix(0.05,0,0,0.05,83.9,0)" xlink:href="#Z"/><use transform="matrix(0.05,0,0,0.05,87.85000000000001,0)" xlink:href="#X"/><use transform="matrix(0.05,0,0,0.05,93.80000000000001,0)" xlink:href="#S"/></g><g id="o"><use transform="matrix(0.05,0,0,0.05,0,0)" xlink:href="#aa"/><use transform="matrix(0.05,0,0,0.05,3.95,0)" xlink:href="#S"/><use transform="matrix(0.05,0,0,0.05,13.949999999999998,0)" xlink:href="#ab"/></g><g id="p"><use transform="matrix(0.05,0,0,0.05,0,0)" xlink:href="#ac"/><use transform="matrix(0.05,0,0,0.05,10,0)" xlink:href="#V"/><use transform="matrix(0.05,0,0,0.05,20,0)" xlink:href="#T"/><use transform="matrix(0.05,0,0,0.05,29,0)" xlink:href="#Z"/><use transform="matrix(0.05,0,0,0.05,32.95,0)" xlink:href="#S"/><use transform="matrix(0.05,0,0,0.05,42.95,0)" xlink:href="#V"/><use transform="matrix(0.05,0,0,0.05,52.95,0)" xlink:href="#ab"/></g><g id="q"><use transform="matrix(0.05,0,0,0.05,0,0)" xlink:href="#T"/><use transform="matrix(0.05,0,0,0.05,9,0)" xlink:href="#U"/><use transform="matrix(0.05,0,0,0.05,19,0)" xlink:href="#ah"/><use transform="matrix(0.05,0,0,0.05,33.95,0)" xlink:href="#ah"/><use transform="matrix(0.05,0,0,0.05,48.900000000000006,0)" xlink:href="#S"/><use transform="matrix(0.05,0,0,0.05,58.900000000000006,0)" xlink:href="#V"/><use transform="matrix(0.05,0,0,0.05,68.9,0)" xlink:href="#W"/><use transform="matrix(0.05,0,0,0.05,73.9,0)" xlink:href="#ac"/><use transform="matrix(0.05,0,0,0.05,83.9,0)" xlink:href="#Z"/><use transform="matrix(0.05,0,0,0.05,87.85000000000001,0)" xlink:href="#X"/><use transform="matrix(0.05,0,0,0.05,93.80000000000001,0)" xlink:href="#S"/><use transform="matrix(0.05,0,0,0.05,103.80000000000001,0)" xlink:href="#ab"/></g><path d="M212-179c-10-28-35-45-73-45-59 0-87 40-87 99 0 60 29 101 89 101 43 0 62-24 78-52l27 14C228-24 195 4 139 4 59 4 22-46 18-125c-6-104 99-153 187-111 19 9 31 26 39 46" id="ai"/><g id="r"><use transform="matrix(0.05,0,0,0.05,0,0)" xlink:href="#ai"/><use transform="matrix(0.05,0,0,0.05,12.950000000000001,0)" xlink:href="#U"/><use transform="matrix(0.05,0,0,0.05,22.950000000000003,0)" xlink:href="#V"/><use transform="matrix(0.05,0,0,0.05,32.95,0)" xlink:href="#W"/><use transform="matrix(0.05,0,0,0.05,37.95,0)" xlink:href="#ac"/><use transform="matrix(0.05,0,0,0.05,47.95,0)" xlink:href="#T"/><use transform="matrix(0.05,0,0,0.05,56.95,0)" xlink:href="#W"/><use transform="matrix(0.05,0,0,0.05,61.95,0)" xlink:href="#S"/><use transform="matrix(0.05,0,0,0.05,71.95,0)" xlink:href="#X"/></g><path d="M85-194c31 0 48 13 60 33l-1-100h32l1 261h-30c-2-10 0-23-3-31C134-8 116 4 85 4 32 4 16-35 15-94c0-66 23-100 70-100zm9 24c-40 0-46 34-46 75 0 40 6 74 45 74 42 0 51-32 51-76 0-42-9-74-50-73" id="aj"/><g id="s"><use transform="matrix(0.05,0,0,0.05,0,0)" xlink:href="#ac"/><use transform="matrix(0.05,0,0,0.05,10,0)" xlink:href="#aj"/><use transform="matrix(0.05,0,0,0.05,20,0)" xlink:href="#ah"/><use transform="matrix(0.05,0,0,0.05,34.95,0)" xlink:href="#Z"/><use transform="matrix(0.05,0,0,0.05,38.900000000000006,0)" xlink:href="#V"/></g><g id="t"><use transform="matrix(0.05,0,0,0.05,0,0)" xlink:href="#Y"/><use transform="matrix(0.05,0,0,0.05,11,0)" xlink:href="#U"/><use transform="matrix(0.05,0,0,0.05,21,0)" xlink:href="#Z"/><use transform="matrix(0.05,0,0,0.05,24.95,0)" xlink:href="#X"/></g><path fill="#333" d="M15-91v-56l181-69v40L49-119l147 57v40" id="ak"/><g id="u"><use transform="matrix(0.04938271604938272,0,0,0.04938271604938272,0,0)" xlink:href="#ak"/><use transform="matrix(0.04938271604938272,0,0,0.04938271604938272,10.370370370370372,0)" xlink:href="#ak"/></g><path fill="#333" d="M185-48c-13 30-37 53-82 52C43 2 14-33 14-96s30-98 90-98c62 0 83 45 84 108H66c0 31 8 55 39 56 18 0 30-7 34-22zm-45-69c5-46-57-63-70-21-2 6-4 13-4 21h74" id="al"/><path fill="#333" d="M144 0l-44-69L55 0H2l70-98-66-92h53l41 62 40-62h54l-67 91 71 99h-54" id="am"/><path fill="#333" d="M115-3C79 11 28 4 28-45v-112H4v-33h27l15-45h31v45h36v33H77v99c-1 23 16 31 38 25v30" id="an"/><path fill="#333" d="M135-194c87-1 58 113 63 194h-50c-7-57 23-157-34-157-59 0-34 97-39 157H25l-1-190h47c2 12-1 28 3 38 12-26 28-41 61-42" id="ao"/><path fill="#333" d="M88-194c31-1 46 15 58 34l-1-101h50l1 261h-48c-2-10 0-23-3-31C134-8 116 4 84 4 32 4 16-41 15-95c0-56 19-97 73-99zm17 164c33 0 40-30 41-66 1-37-9-64-41-64s-38 30-39 65c0 43 13 65 39 65" id="ap"/><path fill="#333" d="M137-138c1-29-70-34-71-4 15 46 118 7 119 86 1 83-164 76-172 9l43-7c4 19 20 25 44 25 33 8 57-30 24-41C81-84 22-81 20-136c-2-80 154-74 161-7" id="aq"/><g id="v"><use transform="matrix(0.04938271604938272,0,0,0.04938271604938272,0,0)" xlink:href="#al"/><use transform="matrix(0.04938271604938272,0,0,0.04938271604938272,9.876543209876544,0)" xlink:href="#am"/><use transform="matrix(0.04938271604938272,0,0,0.04938271604938272,19.75308641975309,0)" xlink:href="#an"/><use transform="matrix(0.04938271604938272,0,0,0.04938271604938272,25.629629629629633,0)" xlink:href="#al"/><use transform="matrix(0.04938271604938272,0,0,0.04938271604938272,35.50617283950618,0)" xlink:href="#ao"/><use transform="matrix(0.04938271604938272,0,0,0.04938271604938272,46.320987654320994,0)" xlink:href="#ap"/><use transform="matrix(0.04938271604938272,0,0,0.04938271604938272,57.135802469135804,0)" xlink:href="#aq"/></g><path fill="#333" d="M15-22v-40l146-57-146-57v-40l181 69v56" id="ar"/><g id="w"><use transform="matrix(0.04938271604938272,0,0,0.04938271604938272,0,0)" xlink:href="#ar"/><use transform="matrix(0.04938271604938272,0,0,0.04938271604938272,10.370370370370372,0)" xlink:href="#ar"/></g><path fill="#333" d="M25-224v-37h50v37H25zM25 0v-190h50V0H25" id="as"/><path fill="#333" d="M190-63c-7 42-38 67-86 67-59 0-84-38-90-98-12-110 154-137 174-36l-49 2c-2-19-15-32-35-32-30 0-35 28-38 64-6 74 65 87 74 30" id="at"/><path fill="#333" d="M25 0v-261h50V0H25" id="au"/><path fill="#333" d="M85 4C-2 5 27-109 22-190h50c7 57-23 150 33 157 60-5 35-97 40-157h50l1 190h-47c-2-12 1-28-3-38-12 25-28 42-61 42" id="av"/><g id="x"><use transform="matrix(0.04938271604938272,0,0,0.04938271604938272,0,0)" xlink:href="#as"/><use transform="matrix(0.04938271604938272,0,0,0.04938271604938272,4.938271604938272,0)" xlink:href="#ao"/><use transform="matrix(0.04938271604938272,0,0,0.04938271604938272,15.753086419753087,0)" xlink:href="#at"/><use transform="matrix(0.04938271604938272,0,0,0.04938271604938272,25.629629629629633,0)" xlink:href="#au"/><use transform="matrix(0.04938271604938272,0,0,0.04938271604938272,30.567901234567906,0)" xlink:href="#av"/><use transform="matrix(0.04938271604938272,0,0,0.04938271604938272,41.38271604938272,0)" xlink:href="#ap"/><use transform="matrix(0.04938271604938272,0,0,0.04938271604938272,52.19753086419754,0)" xlink:href="#al"/></g><path d="M106-169C34-169 62-67 57 0H25v-261h32l-1 103c12-21 28-36 61-36 89 0 53 116 60 194h-32v-121c2-32-8-49-39-48" id="aw"/><path d="M177-190C167-65 218 103 67 71c-23-6-38-20-44-43l32-5c15 47 100 32 89-28v-30C133-14 115 1 83 1 29 1 15-40 15-95c0-56 16-97 71-98 29-1 48 16 59 35 1-10 0-23 2-32h30zM94-22c36 0 50-32 50-73 0-42-14-75-50-75-39 0-46 34-46 75s6 73 46 73" id="ax"/><g id="y"><use transform="matrix(0.05,0,0,0.05,0,0)" xlink:href="#ai"/><use transform="matrix(0.05,0,0,0.05,12.950000000000001,0)" xlink:href="#aw"/><use transform="matrix(0.05,0,0,0.05,22.950000000000003,0)" xlink:href="#ac"/><use transform="matrix(0.05,0,0,0.05,32.95,0)" xlink:href="#V"/><use transform="matrix(0.05,0,0,0.05,42.95,0)" xlink:href="#ax"/><use transform="matrix(0.05,0,0,0.05,52.95,0)" xlink:href="#S"/><use transform="matrix(0.05,0,0,0.05,62.95,0)" xlink:href="#X"/></g><g id="z"><use transform="matrix(0.05,0,0,0.05,0,0)" xlink:href="#ah"/><use transform="matrix(0.05,0,0,0.05,14.950000000000001,0)" xlink:href="#U"/><use transform="matrix(0.05,0,0,0.05,24.950000000000003,0)" xlink:href="#W"/></g><g id="A"><use transform="matrix(0.05,0,0,0.05,0,0)" xlink:href="#aj"/><use transform="matrix(0.05,0,0,0.05,10,0)" xlink:href="#S"/></g><g id="B"><use transform="matrix(0.05,0,0,0.05,0,0)" xlink:href="#ad"/><use transform="matrix(0.05,0,0,0.05,10,0)" xlink:href="#ac"/><use transform="matrix(0.05,0,0,0.05,20,0)" xlink:href="#ab"/><use transform="matrix(0.05,0,0,0.05,29,0)" xlink:href="#ab"/><use transform="matrix(0.05,0,0,0.05,38,0)" xlink:href="#S"/></g></defs></g></svg>