<svg xmlns="http://www.w3.org/2000/svg" xmlns:xlink="http://www.w3.org/1999/xlink" xmlns:lucid="lucid" width="1627" height="1114"><g transform="translate(5 -2616)" lucid:page-tab-id="0_0"><path d="M0 0h1870.87v3840.5H0z" fill="#fff"/><path d="M200 2646a6 6 0 0 1 6-6h1388a6 6 0 0 1 6 6v1068a6 6 0 0 1-6 6H206a6 6 0 0 1-6-6z" stroke="#5e5e5e" stroke-width="3" fill-opacity="0"/><use xlink:href="#a" transform="matrix(1,0,0,1,208.0000000000001,2648) translate(613.7592592592592 17.77777777777778)"/><use xlink:href="#b" transform="matrix(1,0,0,1,208.0000000000001,2648) translate(693.8827160493827 17.77777777777778)"/><use xlink:href="#c" transform="matrix(1,0,0,1,208.0000000000001,2648) translate(707.4012345679012 17.77777777777778)"/><path d="M99.75 3059.75c0 10.9-8.84 19.75-19.75 19.75-10.9 0-19.75-8.84-19.75-19.75 0-10.9 8.84-19.75 19.75-19.75 10.9 0 19.75 8.84 19.75 19.75z" stroke="#5e5e5e" stroke-width="3" fill="#fff"/><path d="M80 3079.5v49.3a20.7 20.7 0 0 0 3.2 11.07L120 3198m-40-63.2L40 3198m0-98.75h80" stroke="#5e5e5e" stroke-width="3" fill="none"/><path d="M40 3046a6 6 0 0 1 6-6h68a6 6 0 0 1 6 6v168a6 6 0 0 1-6 6H46a6 6 0 0 1-6-6z" fill="none"/><use xlink:href="#d" transform="matrix(1,0,0,1,-40,3198) translate(88.58024691358025 17.77777777777778)"/><path d="M80 3037.5V1950.02" stroke="#5e5e5e" stroke-width="2" fill="none"/><path d="M81 3038.6l-.92-.1-1.08.03v-1.06h2z" stroke="#5e5e5e" stroke-width=".05" fill="#5e5e5e"/><path d="M80 1950.05v-4.03" stroke="#5e5e5e" stroke-width="2" fill="none"/><path d="M600 3020c0 77.32-67.16 140-150 140s-150-62.68-150-140 67.16-140 150-140 150 62.68 150 140zm-300 0h300" stroke="#5e5e5e" stroke-width="3" fill="#fff"/><use xlink:href="#e" transform="matrix(1,0,0,1,345,2908) translate(17.625 59.6)"/><use xlink:href="#f" transform="matrix(1,0,0,1,345,2908) translate(53.525 59.6)"/><use xlink:href="#g" transform="matrix(1,0,0,1,345,2908) translate(107.42500000000001 59.6)"/><use xlink:href="#h" transform="matrix(1,0,0,1,345,3044) translate(43.099999999999994 14.4)"/><use xlink:href="#i" transform="matrix(1,0,0,1,345,3044) translate(110.05 14.4)"/><use xlink:href="#h" transform="matrix(1,0,0,1,345,3044) translate(15.125 36)"/><use xlink:href="#j" transform="matrix(1,0,0,1,345,3044) translate(82.075 36)"/><use xlink:href="#h" transform="matrix(1,0,0,1,345,3044) translate(28.099999999999994 57.6)"/><use xlink:href="#k" transform="matrix(1,0,0,1,345,3044) translate(95.05 57.6)"/><use xlink:href="#l" transform="matrix(1,0,0,1,345,3044) translate(52.55 79.20000000000002)"/><use xlink:href="#m" transform="matrix(1,0,0,1,345,3044) translate(119.5 79.20000000000002)"/><use xlink:href="#n" transform="matrix(1,0,0,1,300,3020) translate(70.57499999999999 15.6)"/><use xlink:href="#o" transform="matrix(1,0,0,1,300,3020) translate(130.425 15.6)"/><path d="M1050 3130c0 33.14-35.82 60-80 60s-80-26.86-80-60 35.82-60 80-60 80 26.86 80 60z" stroke="#5e5e5e" stroke-width="3" fill="#fff"/><use xlink:href="#p" transform="matrix(1,0,0,1,890,3070) translate(31.079999999999995 40.65)"/><use xlink:href="#q" transform="matrix(1,0,0,1,890,3070) translate(123.93 40.65)"/><use xlink:href="#r" transform="matrix(1,0,0,1,890,3070) translate(13.104999999999999 62.25)"/><use xlink:href="#s" transform="matrix(1,0,0,1,890,3070) translate(126.90500000000002 62.25)"/><use xlink:href="#t" transform="matrix(1,0,0,1,890,3070) translate(28.104999999999993 83.85000000000001)"/><path d="M1140 2850c0 71.8-76.1 130-170 130s-170-58.2-170-130 76.1-130 170-130 170 58.2 170 130zm-340 0h340" stroke="#5e5e5e" stroke-width="3" fill="#fff"/><use xlink:href="#u" transform="matrix(1,0,0,1,851,2746) translate(90.075 55.6)"/><use xlink:href="#v" transform="matrix(1,0,0,1,851,2874) translate(100.525 14.4)"/><use xlink:href="#w" transform="matrix(1,0,0,1,851,2874) translate(13.674999999999983 36)"/><use xlink:href="#x" transform="matrix(1,0,0,1,851,2874) translate(106.52499999999999 36)"/><use xlink:href="#y" transform="matrix(1,0,0,1,851,2874) translate(116.52499999999999 36)"/><use xlink:href="#z" transform="matrix(1,0,0,1,851,2874) translate(97.07499999999999 57.6)"/><use xlink:href="#A" transform="matrix(1,0,0,1,851,2874) translate(96.05 79.20000000000002)"/><use xlink:href="#n" transform="matrix(1,0,0,1,800,2850) translate(91.07499999999999 15.6)"/><use xlink:href="#o" transform="matrix(1,0,0,1,800,2850) translate(150.925 15.6)"/><path d="M120.92 3097.35l176.66-76.95" stroke="#5e5e5e" stroke-width="2" fill="none"/><path d="M121.34 3098.26l-1.34.58v-1.1h-2.5l3.04-1.32zM298.5 3020v1.1l-.54.23-.8-1.84 1.36-.6zM887.92 3128.7l-.7 1.88-3.75-1.43.72-1.87zm-11.2-4.28l-.7 1.86-7.48-2.86.72-1.87zm-14.93-5.73l-.72 1.86-7.47-2.86.73-1.87zm-14.94-5.73l-.72 1.87-7.46-2.87.7-1.86zm-14.93-5.72l-.72 1.86-7.46-2.85.72-1.87zm-14.94-5.73l-.72 1.87-7.47-2.87.73-1.87zm-14.94-5.72l-.7 1.87-7.48-2.87.7-1.86zm-14.93-5.72l-.72 1.86-7.45-2.86.7-1.87zm-15.65-3.86l-1.44-.55h1.65zm-51.52-21.9h-.03zm-7.5-2.86l-.7 1.87-7.48-2.86.72-1.87zm-14.93-5.72l-.7 1.86-7.48-2.86.72-1.87zM682.6 3050l-.72 1.88-7.46-2.86.7-1.87zm-14.93-5.7l-.72 1.86-7.47-2.86.72-1.87zm-14.94-5.74l-.7 1.87-7.48-2.86.72-1.87zm-14.93-5.72l-.7 1.87-7.48-2.85.7-1.87zm-14.93-5.72l-.72 1.87-3.73-1.45.7-1.86z" stroke="#5e5e5e" stroke-width=".05" fill="#5e5e5e"/><path d="M619.5 3021.93l-3.32 8.66-11.66-9.44z" fill="#5e5e5e"/><path d="M620.93 3021l-4.3 11.24L601.5 3020zm-5.2 7.95l2.35-6.1-10.54-.53z" stroke="#5e5e5e" stroke-width=".05" fill="#5e5e5e"/><path d="M888.53 3128.94l-.03 1.04v.43l.03.68-1.35-.5.72-1.88z" fill="#5e5e5e"/><path d="M888.56 3128.92l-.03 1.06v.43l.02.72-1.4-.54.74-1.9zm-1.34 1.63l1.28.5-.02-.64v-.42l.03-1.02-.6-.23z" stroke="#5e5e5e" stroke-width=".05" fill="#5e5e5e"/><use xlink:href="#B" transform="matrix(1,0,0,1,688.2839851922153,3064.3333333333335) translate(0.005000000000002558 14.222222222222223)"/><use xlink:href="#C" transform="matrix(1,0,0,1,688.2839851922153,3064.3333333333335) translate(25.68401234567902 14.222222222222223)"/><use xlink:href="#D" transform="matrix(1,0,0,1,688.2839851922153,3064.3333333333335) translate(92.69635802469136 14.222222222222223)"/><path d="M619.2 3006.05l-3.04 2.62-1.3-1.5 3.03-2.64zm12.15-10.5l-6.08 5.26-1.3-1.5 6.07-5.25zm12.15-10.47l-6.08 5.24-1.3-1.5 6.07-5.25zm12.14-10.48l-6.07 5.24-1.3-1.52 6.07-5.24zm12.15-10.5l-6.08 5.26-1.3-1.52 6.07-5.24zm12.14-10.47l-6.07 5.24-1.3-1.5 6.07-5.26zm6.08-5.24l-1.3-1.53 1.4-1.2h3.05zm30.37-26.22l-2.5 2.15h-3.07l4.25-3.67zm12.14-10.5l-6.07 5.26-1.3-1.52 6.06-5.24zm12.15-10.47l-6.1 5.25-1.3-1.5 6.08-5.25zm12.14-10.47l-6.08 5.24-1.3-1.52 6.07-5.24zm12.15-10.5l-6.1 5.25-1.3-1.5 6.08-5.25zm12.13-10.47l-6.07 5.24-1.3-1.5 6.07-5.26zm12.15-10.5l-6.07 5.25-1.3-1.5 6.08-5.24zm9.12-7.85l-3.04 2.63-1.3-1.5 3.03-2.63z" stroke="#5e5e5e" stroke-width=".05" fill="#5e5e5e"/><path d="M617.78 3012.07l-13.83 5.82 7.77-12.84z" fill="#5e5e5e"/><path d="M619.43 3012.46L601.5 3020l10.08-16.64zm-13.03 3.3l9.72-4.07-4.26-4.95z" stroke="#5e5e5e" stroke-width=".05" fill="#5e5e5e"/><path d="M798.5 2850v1.3l-.12.13-1.3-1.52 1.45-1.24z" fill="#5e5e5e"/><path d="M798.52 2850l.02 1.32-.17.14-1.34-1.55 1.52-1.3zm-1.4-.08l1.26 1.47.1-.1v-1.3l.02-1.3z" stroke="#5e5e5e" stroke-width=".05" fill="#5e5e5e"/><g><use xlink:href="#B" transform="matrix(1,0,0,1,643.2839505934131,2924.3333333333335) translate(0.005000000000002558 14.222222222222223)"/><use xlink:href="#C" transform="matrix(1,0,0,1,643.2839505934131,2924.3333333333335) translate(25.68401234567902 14.222222222222223)"/><use xlink:href="#D" transform="matrix(1,0,0,1,643.2839505934131,2924.3333333333335) translate(92.69635802469136 14.222222222222223)"/></g><path d="M1040 3340c0 33.14-35.82 60-80 60s-80-26.86-80-60 35.82-60 80-60 80 26.86 80 60z" stroke="#5e5e5e" stroke-width="3" fill="#fff"/><g><use xlink:href="#E" transform="matrix(1,0,0,1,880,3280) translate(39.05499999999999 40.65)"/><use xlink:href="#F" transform="matrix(1,0,0,1,880,3280) translate(100.95500000000001 40.65)"/><use xlink:href="#G" transform="matrix(1,0,0,1,880,3280) translate(30.60499999999999 62.25)"/><use xlink:href="#H" transform="matrix(1,0,0,1,880,3280) translate(99.405 62.25)"/><use xlink:href="#I" transform="matrix(1,0,0,1,880,3280) translate(43.05499999999999 83.85000000000001)"/></g><path d="M1040 3550c0 33.14-35.82 60-80 60s-80-26.86-80-60 35.82-60 80-60 80 26.86 80 60z" stroke="#5e5e5e" stroke-width="3" fill="#fff"/><g><use xlink:href="#E" transform="matrix(1,0,0,1,880,3490) translate(39.05499999999999 51.9)"/><use xlink:href="#F" transform="matrix(1,0,0,1,880,3490) translate(100.95500000000001 51.9)"/><use xlink:href="#G" transform="matrix(1,0,0,1,880,3490) translate(20.604999999999997 73.5)"/><use xlink:href="#J" transform="matrix(1,0,0,1,880,3490) translate(89.40500000000002 73.5)"/><use xlink:href="#K" transform="matrix(1,0,0,1,880,3490) translate(114.40500000000002 73.5)"/></g><path d="M878.6 3338.6l-1.5 1.3-2.65-3.05 1.5-1.3zm-7.93-9.17l-1.5 1.3-5.3-6.1 1.52-1.3zm-10.56-12.2l-1.5 1.3-5.3-6.1 1.52-1.3zM849.55 3305l-1.52 1.32-5.28-6.1 1.5-1.3zm-10.57-12.2l-1.52 1.3-5.28-6.1 1.5-1.3zm-10.57-12.2l-1.5 1.3-5.3-6.1 1.5-1.3zm-10.57-12.22l-1.5 1.3-5.3-6.1 1.5-1.3zm-10.57-12.2l-1.5 1.3-5.3-6.1 1.5-1.32zm-10.57-12.22l-1.52 1.3-5.3-6.1 1.52-1.3zm-10.58-12.2l-1.5 1.3-5.3-6.1 1.5-1.32zm-10.57-12.22l-1.5 1.3-5.3-6.1 1.5-1.3zm-10.57-12.2l-1.5 1.3-5.3-6.1 1.52-1.32zm-10.57-12.22l-1.5 1.3-5-5.75h2.66zm-22.3-25.8h-2.66l-2.97-3.42 1.52-1.3zm-9.4-10.83l-1.5 1.3-5.3-6.1 1.52-1.32zm-10.57-12.22l-1.5 1.3-5.3-6.1 1.52-1.3zm-10.57-12.2l-1.5 1.3-5.3-6.1 1.52-1.32zM691 3121.85l-1.52 1.3-5.28-6.1 1.5-1.3zm-10.58-12.2l-1.5 1.3-5.3-6.1 1.52-1.32zm-10.56-12.22l-1.52 1.3-5.28-6.1 1.5-1.3zm-10.58-12.2l-1.5 1.3-5.3-6.1 1.52-1.32zM648.73 3073l-1.52 1.3-5.28-6.1 1.5-1.3zm-10.57-12.2l-1.52 1.3-5.28-6.1 1.5-1.32zm-10.57-12.22l-1.5 1.3-5.3-6.1 1.5-1.3zM617 3036.4l-1.5 1.3-2.65-3.06 1.5-1.3z" stroke="#5e5e5e" stroke-width=".05" fill="#5e5e5e"/><path d="M616.46 3030.2l-7 6.07-5.84-13.82z" fill="#5e5e5e"/><path d="M618.15 3030.05l-9.1 7.87-7.55-17.92zm-8.3 4.56l4.9-4.26-9-5.45z" stroke="#5e5e5e" stroke-width=".05" fill="#5e5e5e"/><path d="M878.5 3339.98v.43l.05 1.18-1.48-1.7 1.47-1.27z" fill="#5e5e5e"/><path d="M878.52 3339.98v.43l.06 1.25-1.54-1.77 1.53-1.33zm-1.4-.1l1.4 1.63-.04-1.1v-.42l.04-1.32z" stroke="#5e5e5e" stroke-width=".05" fill="#5e5e5e"/><g><use xlink:href="#B" transform="matrix(1,0,0,1,683.2839851922153,3169.3333333333335) translate(0.005000000000002558 14.222222222222223)"/><use xlink:href="#C" transform="matrix(1,0,0,1,683.2839851922153,3169.3333333333335) translate(25.68401234567902 14.222222222222223)"/><use xlink:href="#D" transform="matrix(1,0,0,1,683.2839851922153,3169.3333333333335) translate(92.69635802469136 14.222222222222223)"/></g><path d="M878.92 3548.65l-1.77.93-1.86-3.56 1.76-.93zm-5.58-10.68l-1.77.93-3.72-7.13 1.77-.92zm-7.44-14.24l-1.78.92-3.72-7.12 1.77-.92zm-7.45-14.24l-1.77.9-3.72-7.1 1.77-.94zm-7.44-14.26l-1.76.93-3.72-7.12 1.77-.93zm-7.43-14.24l-1.78.93-3.73-7.12 1.77-.92zm-7.45-14.24l-1.77.92-3.72-7.12 1.77-.92zm-7.44-14.24l-1.77.92-3.72-7.12 1.78-.93zm-7.44-14.25l-1.78.93-3.72-7.12 1.77-.93zm-7.45-14.24l-1.78.93-3.72-7.12 1.77-.93zm-7.45-14.24l-1.77.92-3.73-7.13 1.78-.93zm-7.45-14.25l-1.77.92-3.72-7.12 1.78-.92zm-7.44-14.24l-1.77.93-3.73-7.12 1.77-.9zm-7.44-14.24l-1.77.93-3.73-7.13 1.78-.93zm-7.44-14.24l-1.78.93-3.72-7.12 1.77-.93zm-7.45-14.24l-1.77.93-3.72-7.1 1.77-.94zm-7.44-14.24l-1.8.92-3.7-7.12 1.77-.92zm-7.46-14.25l-1.77.92-3.72-7.12 1.77-.93zm-7.44-14.25l-1.77.93-.58-1.1h2.25zm-14.9-28.48l-1.76.93-3.72-7.13 1.77-.92zm-7.43-14.24l-1.77.92-3.72-7.12 1.77-.92zm-7.44-14.25l-1.78.93-3.72-7.1 1.77-.94zm-7.45-14.24l-1.77.93-3.7-7.12 1.76-.93zm-7.44-14.24l-1.77.93-3.73-7.12 1.78-.92zm-7.44-14.24l-1.78.92-3.35-6.4h2.26zm-11.42-17.52l-1.52-2.92 1.52-.8zm-3.47-10.97l-1.76.93-3.72-7.12 1.77-.93zm-7.43-14.24l-1.78.93-3.73-7.12 1.77-.93zm-7.45-14.24l-1.77.92-3.72-7.13 1.77-.93zm-7.44-14.25l-1.77.92-3.72-7.12 1.78-.92zm-7.45-14.24l-1.77.93-3.72-7.12 1.77-.92zm-7.44-14.24l-1.78.93-3.72-7.13 1.77-.93zm-7.45-14.24l-1.77.93-3.73-7.12 1.78-.93zm-7.45-14.24l-1.77.93-3.72-7.12 1.78-.92zm-7.44-14.24l-1.77.92-3.73-7.12 1.77-.92zm-7.44-14.24l-1.78.92-1.86-3.56 1.78-.93z" stroke="#5e5e5e" stroke-width=".05" fill="#5e5e5e"/><path d="M613.7 3033.36l-8.2 4.3-2.5-14.8z" fill="#5e5e5e"/><path d="M615.4 3033.6l-10.66 5.58-3.24-19.18zm-9.14 2.53l5.77-3.02-7.53-7.36z" stroke="#5e5e5e" stroke-width=".05" fill="#5e5e5e"/><path d="M878.5 3549.98v.43l.08 1.9-1.44-2.75 1.4-.73z" fill="#5e5e5e"/><path d="M878.52 3549.98v.43l.1 2-1.5-2.86 1.44-.76zm-1.35-.4l1.38 2.62-.07-1.8v-.42l.03-1.1z" stroke="#5e5e5e" stroke-width=".05" fill="#5e5e5e"/><g><use xlink:href="#B" transform="matrix(1,0,0,1,683.2839851922153,3274.3333333333335) translate(0.005000000000002558 14.222222222222223)"/><use xlink:href="#C" transform="matrix(1,0,0,1,683.2839851922153,3274.3333333333335) translate(25.68401234567902 14.222222222222223)"/><use xlink:href="#D" transform="matrix(1,0,0,1,683.2839851922153,3274.3333333333335) translate(92.69635802469136 14.222222222222223)"/></g><defs><path fill="#333" d="M240 0l2-218c-23 76-54 145-80 218h-23L58-218 59 0H30v-248h44l77 211c21-75 51-140 76-211h43V0h-30" id="L"/><path fill="#333" d="M179-190L93 31C79 59 56 82 12 73V49c39 6 53-20 64-50L1-190h34L92-34l54-156h33" id="M"/><path fill="#333" d="M160-131c35 5 61 23 61 61C221 17 115-2 30 0v-248c76 3 177-17 177 60 0 33-19 50-47 57zm-97-11c50-1 110 9 110-42 0-47-63-36-110-37v79zm0 115c55-2 124 14 124-45 0-56-70-42-124-44v89" id="N"/><path fill="#333" d="M24 0v-261h32V0H24" id="O"/><path fill="#333" d="M100-194c62-1 85 37 85 99 1 63-27 99-86 99S16-35 15-95c0-66 28-99 85-99zM99-20c44 1 53-31 53-75 0-43-8-75-51-75s-53 32-53 75 10 74 51 75" id="P"/><path fill="#333" d="M177-190C167-65 218 103 67 71c-23-6-38-20-44-43l32-5c15 47 100 32 89-28v-30C133-14 115 1 83 1 29 1 15-40 15-95c0-56 16-97 71-98 29-1 48 16 59 35 1-10 0-23 2-32h30zM94-22c36 0 50-32 50-73 0-42-14-75-50-75-39 0-46 34-46 75s6 73 46 73" id="Q"/><g id="a"><use transform="matrix(0.06172839506172839,0,0,0.06172839506172839,0,0)" xlink:href="#L"/><use transform="matrix(0.06172839506172839,0,0,0.06172839506172839,18.456790123456788,0)" xlink:href="#M"/><use transform="matrix(0.06172839506172839,0,0,0.06172839506172839,29.5679012345679,0)" xlink:href="#N"/><use transform="matrix(0.06172839506172839,0,0,0.06172839506172839,44.38271604938271,0)" xlink:href="#O"/><use transform="matrix(0.06172839506172839,0,0,0.06172839506172839,49.25925925925925,0)" xlink:href="#P"/><use transform="matrix(0.06172839506172839,0,0,0.06172839506172839,61.60493827160493,0)" xlink:href="#Q"/></g><path fill="#333" d="M16-82v-28h88v28H16" id="R"/><use transform="matrix(0.06172839506172839,0,0,0.06172839506172839,0,0)" xlink:href="#R" id="b"/><path fill="#333" d="M205 0l-28-72H64L36 0H1l101-248h38L239 0h-34zm-38-99l-47-123c-12 45-31 82-46 123h93" id="S"/><path fill="#333" d="M85-194c31 0 48 13 60 33l-1-100h32l1 261h-30c-2-10 0-23-3-31C134-8 116 4 85 4 32 4 16-35 15-94c0-66 23-100 70-100zm9 24c-40 0-46 34-46 75 0 40 6 74 45 74 42 0 51-32 51-76 0-42-9-74-50-73" id="T"/><path fill="#333" d="M210-169c-67 3-38 105-44 169h-31v-121c0-29-5-50-35-48C34-165 62-65 56 0H25l-1-190h30c1 10-1 24 2 32 10-44 99-50 107 0 11-21 27-35 58-36 85-2 47 119 55 194h-31v-121c0-29-5-49-35-48" id="U"/><path fill="#333" d="M24-231v-30h32v30H24zM24 0v-190h32V0H24" id="V"/><path fill="#333" d="M117-194c89-4 53 116 60 194h-32v-121c0-31-8-49-39-48C34-167 62-67 57 0H25l-1-190h30c1 10-1 24 2 32 11-22 29-35 61-36" id="W"/><g id="c"><use transform="matrix(0.06172839506172839,0,0,0.06172839506172839,0,0)" xlink:href="#S"/><use transform="matrix(0.06172839506172839,0,0,0.06172839506172839,14.814814814814813,0)" xlink:href="#T"/><use transform="matrix(0.06172839506172839,0,0,0.06172839506172839,27.160493827160494,0)" xlink:href="#U"/><use transform="matrix(0.06172839506172839,0,0,0.06172839506172839,45.61728395061728,0)" xlink:href="#V"/><use transform="matrix(0.06172839506172839,0,0,0.06172839506172839,50.49382716049382,0)" xlink:href="#W"/></g><g id="d"><use transform="matrix(0.06172839506172839,0,0,0.06172839506172839,0,0)" xlink:href="#S"/><use transform="matrix(0.06172839506172839,0,0,0.06172839506172839,14.814814814814813,0)" xlink:href="#T"/><use transform="matrix(0.06172839506172839,0,0,0.06172839506172839,27.160493827160494,0)" xlink:href="#U"/><use transform="matrix(0.06172839506172839,0,0,0.06172839506172839,45.61728395061728,0)" xlink:href="#V"/><use transform="matrix(0.06172839506172839,0,0,0.06172839506172839,50.49382716049382,0)" xlink:href="#W"/></g><path d="M137 0h-34L2-248h35l83 218 83-218h36" id="X"/><path d="M100-194c62-1 85 37 85 99 1 63-27 99-86 99S16-35 15-95c0-66 28-99 85-99zM99-20c44 1 53-31 53-75 0-43-8-75-51-75s-53 32-53 75 10 74 51 75" id="Y"/><path d="M24-231v-30h32v30H24zM24 0v-190h32V0H24" id="Z"/><path d="M114-163C36-179 61-72 57 0H25l-1-190h30c1 12-1 29 2 39 6-27 23-49 58-41v29" id="aa"/><g id="e"><use transform="matrix(0.05,0,0,0.05,0,0)" xlink:href="#X"/><use transform="matrix(0.05,0,0,0.05,11,0)" xlink:href="#Y"/><use transform="matrix(0.05,0,0,0.05,21,0)" xlink:href="#Z"/><use transform="matrix(0.05,0,0,0.05,24.95,0)" xlink:href="#aa"/></g><path d="M141-36C126-15 110 5 73 4 37 3 15-17 15-53c-1-64 63-63 125-63 3-35-9-54-41-54-24 1-41 7-42 31l-33-3c5-37 33-52 76-52 45 0 72 20 72 64v82c-1 20 7 32 28 27v20c-31 9-61-2-59-35zM48-53c0 20 12 33 32 33 41-3 63-29 60-74-43 2-92-5-92 41" id="ab"/><path d="M85-194c31 0 48 13 60 33l-1-100h32l1 261h-30c-2-10 0-23-3-31C134-8 116 4 85 4 32 4 16-35 15-94c0-66 23-100 70-100zm9 24c-40 0-46 34-46 75 0 40 6 74 45 74 42 0 51-32 51-76 0-42-9-74-50-73" id="ac"/><path d="M210-169c-67 3-38 105-44 169h-31v-121c0-29-5-50-35-48C34-165 62-65 56 0H25l-1-190h30c1 10-1 24 2 32 10-44 99-50 107 0 11-21 27-35 58-36 85-2 47 119 55 194h-31v-121c0-29-5-49-35-48" id="ad"/><path d="M117-194c89-4 53 116 60 194h-32v-121c0-31-8-49-39-48C34-167 62-67 57 0H25l-1-190h30c1 10-1 24 2 32 11-22 29-35 61-36" id="ae"/><g id="f"><use transform="matrix(0.05,0,0,0.05,0,0)" xlink:href="#ab"/><use transform="matrix(0.05,0,0,0.05,10,0)" xlink:href="#ac"/><use transform="matrix(0.05,0,0,0.05,20,0)" xlink:href="#ad"/><use transform="matrix(0.05,0,0,0.05,34.95,0)" xlink:href="#Z"/><use transform="matrix(0.05,0,0,0.05,38.900000000000006,0)" xlink:href="#ae"/></g><path d="M135-143c-3-34-86-38-87 0 15 53 115 12 119 90S17 21 10-45l28-5c4 36 97 45 98 0-10-56-113-15-118-90-4-57 82-63 122-42 12 7 21 19 24 35" id="af"/><path d="M106-169C34-169 62-67 57 0H25v-261h32l-1 103c12-21 28-36 61-36 89 0 53 116 60 194h-32v-121c2-32-8-49-39-48" id="ag"/><path d="M115-194c53 0 69 39 70 98 0 66-23 100-70 100C84 3 66-7 56-30L54 0H23l1-261h32v101c10-23 28-34 59-34zm-8 174c40 0 45-34 45-75 0-40-5-75-45-74-42 0-51 32-51 76 0 43 10 73 51 73" id="ah"/><g id="g"><use transform="matrix(0.05,0,0,0.05,0,0)" xlink:href="#ac"/><use transform="matrix(0.05,0,0,0.05,10,0)" xlink:href="#ab"/><use transform="matrix(0.05,0,0,0.05,20,0)" xlink:href="#af"/><use transform="matrix(0.05,0,0,0.05,29,0)" xlink:href="#ag"/><use transform="matrix(0.05,0,0,0.05,39,0)" xlink:href="#ah"/><use transform="matrix(0.05,0,0,0.05,49,0)" xlink:href="#Y"/><use transform="matrix(0.05,0,0,0.05,59,0)" xlink:href="#ab"/><use transform="matrix(0.05,0,0,0.05,69,0)" xlink:href="#aa"/><use transform="matrix(0.05,0,0,0.05,74.95,0)" xlink:href="#ac"/></g><path d="M143 4C61 4 22-44 18-125c-5-107 100-154 193-111 17 8 29 25 37 43l-32 9c-13-25-37-40-76-40-61 0-88 39-88 99 0 61 29 100 91 101 35 0 62-11 79-27v-45h-74v-28h105v86C228-13 192 4 143 4" id="ai"/><path d="M100-194c63 0 86 42 84 106H49c0 40 14 67 53 68 26 1 43-12 49-29l28 8c-11 28-37 45-77 45C44 4 14-33 15-96c1-61 26-98 85-98zm52 81c6-60-76-77-97-28-3 7-6 17-6 28h103" id="aj"/><path d="M59-47c-2 24 18 29 38 22v24C64 9 27 4 27-40v-127H5v-23h24l9-43h21v43h35v23H59v120" id="ak"/><g id="h"><use transform="matrix(0.05,0,0,0.05,0,0)" xlink:href="#ai"/><use transform="matrix(0.05,0,0,0.05,14,0)" xlink:href="#aj"/><use transform="matrix(0.05,0,0,0.05,24,0)" xlink:href="#af"/><use transform="matrix(0.05,0,0,0.05,33,0)" xlink:href="#ak"/><use transform="matrix(0.05,0,0,0.05,38,0)" xlink:href="#Z"/><use transform="matrix(0.05,0,0,0.05,41.95,0)" xlink:href="#Y"/><use transform="matrix(0.05,0,0,0.05,51.95,0)" xlink:href="#ae"/></g><path d="M96-169c-40 0-48 33-48 73s9 75 48 75c24 0 41-14 43-38l32 2c-6 37-31 61-74 61-59 0-76-41-82-99-10-93 101-131 147-64 4 7 5 14 7 22l-32 3c-4-21-16-35-41-35" id="al"/><path d="M24 0v-261h32V0H24" id="am"/><g id="i"><use transform="matrix(0.05,0,0,0.05,0,0)" xlink:href="#ab"/><use transform="matrix(0.05,0,0,0.05,10,0)" xlink:href="#aa"/><use transform="matrix(0.05,0,0,0.05,15.949999999999998,0)" xlink:href="#ak"/><use transform="matrix(0.05,0,0,0.05,20.95,0)" xlink:href="#Z"/><use transform="matrix(0.05,0,0,0.05,24.9,0)" xlink:href="#al"/><use transform="matrix(0.05,0,0,0.05,33.9,0)" xlink:href="#am"/><use transform="matrix(0.05,0,0,0.05,37.85,0)" xlink:href="#aj"/><use transform="matrix(0.05,0,0,0.05,47.85,0)" xlink:href="#af"/></g><g id="j"><use transform="matrix(0.05,0,0,0.05,0,0)" xlink:href="#al"/><use transform="matrix(0.05,0,0,0.05,9,0)" xlink:href="#Y"/><use transform="matrix(0.05,0,0,0.05,19,0)" xlink:href="#ad"/><use transform="matrix(0.05,0,0,0.05,33.95,0)" xlink:href="#ad"/><use transform="matrix(0.05,0,0,0.05,48.900000000000006,0)" xlink:href="#aj"/><use transform="matrix(0.05,0,0,0.05,58.900000000000006,0)" xlink:href="#ae"/><use transform="matrix(0.05,0,0,0.05,68.9,0)" xlink:href="#ak"/><use transform="matrix(0.05,0,0,0.05,73.9,0)" xlink:href="#ab"/><use transform="matrix(0.05,0,0,0.05,83.9,0)" xlink:href="#Z"/><use transform="matrix(0.05,0,0,0.05,87.85000000000001,0)" xlink:href="#aa"/><use transform="matrix(0.05,0,0,0.05,93.80000000000001,0)" xlink:href="#aj"/><use transform="matrix(0.05,0,0,0.05,103.80000000000001,0)" xlink:href="#af"/></g><path d="M212-179c-10-28-35-45-73-45-59 0-87 40-87 99 0 60 29 101 89 101 43 0 62-24 78-52l27 14C228-24 195 4 139 4 59 4 22-46 18-125c-6-104 99-153 187-111 19 9 31 26 39 46" id="an"/><path d="M100-194c63 0 86 42 84 106H49c0 40 14 67 53 68 26 1 43-12 49-29l28 8c-11 28-37 45-77 45C44 4 14-33 15-96c1-61 26-98 85-98zm52 81c6-60-76-77-97-28-3 7-6 17-6 28h103zm-74-98c8-23 27-35 38-54h36v5l-58 49H78" id="ao"/><path d="M177-190C167-65 218 103 67 71c-23-6-38-20-44-43l32-5c15 47 100 32 89-28v-30C133-14 115 1 83 1 29 1 15-40 15-95c0-56 16-97 71-98 29-1 48 16 59 35 1-10 0-23 2-32h30zM94-22c36 0 50-32 50-73 0-42-14-75-50-75-39 0-46 34-46 75s6 73 46 73" id="ap"/><g id="k"><use transform="matrix(0.05,0,0,0.05,0,0)" xlink:href="#an"/><use transform="matrix(0.05,0,0,0.05,12.950000000000001,0)" xlink:href="#ab"/><use transform="matrix(0.05,0,0,0.05,22.950000000000003,0)" xlink:href="#ak"/><use transform="matrix(0.05,0,0,0.05,27.950000000000003,0)" xlink:href="#ao"/><use transform="matrix(0.05,0,0,0.05,37.95,0)" xlink:href="#ap"/><use transform="matrix(0.05,0,0,0.05,47.95,0)" xlink:href="#Y"/><use transform="matrix(0.05,0,0,0.05,57.95,0)" xlink:href="#aa"/><use transform="matrix(0.05,0,0,0.05,63.900000000000006,0)" xlink:href="#Z"/><use transform="matrix(0.05,0,0,0.05,67.85000000000001,0)" xlink:href="#aj"/><use transform="matrix(0.05,0,0,0.05,77.85000000000001,0)" xlink:href="#af"/></g><g id="l"><use transform="matrix(0.05,0,0,0.05,0,0)" xlink:href="#ai"/><use transform="matrix(0.05,0,0,0.05,14,0)" xlink:href="#aj"/><use transform="matrix(0.05,0,0,0.05,24,0)" xlink:href="#af"/><use transform="matrix(0.05,0,0,0.05,33,0)" xlink:href="#ak"/><use transform="matrix(0.05,0,0,0.05,38,0)" xlink:href="#Z"/><use transform="matrix(0.05,0,0,0.05,41.95,0)" xlink:href="#Y"/><use transform="matrix(0.05,0,0,0.05,51.95,0)" xlink:href="#ae"/></g><path d="M127-220V0H93v-220H8v-28h204v28h-85" id="aq"/><g id="m"><use transform="matrix(0.05,0,0,0.05,0,0)" xlink:href="#aq"/><use transform="matrix(0.05,0,0,0.05,8.950000000000001,0)" xlink:href="#ab"/><use transform="matrix(0.05,0,0,0.05,18.950000000000003,0)" xlink:href="#ap"/><use transform="matrix(0.05,0,0,0.05,28.950000000000003,0)" xlink:href="#af"/></g><path d="M24-248c93 1 206-16 204 79-1 75-69 88-152 82V0H24v-248zm52 121c47 0 100 7 100-41 0-47-54-39-100-39v80" id="ar"/><path d="M110-194c64 0 96 36 96 99 0 64-35 99-97 99-61 0-95-36-95-99 0-62 34-99 96-99zm-1 164c35 0 45-28 45-65 0-40-10-65-43-65-34 0-45 26-45 65 0 36 10 65 43 65" id="as"/><path d="M25-224v-37h50v37H25zM25 0v-190h50V0H25" id="at"/><path d="M135-194c87-1 58 113 63 194h-50c-7-57 23-157-34-157-59 0-34 97-39 157H25l-1-190h47c2 12-1 28 3 38 12-26 28-41 61-42" id="au"/><path d="M115-3C79 11 28 4 28-45v-112H4v-33h27l15-45h31v45h36v33H77v99c-1 23 16 31 38 25v30" id="av"/><path d="M137-138c1-29-70-34-71-4 15 46 118 7 119 86 1 83-164 76-172 9l43-7c4 19 20 25 44 25 33 8 57-30 24-41C81-84 22-81 20-136c-2-80 154-74 161-7" id="aw"/><g id="n"><use transform="matrix(0.05,0,0,0.05,0,0)" xlink:href="#ar"/><use transform="matrix(0.05,0,0,0.05,12,0)" xlink:href="#as"/><use transform="matrix(0.05,0,0,0.05,22.950000000000003,0)" xlink:href="#at"/><use transform="matrix(0.05,0,0,0.05,27.950000000000003,0)" xlink:href="#au"/><use transform="matrix(0.05,0,0,0.05,38.900000000000006,0)" xlink:href="#av"/><use transform="matrix(0.05,0,0,0.05,44.85000000000001,0)" xlink:href="#aw"/></g><path d="M88-194c31-1 46 15 58 34l-1-101h50l1 261h-48c-2-10 0-23-3-31C134-8 116 4 84 4 32 4 16-41 15-95c0-56 19-97 73-99zm17 164c33 0 40-30 41-66 1-37-9-64-41-64s-38 30-39 65c0 43 13 65 39 65" id="ax"/><path d="M62-158H24l-5-90h48" id="ay"/><path d="M185-48c-13 30-37 53-82 52C43 2 14-33 14-96s30-98 90-98c62 0 83 45 84 108H66c0 31 8 55 39 56 18 0 30-7 34-22zm-45-69c5-46-57-63-70-21-2 6-4 13-4 21h74" id="az"/><path d="M144 0l-44-69L55 0H2l70-98-66-92h53l41 62 40-62h54l-67 91 71 99h-54" id="aA"/><g id="o"><use transform="matrix(0.05,0,0,0.05,0,0)" xlink:href="#ax"/><use transform="matrix(0.05,0,0,0.05,10.950000000000001,0)" xlink:href="#ay"/><use transform="matrix(0.05,0,0,0.05,15.200000000000001,0)" xlink:href="#az"/><use transform="matrix(0.05,0,0,0.05,25.200000000000003,0)" xlink:href="#aA"/><use transform="matrix(0.05,0,0,0.05,35.2,0)" xlink:href="#av"/><use transform="matrix(0.05,0,0,0.05,41.150000000000006,0)" xlink:href="#az"/><use transform="matrix(0.05,0,0,0.05,51.150000000000006,0)" xlink:href="#au"/><use transform="matrix(0.05,0,0,0.05,62.1,0)" xlink:href="#aw"/><use transform="matrix(0.05,0,0,0.05,72.10000000000001,0)" xlink:href="#at"/><use transform="matrix(0.05,0,0,0.05,77.10000000000001,0)" xlink:href="#as"/><use transform="matrix(0.05,0,0,0.05,88.05000000000001,0)" xlink:href="#au"/></g><path d="M30-248c87 1 191-15 191 75 0 78-77 80-158 76V0H30v-248zm33 125c57 0 124 11 124-50 0-59-68-47-124-48v98" id="aB"/><path d="M84 4C-5 8 30-112 23-190h32v120c0 31 7 50 39 49 72-2 45-101 50-169h31l1 190h-30c-1-10 1-25-2-33-11 22-28 36-60 37" id="aC"/><g id="p"><use transform="matrix(0.05,0,0,0.05,0,0)" xlink:href="#aB"/><use transform="matrix(0.05,0,0,0.05,12,0)" xlink:href="#aC"/><use transform="matrix(0.05,0,0,0.05,22,0)" xlink:href="#ah"/><use transform="matrix(0.05,0,0,0.05,32,0)" xlink:href="#am"/><use transform="matrix(0.05,0,0,0.05,35.95,0)" xlink:href="#Z"/><use transform="matrix(0.05,0,0,0.05,39.900000000000006,0)" xlink:href="#al"/><use transform="matrix(0.05,0,0,0.05,48.900000000000006,0)" xlink:href="#ab"/><use transform="matrix(0.05,0,0,0.05,58.900000000000006,0)" xlink:href="#ak"/><use transform="matrix(0.05,0,0,0.05,63.900000000000006,0)" xlink:href="#Z"/><use transform="matrix(0.05,0,0,0.05,67.85000000000001,0)" xlink:href="#Y"/><use transform="matrix(0.05,0,0,0.05,77.85000000000001,0)" xlink:href="#ae"/></g><path d="M0 4l72-265h28L28 4H0" id="aD"/><use transform="matrix(0.05,0,0,0.05,0,0)" xlink:href="#aD" id="q"/><path d="M30-248c118-7 216 8 213 122C240-48 200 0 122 0H30v-248zM63-27c89 8 146-16 146-99s-60-101-146-95v194" id="aE"/><path d="M115-194c55 1 70 41 70 98S169 2 115 4C84 4 66-9 55-30l1 105H24l-1-265h31l2 30c10-21 28-34 59-34zm-8 174c40 0 45-34 45-75s-6-73-45-74c-42 0-51 32-51 76 0 43 10 73 51 73" id="aF"/><g id="r"><use transform="matrix(0.05,0,0,0.05,0,0)" xlink:href="#aE"/><use transform="matrix(0.05,0,0,0.05,12.950000000000001,0)" xlink:href="#ao"/><use transform="matrix(0.05,0,0,0.05,22.950000000000003,0)" xlink:href="#aF"/><use transform="matrix(0.05,0,0,0.05,32.95,0)" xlink:href="#aC"/><use transform="matrix(0.05,0,0,0.05,42.95,0)" xlink:href="#ah"/><use transform="matrix(0.05,0,0,0.05,52.95,0)" xlink:href="#am"/><use transform="matrix(0.05,0,0,0.05,56.900000000000006,0)" xlink:href="#Z"/><use transform="matrix(0.05,0,0,0.05,60.85,0)" xlink:href="#al"/><use transform="matrix(0.05,0,0,0.05,69.85000000000001,0)" xlink:href="#ab"/><use transform="matrix(0.05,0,0,0.05,79.85000000000001,0)" xlink:href="#ak"/><use transform="matrix(0.05,0,0,0.05,84.85000000000001,0)" xlink:href="#Z"/><use transform="matrix(0.05,0,0,0.05,88.80000000000001,0)" xlink:href="#Y"/><use transform="matrix(0.05,0,0,0.05,98.80000000000001,0)" xlink:href="#ae"/></g><g id="s"><use transform="matrix(0.05,0,0,0.05,0,0)" xlink:href="#ac"/><use transform="matrix(0.05,0,0,0.05,10,0)" xlink:href="#aj"/></g><g id="t"><use transform="matrix(0.05,0,0,0.05,0,0)" xlink:href="#al"/><use transform="matrix(0.05,0,0,0.05,9,0)" xlink:href="#Y"/><use transform="matrix(0.05,0,0,0.05,19,0)" xlink:href="#ad"/><use transform="matrix(0.05,0,0,0.05,33.95,0)" xlink:href="#ad"/><use transform="matrix(0.05,0,0,0.05,48.900000000000006,0)" xlink:href="#aj"/><use transform="matrix(0.05,0,0,0.05,58.900000000000006,0)" xlink:href="#ae"/><use transform="matrix(0.05,0,0,0.05,68.9,0)" xlink:href="#ak"/><use transform="matrix(0.05,0,0,0.05,73.9,0)" xlink:href="#ab"/><use transform="matrix(0.05,0,0,0.05,83.9,0)" xlink:href="#Z"/><use transform="matrix(0.05,0,0,0.05,87.85000000000001,0)" xlink:href="#aa"/><use transform="matrix(0.05,0,0,0.05,93.80000000000001,0)" xlink:href="#aj"/></g><path d="M205 0l-28-72H64L36 0H1l101-248h38L239 0h-34zm-38-99l-47-123c-12 45-31 82-46 123h93" id="aG"/><g id="u"><use transform="matrix(0.05,0,0,0.05,0,0)" xlink:href="#aG"/><use transform="matrix(0.05,0,0,0.05,12,0)" xlink:href="#aa"/><use transform="matrix(0.05,0,0,0.05,17.95,0)" xlink:href="#ak"/><use transform="matrix(0.05,0,0,0.05,22.95,0)" xlink:href="#Z"/><use transform="matrix(0.05,0,0,0.05,26.899999999999995,0)" xlink:href="#al"/><use transform="matrix(0.05,0,0,0.05,35.9,0)" xlink:href="#am"/><use transform="matrix(0.05,0,0,0.05,39.85,0)" xlink:href="#aj"/><use transform="matrix(0.05,0,0,0.05,49.85,0)" xlink:href="#af"/></g><path d="M30 0v-248h33v221h125V0H30" id="aH"/><g id="v"><use transform="matrix(0.05,0,0,0.05,0,0)" xlink:href="#aH"/><use transform="matrix(0.05,0,0,0.05,10,0)" xlink:href="#Z"/><use transform="matrix(0.05,0,0,0.05,13.949999999999998,0)" xlink:href="#af"/><use transform="matrix(0.05,0,0,0.05,22.95,0)" xlink:href="#ak"/><use transform="matrix(0.05,0,0,0.05,27.950000000000003,0)" xlink:href="#aj"/></g><g id="w"><use transform="matrix(0.05,0,0,0.05,0,0)" xlink:href="#aB"/><use transform="matrix(0.05,0,0,0.05,12,0)" xlink:href="#aC"/><use transform="matrix(0.05,0,0,0.05,22,0)" xlink:href="#ah"/><use transform="matrix(0.05,0,0,0.05,32,0)" xlink:href="#am"/><use transform="matrix(0.05,0,0,0.05,35.95,0)" xlink:href="#Z"/><use transform="matrix(0.05,0,0,0.05,39.900000000000006,0)" xlink:href="#al"/><use transform="matrix(0.05,0,0,0.05,48.900000000000006,0)" xlink:href="#ab"/><use transform="matrix(0.05,0,0,0.05,58.900000000000006,0)" xlink:href="#ak"/><use transform="matrix(0.05,0,0,0.05,63.900000000000006,0)" xlink:href="#Z"/><use transform="matrix(0.05,0,0,0.05,67.85000000000001,0)" xlink:href="#Y"/><use transform="matrix(0.05,0,0,0.05,77.85000000000001,0)" xlink:href="#ae"/></g><use transform="matrix(0.05,0,0,0.05,0,0)" xlink:href="#aD" id="x"/><g id="y"><use transform="matrix(0.05,0,0,0.05,0,0)" xlink:href="#aE"/><use transform="matrix(0.05,0,0,0.05,12.950000000000001,0)" xlink:href="#ao"/><use transform="matrix(0.05,0,0,0.05,22.950000000000003,0)" xlink:href="#aF"/><use transform="matrix(0.05,0,0,0.05,32.95,0)" xlink:href="#aC"/><use transform="matrix(0.05,0,0,0.05,42.95,0)" xlink:href="#ah"/><use transform="matrix(0.05,0,0,0.05,52.95,0)" xlink:href="#am"/><use transform="matrix(0.05,0,0,0.05,56.900000000000006,0)" xlink:href="#Z"/><use transform="matrix(0.05,0,0,0.05,60.85,0)" xlink:href="#al"/><use transform="matrix(0.05,0,0,0.05,69.85000000000001,0)" xlink:href="#ab"/><use transform="matrix(0.05,0,0,0.05,79.85000000000001,0)" xlink:href="#ak"/><use transform="matrix(0.05,0,0,0.05,84.85000000000001,0)" xlink:href="#Z"/><use transform="matrix(0.05,0,0,0.05,88.80000000000001,0)" xlink:href="#Y"/><use transform="matrix(0.05,0,0,0.05,98.80000000000001,0)" xlink:href="#ae"/></g><g id="z"><use transform="matrix(0.05,0,0,0.05,0,0)" xlink:href="#an"/><use transform="matrix(0.05,0,0,0.05,12.950000000000001,0)" xlink:href="#aa"/><use transform="matrix(0.05,0,0,0.05,18.900000000000002,0)" xlink:href="#ao"/><use transform="matrix(0.05,0,0,0.05,28.900000000000002,0)" xlink:href="#aj"/><use transform="matrix(0.05,0,0,0.05,38.900000000000006,0)" xlink:href="#aa"/></g><path d="M30 0v-248h187v28H63v79h144v27H63v87h162V0H30" id="aI"/><g id="A"><use transform="matrix(0.05,0,0,0.05,0,0)" xlink:href="#aI"/><use transform="matrix(0.05,0,0,0.05,12,0)" xlink:href="#ac"/><use transform="matrix(0.05,0,0,0.05,22,0)" xlink:href="#Z"/><use transform="matrix(0.05,0,0,0.05,25.950000000000003,0)" xlink:href="#ak"/><use transform="matrix(0.05,0,0,0.05,30.950000000000003,0)" xlink:href="#aj"/><use transform="matrix(0.05,0,0,0.05,40.95,0)" xlink:href="#aa"/></g><path fill="#333" d="M15-91v-56l181-69v40L49-119l147 57v40" id="aJ"/><g id="B"><use transform="matrix(0.04938271604938272,0,0,0.04938271604938272,0,0)" xlink:href="#aJ"/><use transform="matrix(0.04938271604938272,0,0,0.04938271604938272,10.370370370370372,0)" xlink:href="#aJ"/></g><path fill="#333" d="M25-224v-37h50v37H25zM25 0v-190h50V0H25" id="aK"/><path fill="#333" d="M135-194c87-1 58 113 63 194h-50c-7-57 23-157-34-157-59 0-34 97-39 157H25l-1-190h47c2 12-1 28 3 38 12-26 28-41 61-42" id="aL"/><path fill="#333" d="M190-63c-7 42-38 67-86 67-59 0-84-38-90-98-12-110 154-137 174-36l-49 2c-2-19-15-32-35-32-30 0-35 28-38 64-6 74 65 87 74 30" id="aM"/><path fill="#333" d="M25 0v-261h50V0H25" id="aN"/><path fill="#333" d="M85 4C-2 5 27-109 22-190h50c7 57-23 150 33 157 60-5 35-97 40-157h50l1 190h-47c-2-12 1-28-3-38-12 25-28 42-61 42" id="aO"/><path fill="#333" d="M88-194c31-1 46 15 58 34l-1-101h50l1 261h-48c-2-10 0-23-3-31C134-8 116 4 84 4 32 4 16-41 15-95c0-56 19-97 73-99zm17 164c33 0 40-30 41-66 1-37-9-64-41-64s-38 30-39 65c0 43 13 65 39 65" id="aP"/><path fill="#333" d="M185-48c-13 30-37 53-82 52C43 2 14-33 14-96s30-98 90-98c62 0 83 45 84 108H66c0 31 8 55 39 56 18 0 30-7 34-22zm-45-69c5-46-57-63-70-21-2 6-4 13-4 21h74" id="aQ"/><g id="C"><use transform="matrix(0.04938271604938272,0,0,0.04938271604938272,0,0)" xlink:href="#aK"/><use transform="matrix(0.04938271604938272,0,0,0.04938271604938272,4.938271604938272,0)" xlink:href="#aL"/><use transform="matrix(0.04938271604938272,0,0,0.04938271604938272,15.753086419753087,0)" xlink:href="#aM"/><use transform="matrix(0.04938271604938272,0,0,0.04938271604938272,25.629629629629633,0)" xlink:href="#aN"/><use transform="matrix(0.04938271604938272,0,0,0.04938271604938272,30.567901234567906,0)" xlink:href="#aO"/><use transform="matrix(0.04938271604938272,0,0,0.04938271604938272,41.38271604938272,0)" xlink:href="#aP"/><use transform="matrix(0.04938271604938272,0,0,0.04938271604938272,52.19753086419754,0)" xlink:href="#aQ"/></g><path fill="#333" d="M15-22v-40l146-57-146-57v-40l181 69v56" id="aR"/><g id="D"><use transform="matrix(0.04938271604938272,0,0,0.04938271604938272,0,0)" xlink:href="#aR"/><use transform="matrix(0.04938271604938272,0,0,0.04938271604938272,10.370370370370372,0)" xlink:href="#aR"/></g><path d="M24-231v-30h32v30H24zM-9 49c24 4 33-6 33-30v-209h32V24c2 40-23 58-65 49V49" id="aS"/><g id="E"><use transform="matrix(0.05,0,0,0.05,0,0)" xlink:href="#aG"/><use transform="matrix(0.05,0,0,0.05,12,0)" xlink:href="#aS"/><use transform="matrix(0.05,0,0,0.05,15.949999999999998,0)" xlink:href="#Y"/><use transform="matrix(0.05,0,0,0.05,25.950000000000003,0)" xlink:href="#aC"/><use transform="matrix(0.05,0,0,0.05,35.95,0)" xlink:href="#ak"/><use transform="matrix(0.05,0,0,0.05,40.95,0)" xlink:href="#aj"/><use transform="matrix(0.05,0,0,0.05,50.95,0)" xlink:href="#aa"/></g><g id="F"><use transform="matrix(0.05,0,0,0.05,0,0)" xlink:href="#Y"/><use transform="matrix(0.05,0,0,0.05,10,0)" xlink:href="#aC"/></g><path d="M101-234c-31-9-42 10-38 44h38v23H63V0H32v-167H5v-23h27c-7-52 17-82 69-68v24" id="aT"/><g id="G"><use transform="matrix(0.05,0,0,0.05,0,0)" xlink:href="#ad"/><use transform="matrix(0.05,0,0,0.05,14.950000000000001,0)" xlink:href="#Y"/><use transform="matrix(0.05,0,0,0.05,24.950000000000003,0)" xlink:href="#ac"/><use transform="matrix(0.05,0,0,0.05,34.95,0)" xlink:href="#Z"/><use transform="matrix(0.05,0,0,0.05,38.900000000000006,0)" xlink:href="#aT"/><use transform="matrix(0.05,0,0,0.05,43.900000000000006,0)" xlink:href="#Z"/><use transform="matrix(0.05,0,0,0.05,47.85000000000001,0)" xlink:href="#aj"/><use transform="matrix(0.05,0,0,0.05,57.85,0)" xlink:href="#aa"/></g><g id="H"><use transform="matrix(0.05,0,0,0.05,0,0)" xlink:href="#aC"/><use transform="matrix(0.05,0,0,0.05,10,0)" xlink:href="#ae"/><use transform="matrix(0.05,0,0,0.05,20,0)" xlink:href="#aj"/></g><g id="I"><use transform="matrix(0.05,0,0,0.05,0,0)" xlink:href="#al"/><use transform="matrix(0.05,0,0,0.05,9,0)" xlink:href="#ab"/><use transform="matrix(0.05,0,0,0.05,19,0)" xlink:href="#ak"/><use transform="matrix(0.05,0,0,0.05,24,0)" xlink:href="#ao"/><use transform="matrix(0.05,0,0,0.05,34,0)" xlink:href="#ap"/><use transform="matrix(0.05,0,0,0.05,44,0)" xlink:href="#Y"/><use transform="matrix(0.05,0,0,0.05,54,0)" xlink:href="#aa"/><use transform="matrix(0.05,0,0,0.05,59.95,0)" xlink:href="#Z"/><use transform="matrix(0.05,0,0,0.05,63.900000000000006,0)" xlink:href="#aj"/></g><g id="J"><use transform="matrix(0.05,0,0,0.05,0,0)" xlink:href="#aC"/><use transform="matrix(0.05,0,0,0.05,10,0)" xlink:href="#ae"/></g><g id="K"><use transform="matrix(0.05,0,0,0.05,0,0)" xlink:href="#ak"/><use transform="matrix(0.05,0,0,0.05,5,0)" xlink:href="#ab"/><use transform="matrix(0.05,0,0,0.05,15,0)" xlink:href="#ap"/></g></defs></g></svg>